<svg width="24" height="24" viewBox="0 0 24 24" fill="none" xmlns="http://www.w3.org/2000/svg">
<g clip-path="url(#clip0)">
<path d="M10.9906 4.73014C12.2954 4.73014 13.3555 3.67126 13.3555 2.3651C13.3555 1.05854 12.2954 0 10.9906 0C9.68423 0 8.625 1.05854 8.625 2.3651C8.625 3.67126 9.68423 4.73014 10.9906 4.73014Z" fill="#979797"/>
<path d="M14.6455 18.132C14.017 20.3142 12.0053 21.9168 9.62346 21.9168C6.73911 21.9168 4.39348 19.571 4.39348 16.6876C4.39348 14.5531 5.68116 12.716 7.51881 11.9042V9.68732C4.50939 10.5938 2.31055 13.3874 2.31055 16.6876C2.31055 20.7194 5.59106 24 9.62341 24C12.562 24 15.0949 22.2535 16.2562 19.7476L15.4305 18.1254C15.1988 18.1273 14.9303 18.1297 14.6455 18.132Z" fill="#979797"/>
<path d="M21.5365 20.9395L18.3686 14.7112C18.1321 14.2452 17.6542 13.9519 17.1313 13.9519H13.0739V13.0267H16.5659C16.9146 13.0267 17.2076 12.8444 17.397 12.5819C17.52 12.4108 17.6075 12.2121 17.6075 11.9849C17.6075 11.4098 17.1417 10.9434 16.5659 10.9434H14.4621H13.0739V7.80527C13.0739 6.94221 12.4339 5.72205 10.9914 5.72205C9.84088 5.72205 8.9082 6.65487 8.9082 7.80527V14.6043C8.9082 15.7779 9.85962 16.7293 11.0333 16.7293H14.8513H16.2798L19.0616 22.1987C19.3061 22.6804 19.7939 22.9584 20.3002 22.9584C20.5124 22.9584 20.7276 22.9099 20.9287 22.807C21.6133 22.4597 21.8852 21.6231 21.5365 20.9395Z" fill="#979797"/>
</g>
<defs>
<clipPath id="clip0">
<rect width="24" height="24" fill="white"/>
</clipPath>
</defs>
</svg>
