<?xml version="1.0" encoding="utf-8"?>
<!-- Generator: Adobe Illustrator 23.0.1, SVG Export Plug-In . SVG Version: 6.00 Build 0)  -->
<svg version="1.1" id="Слой_1" xmlns="http://www.w3.org/2000/svg" xmlns:xlink="http://www.w3.org/1999/xlink" x="0px" y="0px"
	 viewBox="0 0 100 100" style="enable-background:new 0 0 100 100;" xml:space="preserve">
<style type="text/css">
	.st0{fill:#FFFFFF;}
	.st1{fill:#FFFFFF;filter:url(#Adobe_OpacityMaskFilter);}
	.st2{mask:url(#mask0_2_);}
	.st3{fill:#F84B15;}
	.st4{fill:#021C77;}
	.st5{fill:#F1CEBE;}
	.st6{fill-rule:evenodd;clip-rule:evenodd;fill:#130017;}
	.st7{fill:#1E0B07;}
	.st8{fill:#E17235;}
	.st9{fill-rule:evenodd;clip-rule:evenodd;fill:#E9BCAD;}
	.st10{fill:#130017;}
</style>
<g>
	<circle class="st0" cx="50" cy="50" r="50"/>
</g>
<defs>
	<filter id="Adobe_OpacityMaskFilter" filterUnits="userSpaceOnUse" x="8" y="10.9" width="83.9" height="89.1">
		<feColorMatrix  type="matrix" values="1 0 0 0 0  0 1 0 0 0  0 0 1 0 0  0 0 0 1 0"/>
	</filter>
</defs>
<mask maskUnits="userSpaceOnUse" x="8" y="10.9" width="83.9" height="89.1" id="mask0_2_">
	<circle class="st1" cx="50" cy="50" r="50"/>
</mask>
<g class="st2">
	<path class="st3" d="M72,30.6H28v51.6H72V30.6z"/>
	<path class="st4" d="M82,82.6l-26.2-7.1H43.7l-25.9,7.1c0,0-9.9,3.5-9.9,17.4h83.9C91.9,86.1,82,82.6,82,82.6z"/>
	<path class="st5" d="M38.3,76.9l5.4-1.4h12.1l5.6,1.4c0,0,2.2,7.8-11.4,7.8C35.5,84.6,38.3,76.9,38.3,76.9z"/>
	<path class="st5" d="M31.7,41.1c-0.4-0.8-1.1-1.4-1.9-1.8c-0.8-0.4-1.7-0.5-2.6-0.4c-5.7,0.6-4.8,13.7,2.6,13.1
		C38,51.2,31.7,41.1,31.7,41.1z"/>
	<path class="st6" d="M26.1,43.7l-0.1-0.5c-0.3,0-0.5,0.3-0.4,0.6c0,0.3,0.3,0.5,0.6,0.4l0,0l0,0l0,0c0,0,0,0,0,0l0,0c0,0,0,0,0.1,0
		c0.1,0,0.2,0,0.4,0c0.3,0,0.7,0.1,1.2,0.3c0.9,0.4,2.1,1.2,2.9,3.3c0.1,0.3,0.4,0.4,0.7,0.3c0.3-0.1,0.4-0.4,0.3-0.7
		c-0.9-2.3-2.2-3.4-3.4-3.9c-0.6-0.2-1.1-0.3-1.5-0.3c-0.2,0-0.4,0-0.5,0c-0.1,0-0.1,0-0.1,0c0,0,0,0,0,0l0,0l0,0l0,0l0,0
		C26.1,43.2,26.1,43.2,26.1,43.7z"/>
	<path class="st5" d="M68,41.1c0.4-0.8,1.1-1.4,1.9-1.8c0.8-0.4,1.7-0.5,2.6-0.4c5.7,0.6,4.8,13.7-2.6,13.1
		C61.6,51.2,68,41.1,68,41.1z"/>
	<path class="st6" d="M73.6,43.2c0,0,0,0-0.1,0.5L73.6,43.2c0.3,0,0.5,0.3,0.4,0.6c0,0.3-0.3,0.5-0.6,0.4l0.1-0.5
		c-0.1,0.5-0.1,0.5-0.1,0.5l0,0l0,0l0,0c0,0,0,0,0,0l0,0c0,0,0,0-0.1,0c-0.1,0-0.2,0-0.4,0c-0.3,0-0.7,0.1-1.2,0.3
		c-0.9,0.4-2.1,1.2-2.9,3.3c-0.1,0.3-0.4,0.4-0.7,0.3c-0.3-0.1-0.4-0.4-0.3-0.7c0.9-2.3,2.2-3.4,3.4-3.9c0.6-0.2,1.1-0.3,1.5-0.3
		c0.2,0,0.4,0,0.5,0C73.5,43.2,73.5,43.2,73.6,43.2C73.6,43.2,73.6,43.2,73.6,43.2L73.6,43.2L73.6,43.2L73.6,43.2L73.6,43.2z"/>
	<path class="st3" d="M50.9,52.5C63.1,52,72.5,42.3,72,30.8c-0.5-11.5-10.7-20.4-22.9-19.9c-12.2,0.5-21.7,10.2-21.2,21.7
		S38.7,53.1,50.9,52.5z"/>
	<path class="st5" d="M44.8,61.1l-1.3,18.4l12.7,0.1L54.4,61L44.8,61.1z"/>
	<path class="st7" d="M44.6,63.2l10.8,8.1l-0.9-10.6l-9,0L44.6,63.2z"/>
	<path class="st5" d="M31.2,37.9c0,0-0.1,25.4,17.7,26.1c20,0.8,19.8-26,19.8-26s2.3-20.2-19.4-20.2C28.7,17.9,31.2,37.9,31.2,37.9z
		"/>
	<path class="st8" d="M45,34.2c-3.3,0.4-6.6,1.1-9.8,2.1c-0.4,0.1-0.8-0.1-0.7-0.4c0.1-0.6,0.8-1.2,2.1-2c2.1-1,4.5-1.4,6.8-1.2
		c0.4,0,0.8,0.1,1.1,0.4c0.3,0.2,0.6,0.6,0.7,0.9C45.3,34.1,45.2,34.1,45,34.2z"/>
	<path class="st8" d="M53,34.2c3.3,0.4,6.6,1.1,9.8,2.1c0.4,0.1,0.8-0.1,0.7-0.4c-0.2-0.6-0.8-1.2-2.1-2c-2.1-1-4.5-1.4-6.8-1.2
		c-0.4,0-0.8,0.1-1.1,0.4c-0.3,0.2-0.6,0.6-0.7,0.9C52.7,34.1,52.8,34.1,53,34.2z"/>
	<path class="st6" d="M48.2,46.5c0.3,0,0.5,0.2,0.5,0.5v2.4h1.1c0.3,0,0.5,0.2,0.5,0.5s-0.2,0.5-0.5,0.5h-1.6
		c-0.3,0-0.5-0.2-0.5-0.5V47C47.7,46.7,47.9,46.5,48.2,46.5z"/>
	<path class="st6" d="M54.6,52.9c0.1,0.3,0,0.6-0.3,0.6c-3.2,1.2-6.8,1.2-10,0.1c-0.3-0.1-0.4-0.4-0.3-0.6c0.1-0.3,0.4-0.4,0.6-0.3
		c3,1.1,6.3,1,9.3-0.1C54.2,52.5,54.5,52.6,54.6,52.9z"/>
	<path class="st9" d="M53.9,44.6c0.1-0.2,0.3-0.2,0.5-0.1l2.2,1.6c0.2,0.1,0.2,0.3,0.1,0.5c-0.1,0.2-0.3,0.2-0.5,0.1L53.9,45
		C53.8,44.9,53.8,44.7,53.9,44.6z"/>
	<path class="st9" d="M45.1,44.6c0.1,0.2,0,0.4-0.1,0.5l-2.7,1.6c-0.2,0.1-0.4,0-0.5-0.1c-0.1-0.2,0-0.4,0.1-0.5l2.7-1.6
		C44.8,44.4,45,44.4,45.1,44.6z"/>
	<path class="st9" d="M47.3,56.1c0-0.2,0.1-0.3,0.3-0.3h4c0.2,0,0.3,0.1,0.3,0.3c0,0.2-0.1,0.3-0.3,0.3h-4
		C47.4,56.5,47.3,56.3,47.3,56.1z"/>
	<path class="st0" d="M45.6,41.9c0,0-0.6-2.7-4.5-2.7c-4.2,0-5.2,3-5.2,3s1.4,3,5.4,2.5C45.3,44.2,45.6,41.9,45.6,41.9z"/>
	<path class="st10" d="M41,44.1c1.4,0,2.5-1.1,2.5-2.5c0-1.4-1.1-2.5-2.5-2.5c-1.4,0-2.5,1.1-2.5,2.5C38.4,43,39.6,44.1,41,44.1z"/>
	<path class="st6" d="M40.7,39.2c-2.3,0-5.3,2.8-5.3,2.8l0,0l0,0l0,0c0,0,0,0,0,0c0,0,0-0.1,0-0.1c0-0.1,0.1-0.2,0.2-0.4
		c0.2-0.3,0.4-0.7,0.8-1.1c0.8-0.8,2.1-1.7,4.3-1.8c2.1-0.1,3.4,0.6,4.2,1.4c0.4,0.4,0.6,0.8,0.8,1.1c0.1,0.2,0.1,0.3,0.2,0.4
		c0,0,0,0.1,0,0.1c0,0,0.1,0.3,0.1,0.3s-1-1.2-1.5-1.5"/>
	<path class="st0" d="M53.1,41.9c0,0,0.6-2.7,4.5-2.7c4.2,0,5.2,3,5.2,3s-1.4,3-5.4,2.5C53.4,44.2,53.1,41.9,53.1,41.9z"/>
	<path class="st10" d="M57.8,44c1.4,0,2.5-1.1,2.5-2.5s-1.1-2.5-2.5-2.5s-2.5,1.1-2.5,2.5S56.4,44,57.8,44z"/>
	<path class="st6" d="M53.5,42C53.5,42,53.5,42,53.5,42L53.5,42L53.5,42c0,0,0-0.1,0-0.1c0-0.1,0.1-0.2,0.1-0.3
		c0.1-0.3,0.3-0.6,0.7-0.9c0.6-0.7,1.7-1.3,3.6-1.2 M53.5,42L53.5,42L53.5,42C53.5,42,53.5,42,53.5,42 M53.5,42L53.5,42L53.5,42z
		 M53.1,41.9c-0.4-0.1-0.4-0.1-0.4-0.1l0,0l0,0l0,0l0,0c0,0,0,0,0,0c0,0,0-0.1,0-0.1c0-0.1,0.1-0.2,0.2-0.4c0.2-0.3,0.4-0.7,0.8-1.1
		c0.8-0.8,2.1-1.6,4.2-1.4l0,0c2.1,0.2,3.5,1,4.3,1.8c0.4,0.4,0.7,0.8,0.8,1.1c0.1,0.1,0.1,0.3,0.2,0.4c0,0,0,0.1,0,0.1c0,0,0,0,0,0
		l0,0l0,0l0,0l0,0c0,0,0,0-0.4,0.1l0.4-0.1c0.1,0.2-0.1,0.4-0.3,0.5c-0.2,0.1-0.4-0.1-0.5-0.3c0,0,0,0,0,0l0.4-0.1
		c-0.4,0.1-0.4,0.1-0.4,0.1l0,0l0,0l0,0c0,0,0,0,0-0.1c0-0.1-0.1-0.2-0.1-0.3c-0.1-0.2-0.3-0.6-0.7-0.9c-0.7-0.7-1.8-1.4-3.7-1.6"/>
	<path class="st3" d="M59.7,15.9c0.2,3.8,1.5,7.5,3.5,10.6c2.1,3.2,5,5.8,8.3,7.5C71.6,34,73.5,19,59.7,15.9z"/>
	<path class="st3" d="M61.4,19.2c0,0-2.8,11.9-31.1,12.2c0,0,2.1-17.6,19-17L61.4,19.2z"/>
</g>
</svg>
