<svg width="40" height="40" viewBox="0 0 40 40" fill="none" xmlns="http://www.w3.org/2000/svg">
<path d="M33.75 16.875H6.25C5.56 16.875 5 17.435 5 18.125V29.375C5 29.9 5.3275 30.37 5.8225 30.55L19.5725 39.3C19.71 39.35 19.855 39.375 20 39.375C20.145 39.375 20.29 39.35 20.4275 39.3L34.1775 30.55C34.67 30.37 35 29.9 35 29.375V18.125C35 17.435 34.44 16.875 33.75 16.875Z" fill="#D60B52"/>
<path d="M33.75 16.875H20V39.375C20.145 39.375 20.29 39.35 20.4275 39.3L34.1775 30.55C34.67 30.37 35 29.9 35 29.375V18.125C35 17.435 34.44 16.875 33.75 16.875Z" fill="#E91F66"/>
<path d="M20.025 3.625L5.225 12.5L0 9.375L15.025 0.625L20.025 3.625Z" fill="#EF548A"/>
<path d="M40.0004 15.625L25.0504 24.375L20.0254 21.375L34.8004 12.5L40.0004 15.625Z" fill="#EF548A"/>
<path d="M34.7996 12.5L20.0246 21.375L5.22461 12.5L20.0246 3.625L34.7996 12.5Z" fill="#D60B52"/>
<path d="M5.225 12.5L20.025 21.375L15.025 24.375L0 15.625L5.225 12.5Z" fill="#EF548A"/>
<path d="M40.0004 9.375L34.8004 12.5L20.0254 3.625L25.0504 0.625L40.0004 9.375Z" fill="#EF548A"/>
</svg>
