<svg width="48" height="48" viewBox="0 0 48 48" fill="none" xmlns="http://www.w3.org/2000/svg">
<path d="M43.5103 29.8135C43.3363 29.8135 43.1738 29.7207 43.0926 29.5466C42.9765 29.3146 43.081 29.0361 43.3131 28.9316C47.9314 26.7269 46.9915 20.043 46.9799 19.9734C46.9451 19.7181 47.1192 19.486 47.3744 19.4512C47.6297 19.4164 47.8618 19.5905 47.8966 19.8457C47.9082 19.9154 48.1751 21.714 47.8038 23.8259C47.3048 26.6805 45.9007 28.746 43.7192 29.7787C43.638 29.8019 43.5683 29.8135 43.5103 29.8135Z" fill="#31978C"/>
<path d="M9.93944 41.7653C24.4328 50.2014 31.3255 42.3571 37.5104 39.2125C47.3158 34.2228 46.1902 30.8924 44.2871 28.3395C40.4811 23.4079 36.3849 28.2235 34.8995 30.4747C28.2505 40.3961 18.9209 39.8623 13.0957 40.0363C11.5524 40.0944 10.0671 39.4445 4.8337 38.1913C4.89172 38.2029 4.12586 38.377 9.93944 41.7653Z" fill="#CE412D"/>
<path d="M15.7649 42.6008C31.4535 44.1441 46.0048 30.5442 44.2874 28.3395C40.609 23.5819 36.3851 28.2235 34.8998 30.4746C28.2508 40.396 18.9212 39.8622 13.096 40.0363C11.5527 40.0943 10.0674 39.4445 4.83398 38.1912C4.892 38.2029 12.6783 42.299 15.7649 42.6008Z" fill="#D15241"/>
<path d="M37.9862 14.7863C37.8701 14.7863 37.7425 14.7399 37.6496 14.6471C37.4756 14.4614 37.4756 14.1713 37.6612 13.9856C41.7691 9.98226 38.4387 3.18234 38.4039 3.12432C38.2879 2.89224 38.3807 2.61375 38.6128 2.49771C38.8448 2.38167 39.1233 2.4745 39.2394 2.70658C39.2742 2.78781 40.1677 4.58642 40.5158 6.94203C40.98 10.1215 40.2257 12.7904 38.3111 14.6471C38.2182 14.7399 38.1022 14.7863 37.9862 14.7863Z" fill="#31978C"/>
<path d="M6.67906 39.2706C25.0365 43.1927 29.6085 32.3778 35.0159 26.9124C43.6957 18.1746 41.3169 15.0299 38.4043 13.0108C32.6951 9.03066 30.0262 15.6217 29.1907 18.5343C25.6283 31.3683 15.5329 34.1068 9.40598 36.2419C7.74662 36.8337 5.95961 36.7177 0.018385 37.1935C0.018385 37.2515 -0.689456 37.6692 6.67906 39.2706Z" fill="#CE412D"/>
<path d="M13.1542 38.0869C30.3281 34.2228 41.0153 14.7398 38.4625 13.0108C32.881 9.2047 30.0264 15.6217 29.1909 18.5343C25.6285 31.3682 15.533 34.1068 9.40616 36.2419C7.74679 36.8337 5.95978 36.7177 0.0185547 37.1934C0.0185547 37.2514 9.76588 38.7948 13.1542 38.0869Z" fill="#D15241"/>
</svg>
