<svg width="42" height="32" viewBox="0 0 42 32" fill="none" xmlns="http://www.w3.org/2000/svg">
<path d="M39.6631 14.6476H2.33688C1.04626 14.6476 0 15.7628 0 17.1384V29.5092C0 30.8848 1.04626 32 2.33688 32H39.6631C40.9537 32 42 30.8848 42 29.5092V17.1384C42 15.7628 40.9537 14.6476 39.6631 14.6476Z" fill="#979797"/>
<path d="M38.5236 15.7426H3.49813C2.49653 15.7426 1.68457 16.6081 1.68457 17.6756V28.9729C1.68457 30.0404 2.49653 30.9059 3.49813 30.9059H38.5236C39.5252 30.9059 40.3372 30.0404 40.3372 28.9729V17.6756C40.3372 16.6081 39.5252 15.7426 38.5236 15.7426Z" fill="white"/>
<path d="M4.39619 15.5895C4.28919 15.5909 4.18524 15.5515 4.10303 15.4785C4.06626 15.4475 4.03669 15.408 4.01662 15.3629C3.99655 15.3178 3.98654 15.2683 3.98735 15.2184C3.98816 15.1685 3.99978 15.1194 4.02131 15.0751C4.04283 15.0308 4.07368 14.9923 4.11143 14.9628L20.5612 0.691203C20.6428 0.624623 20.7427 0.588547 20.8455 0.588547C20.9483 0.588547 21.0482 0.624623 21.1298 0.691203L37.5535 14.8374C37.5914 14.8669 37.6224 14.9053 37.6441 14.9497C37.6657 14.994 37.6775 15.0431 37.6785 15.0931C37.6795 15.143 37.6696 15.1926 37.6497 15.2379C37.6298 15.2831 37.6003 15.3229 37.5636 15.354C37.4823 15.4247 37.381 15.4641 37.2761 15.4657C37.1712 15.4673 37.0689 15.4311 36.9857 15.363L20.8476 1.46119L4.68179 15.4892C4.60006 15.5563 4.49932 15.5917 4.39619 15.5895Z" fill="#979797"/>
<path d="M20.7231 2.34577C21.4482 2.34577 22.036 1.82065 22.036 1.17288C22.036 0.525118 21.4482 0 20.7231 0C19.998 0 19.4102 0.525118 19.4102 1.17288C19.4102 1.82065 19.998 2.34577 20.7231 2.34577Z" fill="#979797"/>
<path d="M7.88906 27.6487C7.59911 27.6499 7.3118 27.5924 7.04363 27.4796C6.77545 27.3668 6.53171 27.2009 6.3264 26.9914C6.12109 26.7819 5.95826 26.533 5.84728 26.2589C5.7363 25.9848 5.67934 25.6909 5.67969 25.3943V20.239C5.67912 19.9419 5.73586 19.6476 5.84668 19.373C5.9575 19.0984 6.1202 18.8489 6.32546 18.6388C6.53072 18.4287 6.77451 18.2621 7.04282 18.1486C7.31114 18.0351 7.59872 17.9769 7.88906 17.9774C8.18015 17.9719 8.46921 18.028 8.73813 18.1421C9.00704 18.2563 9.25001 18.4261 9.4518 18.6408C9.65879 18.8489 9.8223 19.0979 9.9324 19.3726C10.0425 19.6473 10.0969 19.9421 10.0923 20.239V21.3134H8.64856V20.2085C8.64833 19.9907 8.5636 19.7819 8.41298 19.6279C8.26237 19.474 8.05819 19.3875 7.84531 19.3875C7.74022 19.3856 7.63588 19.406 7.53889 19.4475C7.4419 19.4889 7.35437 19.5505 7.28181 19.6283C7.20688 19.704 7.1477 19.7944 7.10785 19.8942C7.068 19.9939 7.0483 20.1008 7.04994 20.2085V25.3799C7.04889 25.4871 7.06874 25.5934 7.10834 25.6927C7.14794 25.7919 7.20648 25.882 7.28055 25.9578C7.35462 26.0336 7.44272 26.0935 7.53969 26.134C7.63667 26.1745 7.74057 26.1949 7.84531 26.1938C7.95073 26.1956 8.0554 26.1755 8.15301 26.1347C8.25062 26.0939 8.33912 26.0333 8.41318 25.9565C8.48906 25.8821 8.54913 25.7926 8.58963 25.6933C8.63013 25.5941 8.65019 25.4874 8.64856 25.3799V24.0754H10.0923V25.3943C10.0925 25.6903 10.0357 25.9835 9.92514 26.2571C9.81456 26.5306 9.65235 26.7792 9.44781 26.9886C9.24327 27.198 9.0004 27.364 8.73308 27.4773C8.46577 27.5906 8.17926 27.6488 7.88994 27.6487H7.88906Z" fill="#979797"/>
<path d="M15.0246 27.5278H11.2314V18.0857H12.6236V26.1132H15.0246V27.5278Z" fill="#979797"/>
<path d="M18.1852 17.963C18.4756 17.9624 18.7632 18.0205 19.0315 18.1339C19.2999 18.2472 19.5437 18.4137 19.7491 18.6238C19.9544 18.8338 20.1172 19.0832 20.2281 19.3578C20.3391 19.6324 20.3959 19.9266 20.3955 20.2237V25.3799C20.4013 25.6802 20.3486 25.9786 20.2403 26.2577C20.1321 26.5369 19.9705 26.7911 19.765 27.0056C19.5596 27.22 19.3144 27.3904 19.0438 27.5067C18.7732 27.623 18.4827 27.6829 18.1892 27.6829C17.8957 27.6829 17.6051 27.623 17.3345 27.5067C17.064 27.3904 16.8188 27.22 16.6133 27.0056C16.4078 26.7911 16.2463 26.5369 16.138 26.2577C16.0298 25.9786 15.977 25.6802 15.9829 25.3799V20.2237C15.9824 19.9273 16.039 19.6337 16.1494 19.3597C16.2599 19.0856 16.422 18.8365 16.6265 18.6266C16.831 18.4167 17.0739 18.25 17.3413 18.1362C17.6088 18.0223 17.8955 17.9635 18.1852 17.963ZM18.9438 20.1933C18.9449 20.0861 18.925 19.9798 18.8854 19.8805C18.8458 19.7813 18.7873 19.6912 18.7132 19.6154C18.6392 19.5396 18.5511 19.4797 18.4541 19.4392C18.3571 19.3986 18.2532 19.3783 18.1485 19.3794C18.0432 19.3778 17.9387 19.398 17.8413 19.4387C17.7438 19.4795 17.6555 19.54 17.5815 19.6167C17.5053 19.6909 17.445 19.7804 17.4043 19.8796C17.3637 19.9789 17.3435 20.0857 17.3452 20.1933V25.3647C17.3435 25.4723 17.3637 25.5791 17.4043 25.6783C17.445 25.7776 17.5053 25.8671 17.5815 25.9413C17.6553 26.0181 17.7437 26.0787 17.8412 26.1195C17.9386 26.1603 18.0432 26.1804 18.1485 26.1786C18.2532 26.1796 18.3571 26.1593 18.4541 26.1188C18.5511 26.0783 18.6392 26.0184 18.7132 25.9426C18.7873 25.8668 18.8458 25.7766 18.8854 25.6774C18.925 25.5782 18.9449 25.4719 18.9438 25.3647V20.1933Z" fill="#979797"/>
<path d="M26.1413 25.1758C26.1512 25.8324 25.9844 26.3952 25.6408 26.8644C25.4024 27.1896 25.066 27.4256 24.6836 27.5359C24.432 27.61 24.171 27.6453 23.9092 27.6406C23.3638 27.6406 22.912 27.5025 22.5539 27.2261C22.2434 26.9861 21.9986 26.6681 21.8434 26.303C21.6613 25.8803 21.5575 25.4268 21.5371 24.9654L22.8627 24.8669C22.9211 25.4172 23.0637 25.8163 23.2906 26.064C23.3597 26.1511 23.4475 26.2207 23.5472 26.2673C23.647 26.3139 23.7559 26.3362 23.8655 26.3326C24.17 26.3224 24.4129 26.169 24.5943 25.8724C24.6877 25.7273 24.7343 25.5184 24.7343 25.2456C24.7343 24.8535 24.5593 24.4637 24.2093 24.0763L22.9712 22.8766C22.5098 22.4194 22.1834 22.0096 21.9921 21.6473C21.785 21.237 21.6787 20.7813 21.6824 20.3195C21.6824 19.4594 21.9647 18.8079 22.5294 18.365C22.8794 18.0982 23.3116 17.9651 23.8261 17.9657C24.2735 17.9528 24.7153 18.0701 25.1001 18.3042C25.381 18.4872 25.6108 18.7417 25.7668 19.0428C25.942 19.3815 26.0463 19.7538 26.0731 20.136L24.7387 20.3849C24.7002 19.9981 24.5923 19.6967 24.415 19.4806C24.3464 19.4012 24.261 19.3389 24.1653 19.2984C24.0697 19.2579 23.9662 19.2403 23.8628 19.2469C23.7438 19.2433 23.6261 19.2738 23.5231 19.335C23.4201 19.3962 23.3359 19.4858 23.2801 19.5934C23.166 19.8056 23.1101 20.0453 23.1182 20.2873C23.1182 20.7189 23.2999 21.1585 23.6633 21.6061C23.8508 21.8262 24.0579 22.0279 24.282 22.2087C24.6069 22.4856 24.8207 22.6793 24.9233 22.7897C25.2359 23.0961 25.5059 23.445 25.7257 23.8265C25.806 23.971 25.8773 24.1205 25.9392 24.2742C26.0593 24.5597 26.1278 24.8652 26.1413 25.1758Z" fill="#979797"/>
<path d="M27.2998 27.5278V18.0758H31.2636V19.5083H28.6884V22.0869H30.5671V23.5194H28.6884V26.098H31.2601V27.5305L27.2998 27.5278Z" fill="#979797"/>
<path d="M36.5937 25.2662C36.5983 25.5631 36.5439 25.8579 36.4338 26.1326C36.3237 26.4073 36.1602 26.6563 35.9532 26.8644C35.7538 27.0778 35.5134 27.2469 35.2473 27.361C34.9811 27.4752 34.6948 27.5319 34.4062 27.5278H32.2188V18.0758H34.4062C34.6955 18.0708 34.9826 18.1271 35.2494 18.2413C35.5163 18.3555 35.7571 18.525 35.9567 18.7393C36.1622 18.9467 36.3246 19.1944 36.434 19.4677C36.5435 19.741 36.5978 20.0341 36.5937 20.3294V25.2662ZM33.61 26.1186H34.45C34.555 26.1206 34.6592 26.0997 34.7557 26.0574C34.8523 26.0151 34.9389 25.9524 35.01 25.8733C35.0835 25.7974 35.1415 25.7074 35.1807 25.6084C35.22 25.5094 35.2395 25.4035 35.2384 25.2967V20.3517C35.2395 20.2441 35.2196 20.1373 35.1798 20.0376C35.14 19.938 35.0811 19.8475 35.0065 19.7716C34.9349 19.6944 34.8486 19.6332 34.7528 19.5917C34.657 19.5503 34.554 19.5295 34.45 19.5307H33.61V26.1186Z" fill="#979797"/>
</svg>
