<svg width="80" height="80" viewBox="0 0 80 80" fill="none" xmlns="http://www.w3.org/2000/svg">
<path d="M75.239 54.2239L79.9288 24.2788C80.4164 21.24 78.3488 18.3808 75.3099 17.8917L12.027 7.73457C8.98828 7.24691 6.12922 9.31457 5.64157 12.3533L3.39282 26.3575V54.0496L75.239 54.2239Z" fill="#8B8B8B"/>
<path d="M5.57327 24.9641H69.6656C72.7435 24.9641 75.2389 27.4596 75.2389 30.5374V66.7636C75.2389 69.8414 72.7435 72.3368 69.6656 72.3368H5.57327C2.49546 72.3367 0 69.8414 0 66.7636V30.5374C0 27.4596 2.49546 24.9641 5.57327 24.9641Z" fill="#CDCDCD"/>
<path d="M20.8997 31.9307H6.96655V43.0772H20.8997V31.9307Z" fill="#E5E5E5"/>
<path d="M11.1465 36.1106H6.96655V38.8972H11.1465V36.1106Z" fill="#8B8B8B"/>
<path d="M20.9 36.1106H16.72V38.8972H20.9V36.1106Z" fill="#8B8B8B"/>
<path d="M61.3059 65.3701C65.1534 65.3701 68.2725 62.2511 68.2725 58.4036C68.2725 54.556 65.1534 51.437 61.3059 51.437C57.4584 51.437 54.3394 54.556 54.3394 58.4036C54.3394 62.2511 57.4584 65.3701 61.3059 65.3701Z" fill="#E6E6E6"/>
<path d="M52.9458 65.3701C56.7933 65.3701 59.9123 62.2511 59.9123 58.4036C59.9123 54.556 56.7933 51.437 52.9458 51.437C49.0983 51.437 45.9792 54.556 45.9792 58.4036C45.9792 62.2511 49.0983 65.3701 52.9458 65.3701Z" fill="#8B8B8B"/>
<path d="M13.9331 52.8303H5.57324V55.6169H13.9331V52.8303Z" fill="#FBFBFB"/>
<path d="M27.8662 52.8303H19.5063V55.6169H27.8662V52.8303Z" fill="#FBFBFB"/>
<path d="M41.7993 52.8303H33.4395V55.6169H41.7993V52.8303Z" fill="#FBFBFB"/>
<path d="M41.7994 61.1904H5.57324V63.977H41.7994V61.1904Z" fill="#FBFBFB"/>
<path d="M51.5524 31.9307H48.7659V37.5039H51.5524V31.9307Z" fill="#FBFBFB"/>
<path d="M57.1257 31.9307H54.3391V37.5039H57.1257V31.9307Z" fill="#FBFBFB"/>
<path d="M62.6989 31.9307H59.9124V37.5039H62.6989V31.9307Z" fill="#FBFBFB"/>
<path d="M68.2721 31.9307H65.4856V37.5039H68.2721V31.9307Z" fill="#FBFBFB"/>
</svg>
