<svg width="48" height="48" viewBox="0 0 48 48" fill="none" xmlns="http://www.w3.org/2000/svg">
<g clip-path="url(#clip0)">
<path d="M46.5997 6.371C44.3908 3.098 39.1672 2.97772 33.7646 6.36078C30.7014 8.27891 27.3743 8.921 23.7123 8.921C20.0502 8.921 16.7231 8.27891 13.6599 6.36078C8.2572 2.97772 3.03374 3.098 0.824799 6.371C-1.38414 9.644 1.0513 14.8542 5.66071 18.2133C10.895 22.0276 15.5921 24.0879 23.7123 24.0879C31.8324 24.0879 36.5296 22.0277 41.7638 18.2133C46.3732 14.8542 48.8087 9.644 46.5997 6.371Z" fill="#09A66D"/>
<path d="M46.5997 6.37089C45.7293 5.08127 44.3897 4.28345 42.7568 3.99414C43.0585 7.09408 40.7725 10.9135 37.1234 13.5728C31.8891 17.3871 27.1921 19.4473 19.0718 19.4473C11.2609 19.4473 6.61721 17.5403 1.61621 14.0002C2.59852 15.5277 3.98593 16.9927 5.66077 18.2132C10.895 22.0275 15.5921 24.0878 23.7123 24.0878C31.8326 24.0878 36.5296 22.0276 41.7639 18.2132C46.3732 14.8542 48.8086 9.6439 46.5997 6.37089Z" fill="#118E5E"/>
<path d="M23.3719 13.4174C16.8167 13.4174 12.1315 12.1326 7.20066 8.9831C6.8685 8.77094 6.77128 8.32975 6.98334 7.9976C7.1955 7.66535 7.63669 7.56813 7.96884 7.78028C12.6503 10.7705 17.1128 11.9902 23.3719 11.9902C29.631 11.9902 34.0935 10.7705 38.7749 7.78028C39.1071 7.56813 39.5483 7.66535 39.7604 7.9976C39.9727 8.32975 39.8753 8.77094 39.5432 8.9831C34.6122 12.1327 29.9271 13.4174 23.3719 13.4174Z" fill="#77C8A4"/>
<path d="M23.7122 19.4118C16.0158 19.4118 11.6141 17.5038 7.00644 14.4252C5.88931 13.6787 4.8994 12.8241 4.06419 11.8851C3.80225 11.5906 3.82868 11.1396 4.12315 10.8777C4.41762 10.6157 4.86875 10.6423 5.13059 10.9366C5.88519 11.7851 6.78312 12.5595 7.79947 13.2386C12.2982 16.2445 16.3441 17.9847 23.7123 17.9847C31.0805 17.9847 35.1265 16.2444 39.6252 13.2386C40.6414 12.5595 41.5393 11.7852 42.2941 10.9366C42.5559 10.6423 43.0071 10.6156 43.3016 10.8777C43.596 11.1396 43.6224 11.5906 43.3604 11.8852C42.5251 12.8244 41.5351 13.6789 40.4182 14.4253C35.8105 17.5038 31.4086 19.4118 23.7122 19.4118Z" fill="#77C8A4"/>
<path d="M38.6862 32.6878C43.436 32.6878 47.2864 28.8374 47.2864 24.0876C47.2864 19.3378 43.436 15.4873 38.6862 15.4873C33.9364 15.4873 30.0859 19.3378 30.0859 24.0876C30.0859 28.8374 33.9364 32.6878 38.6862 32.6878Z" fill="#B9EA6A"/>
<path d="M44.5119 17.7627C44.808 18.6326 44.9709 19.564 44.9709 20.534C44.9709 25.2838 41.1204 29.1343 36.3706 29.1343C34.1227 29.1343 32.0771 28.271 30.5449 26.859C31.6985 30.2484 34.9064 32.6878 38.6861 32.6878C43.4358 32.6878 47.2862 28.8374 47.2862 24.0875C47.2864 21.5857 46.2173 19.3342 44.5119 17.7627Z" fill="#A1E42C"/>
<path d="M42.0861 22.6248C42.1013 21.6475 42.5423 20.8619 43.071 20.8702C43.5996 20.8784 44.0159 21.6774 44.0007 22.6546C43.9891 23.3953 43.426 24.2477 43.1539 24.6173C43.0831 24.7134 42.9391 24.7111 42.8714 24.6129C42.6109 24.2351 42.0746 23.3654 42.0861 22.6248Z" fill="#E5F5C4"/>
<path d="M38.6868 33.4015C33.5512 33.4015 29.373 29.2233 29.373 24.0877C29.373 18.9521 33.5512 14.7739 38.6868 14.7739C43.8225 14.7739 48.0006 18.9521 48.0006 24.0877C48.0006 29.2233 43.8225 33.4015 38.6868 33.4015ZM38.6868 16.2012C34.3381 16.2012 30.8003 19.7391 30.8003 24.0878C30.8003 28.4365 34.3382 31.9743 38.6868 31.9743C43.0354 31.9743 46.5734 28.4364 46.5734 24.0878C46.5734 19.7392 43.0355 16.2012 38.6868 16.2012Z" fill="#09A66D"/>
<path d="M31.7819 32.6878C36.5317 32.6878 40.3822 28.8374 40.3822 24.0876C40.3822 19.3378 36.5317 15.4873 31.7819 15.4873C27.0321 15.4873 23.1816 19.3378 23.1816 24.0876C23.1816 28.8374 27.0321 32.6878 31.7819 32.6878Z" fill="#E5F5C4"/>
<path d="M37.6075 17.7627C37.9035 18.6326 38.0665 19.564 38.0665 20.534C38.0665 25.2838 34.2161 29.1343 29.4663 29.1343C27.2184 29.1343 25.1728 28.271 23.6406 26.859C24.7942 30.2484 28.0021 32.6878 31.7818 32.6878C36.5315 32.6878 40.382 28.8374 40.382 24.0875C40.3819 21.5857 39.3128 19.3342 37.6075 17.7627Z" fill="#DAF3B1"/>
<path d="M31.7825 33.4015C26.6468 33.4015 22.4688 29.2233 22.4688 24.0877C22.4688 18.9521 26.6469 14.7739 31.7825 14.7739C36.9182 14.7739 41.0963 18.9521 41.0963 24.0877C41.0963 29.2233 36.9181 33.4015 31.7825 33.4015ZM31.7825 16.2012C27.4338 16.2012 23.8959 19.7391 23.8959 24.0878C23.8959 28.4365 27.4339 31.9743 31.7825 31.9743C36.1311 31.9743 39.6691 28.4364 39.6691 24.0878C39.6691 19.7392 36.1312 16.2012 31.7825 16.2012Z" fill="#77C8A4"/>
<path d="M24.0983 43.4168C28.8481 43.4168 32.6986 39.5663 32.6986 34.8166C32.6986 30.0668 28.8481 26.2163 24.0983 26.2163C19.3485 26.2163 15.498 30.0668 15.498 34.8166C15.498 39.5663 19.3485 43.4168 24.0983 43.4168Z" fill="#B9EA6A"/>
<path d="M29.924 28.4917C30.22 29.3616 30.383 30.293 30.383 31.263C30.383 36.0128 26.5326 39.8633 21.7827 39.8633C19.5348 39.8633 17.4892 38.9999 15.957 37.588C17.1106 40.9774 20.3185 43.4168 24.0982 43.4168C28.8479 43.4168 32.6984 39.5664 32.6984 34.8165C32.6984 32.3147 31.6293 30.0633 29.924 28.4917Z" fill="#A1E42C"/>
<path d="M24.098 44.1305C18.9623 44.1305 14.7842 39.9523 14.7842 34.8167C14.7842 29.6811 18.9623 25.5029 24.098 25.5029C29.2336 25.5029 33.4118 29.6811 33.4118 34.8167C33.4118 39.9523 29.2335 44.1305 24.098 44.1305ZM24.098 26.9301C19.7493 26.9301 16.2113 30.468 16.2113 34.8167C16.2113 39.1654 19.7493 42.7033 24.098 42.7033C28.4467 42.7033 31.9845 39.1654 31.9845 34.8167C31.9845 30.468 28.4467 26.9301 24.098 26.9301Z" fill="#09A66D"/>
<path d="M32.9694 26.2535C32.9694 27.2309 32.5408 28.0233 32.0121 28.0233C31.4833 28.0233 31.0547 27.2309 31.0547 26.2535C31.0547 25.5128 31.6044 24.6516 31.8708 24.2779C31.94 24.1808 32.0842 24.1808 32.1533 24.2779C32.4197 24.6516 32.9694 25.5128 32.9694 26.2535Z" fill="#A1E42C"/>
<path d="M29.1263 23.7365C28.1488 23.7365 27.3564 23.3079 27.3564 22.7792C27.3564 22.2504 28.1488 21.8218 29.1263 21.8218C29.867 21.8218 30.7282 22.3715 31.1018 22.6379C31.199 22.7071 31.199 22.8512 31.1018 22.9204C30.7281 23.1867 29.8669 23.7365 29.1263 23.7365Z" fill="#A1E42C"/>
<path d="M32.0117 20.41C32.0117 19.4325 32.4403 18.6401 32.9691 18.6401C33.4978 18.6401 33.9265 19.4325 33.9265 20.41C33.9265 21.1507 33.3767 22.0119 33.1104 22.3856C33.0412 22.4827 32.897 22.4827 32.8278 22.3856C32.5615 22.0119 32.0117 21.1507 32.0117 20.41Z" fill="#A1E42C"/>
<path d="M22.5645 31.0926C22.5645 30.1151 22.9931 29.3228 23.5218 29.3228C24.0506 29.3228 24.4792 30.1151 24.4792 31.0926C24.4792 31.8333 23.9295 32.6945 23.6631 33.0682C23.5939 33.1653 23.4497 33.1653 23.3805 33.0682C23.1142 32.6944 22.5645 31.8332 22.5645 31.0926Z" fill="#E5F5C4"/>
<path d="M20.2851 34.7353C19.594 34.0442 19.3368 33.1809 19.7107 32.8069C20.0846 32.433 20.948 32.6902 21.6391 33.3813C22.1629 33.9051 22.3831 34.9028 22.459 35.3554C22.4788 35.4731 22.3769 35.575 22.2592 35.5552C21.8066 35.4793 20.8088 35.2591 20.2851 34.7353Z" fill="#E5F5C4"/>
<path d="M26.2751 37.189C26.9662 37.8801 27.2234 38.7436 26.8495 39.1174C26.4756 39.4913 25.6122 39.2342 24.921 38.543C24.3973 38.0193 24.1771 37.0216 24.1011 36.569C24.0813 36.4513 24.1832 36.3494 24.3009 36.3692C24.7536 36.4451 25.7514 36.6652 26.2751 37.189Z" fill="#E5F5C4"/>
<path d="M26.5887 35.4848C25.6114 35.4696 24.8258 35.0286 24.834 34.4999C24.8423 33.9713 25.6412 33.555 26.6185 33.5702C27.3591 33.5818 28.2116 34.1449 28.5811 34.417C28.6772 34.4878 28.675 34.6318 28.5767 34.6995C28.1989 34.9601 27.3292 35.4963 26.5887 35.4848Z" fill="#E5F5C4"/>
</g>
<defs>
<clipPath id="clip0">
<rect width="48" height="48" fill="white"/>
</clipPath>
</defs>
</svg>
