<svg width="137" height="80" viewBox="0 0 137 80" fill="none" xmlns="http://www.w3.org/2000/svg">
<path d="M59.4262 17.3385C59.1346 16.8762 58.7529 16.4773 58.3039 16.1657C57.8548 15.8541 57.3475 15.6362 56.8124 15.5249C56.2772 15.4136 55.7251 15.4113 55.1891 15.5181C54.653 15.6249 54.1439 15.8385 53.6923 16.1463C53.2406 16.4542 52.8555 16.8498 52.5601 17.3097C52.2647 17.7696 52.065 18.2843 51.9728 18.823C51.8806 19.3618 51.898 19.9136 52.0238 20.4455C52.1495 20.9775 52.3812 21.4786 52.7049 21.9191L56.4754 27.3168L62.8809 22.5121L59.4262 17.3385Z" fill="#B1B1B1"/>
<path d="M84.5927 27.0636L82.9462 24.9807C82.7504 24.7615 82.4892 24.6112 82.2013 24.5521C81.9133 24.4931 81.6141 24.5284 81.3478 24.6528L76.8155 26.7599L64.6819 25.1543L62.8835 22.5193L57.1843 26.7936L59.4866 29.865C59.8193 30.3096 60.2541 30.6676 60.7543 30.9089C61.2544 31.1501 61.8053 31.2676 62.3603 31.2512H62.3941L76.2514 30.6871C77.1285 31.0314 78.1033 31.0314 78.9804 30.6871L81.3912 29.8385L81.9481 30.3713C82.123 30.5401 82.3504 30.644 82.5926 30.6655C82.8347 30.687 83.077 30.6248 83.2788 30.4894L84.0455 29.9759C84.2938 29.8103 84.4883 29.5757 84.6048 29.3009L84.8603 28.6885C84.9749 28.4203 85.0106 28.1249 84.9632 27.8371C84.9158 27.5493 84.7873 27.281 84.5927 27.0636Z" fill="#B1B1B1"/>
<path d="M71.1789 63.7803V64.6868L86.338 64.5205V63.614H85.7642C85.7642 63.614 85.7642 61.2876 82.8906 60.897C80.0169 60.5065 79.3539 60.6993 78.6982 59.8459C78.3823 59.3775 78.2105 58.8269 78.204 58.262C78.2008 58.1322 78.1467 58.0089 78.0533 57.9186C77.9599 57.8284 77.8348 57.7785 77.7049 57.7799H77.6278V55.5137H80.1929V52.4375H79.1659V39.4915V39.412C79.1444 38.2536 78.6691 37.1499 77.8422 36.3384C77.0154 35.5269 75.903 35.0723 74.7445 35.0725H53.8211C53.8211 35.0725 50.716 43.9202 59.1948 43.9202H70.5256V52.4423H69.648V55.533H71.9889L72.0829 57.8594C71.9585 57.8681 71.8422 57.9247 71.7586 58.0173C71.675 58.1099 71.6305 58.2313 71.6345 58.356L71.6948 63.7731" fill="#ABABAB"/>
<path d="M86.8757 26.8202L84.6192 18.7729C84.5273 18.4378 84.3286 18.1418 84.0532 17.9299C83.7777 17.718 83.4407 17.6017 83.0932 17.5989H81.854" stroke="#FBFBFB" stroke-width="1.53" stroke-miterlimit="10"/>
<path d="M81.3695 20.3207C81.9074 20.3207 82.3434 19.019 82.3434 17.4133C82.3434 15.8076 81.9074 14.5059 81.3695 14.5059C80.8316 14.5059 80.3955 15.8076 80.3955 17.4133C80.3955 19.019 80.8316 20.3207 81.3695 20.3207Z" fill="#FBFBFB"/>
<path d="M91.2153 28.7764C91.4872 27.094 90.3437 25.5097 88.6613 25.2378C86.9789 24.9659 85.3946 26.1094 85.1227 27.7918C84.8508 29.4743 85.9943 31.0585 87.6767 31.3304C89.3591 31.6023 90.9434 30.4589 91.2153 28.7764Z" fill="#FBFBFB"/>
<path d="M87.9461 24.3708H84.9977C84.3879 24.3708 83.8936 24.8652 83.8936 25.475V31.0946C83.8936 31.7044 84.3879 32.1987 84.9977 32.1987H87.9461C88.5559 32.1987 89.0503 31.7044 89.0503 31.0946V25.475C89.0503 24.8652 88.5559 24.3708 87.9461 24.3708Z" fill="#817F80"/>
<path d="M25.4099 59.6914H21.0054V62.7121H25.4099V59.6914Z" fill="#070924"/>
<path d="M99.8721 79.87C106.624 79.87 112.097 74.3966 112.097 67.6448C112.097 60.8931 106.624 55.4197 99.8721 55.4197C93.1204 55.4197 87.647 60.8931 87.647 67.6448C87.647 74.3966 93.1204 79.87 99.8721 79.87Z" fill="#454545"/>
<path d="M99.8722 75.4219C104.167 75.4219 107.649 71.9399 107.649 67.6447C107.649 63.3494 104.167 59.8674 99.8722 59.8674C95.577 59.8674 92.095 63.3494 92.095 67.6447C92.095 71.9399 95.577 75.4219 99.8722 75.4219Z" fill="#E5E5E5"/>
<path d="M97.606 67.6448C97.606 68.093 97.7389 68.5312 97.9879 68.9038C98.2369 69.2765 98.5908 69.567 99.0049 69.7385C99.419 69.91 99.8746 69.9549 100.314 69.8674C100.754 69.78 101.158 69.5642 101.474 69.2472C101.791 68.9303 102.007 68.5265 102.095 68.0869C102.182 67.6473 102.137 67.1917 101.966 66.7776C101.794 66.3635 101.504 66.0096 101.131 65.7606C100.758 65.5116 100.32 65.3787 99.8721 65.3787C99.2711 65.3787 98.6947 65.6174 98.2697 66.0424C97.8447 66.4674 97.606 67.0438 97.606 67.6448Z" fill="white"/>
<path d="M99.9035 50.675C104.15 50.675 108.223 52.3621 111.226 55.365C114.229 58.3679 115.916 62.4408 115.916 66.6876H83.8958C83.8958 62.4416 85.5821 58.3695 88.584 55.3667C91.5859 52.3639 95.6575 50.6763 99.9035 50.675Z" fill="#817F80"/>
<path d="M37.7337 26.1235H21.6658V30.6342H37.7337V26.1235Z" fill="#8B8B8B"/>
<path d="M39.3683 30.5715H20.0312V44.7615H39.3683V30.5715Z" fill="white"/>
<path d="M28.5824 26.1235L27.9026 45.1713" stroke="#070924" stroke-width="1.13" stroke-miterlimit="10"/>
<path d="M30.0554 26.1235L30.7353 45.1713" stroke="#070924" stroke-width="1.13" stroke-miterlimit="10"/>
<path d="M17.1746 45.1714H41.6996" stroke="#070924" stroke-width="3.42" stroke-miterlimit="10"/>
<path d="M25.417 45.1714L30.8775 49.1709" stroke="#070924" stroke-width="3.42" stroke-miterlimit="10"/>
<path d="M85.082 25.6052L78.8139 29.2214L84.3587 41.7576C84.3587 41.7576 88.1654 48.5078 85.6919 54.4408C82.9026 61.1212 79.6914 64.6072 79.6914 64.6072H67.2276C65.9749 64.6066 64.7414 64.2985 63.6356 63.7101C62.5297 63.1216 61.5851 62.2707 60.8848 61.2321C59.3997 59.0334 58.1123 56.003 59.1562 52.8979C61.0222 47.3531 66.4923 44.8097 66.4923 44.8097H36.4031C36.4031 44.8097 31.15 46.3622 23.3848 59.7157H26.8515L49.3828 66.707H79.4142C79.4142 66.707 82.8761 67.8738 87.6446 60.2147L95.3592 52.8931C95.3652 49.284 94.2209 45.7669 92.0926 42.8521L85.082 33.2692V25.6052Z" fill="#8B8B8B"/>
<path d="M61.7985 45.357C62.4282 45.3545 63.0339 45.5985 63.486 46.0368C64.554 47.0735 66.7358 48.79 68.3341 47.358C70.5304 45.3932 68.5752 42.1 65.2146 42.3893C61.8539 42.6786 50.8824 42.7365 46.837 40.5402C42.7917 38.344 41.2319 38.2283 39.9614 39.6145C38.691 41.0007 40.7136 44.858 44.4696 45.357H61.7985Z" fill="#070924"/>
<path d="M39.2696 79.87C46.0214 79.87 51.4948 74.3966 51.4948 67.6448C51.4948 60.8931 46.0214 55.4197 39.2696 55.4197C32.5178 55.4197 27.0444 60.8931 27.0444 67.6448C27.0444 74.3966 32.5178 79.87 39.2696 79.87Z" fill="#454545"/>
<path d="M39.2697 75.4219C43.5649 75.4219 47.0469 71.9399 47.0469 67.6447C47.0469 63.3494 43.5649 59.8674 39.2697 59.8674C34.9744 59.8674 31.4924 63.3494 31.4924 67.6447C31.4924 71.9399 34.9744 75.4219 39.2697 75.4219Z" fill="#E5E5E5"/>
<path d="M37.0034 67.6448C37.0034 68.093 37.1363 68.5312 37.3853 68.9038C37.6343 69.2765 37.9883 69.567 38.4023 69.7385C38.8164 69.91 39.2721 69.9549 39.7117 69.8674C40.1513 69.78 40.555 69.5642 40.872 69.2472C41.1889 68.9303 41.4047 68.5265 41.4922 68.0869C41.5796 67.6473 41.5347 67.1917 41.3632 66.7776C41.1917 66.3635 40.9012 66.0096 40.5286 65.7606C40.1559 65.5116 39.7178 65.3787 39.2696 65.3787C38.6685 65.3787 38.0921 65.6174 37.6672 66.0424C37.2422 66.4674 37.0034 67.0438 37.0034 67.6448Z" fill="white"/>
<path d="M22.4927 65.1423C22.4927 65.1423 24.2791 53.5704 37.078 48.5969C49.877 43.6235 54.7444 50.6485 55.429 51.9721C56.5645 54.1587 58.0809 60.757 53.8331 65.1447L22.4927 65.1423Z" fill="#817F80"/>
<path d="M31.9094 61.5502H46.1162C46.1779 61.5502 46.2389 61.538 46.2958 61.5143C46.3527 61.4907 46.4044 61.456 46.4478 61.4123C46.4913 61.3686 46.5257 61.3168 46.549 61.2598C46.5724 61.2028 46.5843 61.1417 46.5839 61.0801C46.5859 61.0174 46.5752 60.9551 46.5526 60.8966C46.5299 60.8382 46.4958 60.7849 46.4522 60.74C46.4086 60.695 46.3563 60.6592 46.2986 60.6348C46.2409 60.6104 46.1789 60.5979 46.1162 60.5979H31.9094C31.7815 60.5979 31.6589 60.6487 31.5685 60.7391C31.478 60.8295 31.4272 60.9522 31.4272 61.0801C31.4304 61.2058 31.4826 61.3254 31.5727 61.4132C31.6627 61.5011 31.7836 61.5502 31.9094 61.5502Z" fill="#666264"/>
<path d="M33.4957 59.289H44.8651C44.9277 59.2909 44.9901 59.2802 45.0485 59.2576C45.1069 59.235 45.1602 59.2008 45.2052 59.1572C45.2502 59.1136 45.2859 59.0614 45.3103 59.0037C45.3347 58.946 45.3473 58.8839 45.3472 58.8213C45.3472 58.6934 45.2964 58.5708 45.206 58.4803C45.1156 58.3899 44.993 58.3391 44.8651 58.3391H33.4957C33.37 58.3423 33.2504 58.3944 33.1626 58.4845C33.0747 58.5746 33.0256 58.6955 33.0256 58.8213C33.0256 58.8829 33.0378 58.9439 33.0615 59.0008C33.0851 59.0577 33.1198 59.1094 33.1635 59.1528C33.2072 59.1963 33.259 59.2307 33.316 59.2541C33.373 59.2774 33.4341 59.2893 33.4957 59.289Z" fill="#666264"/>
<path d="M35.0868 57.0758H43.2329C43.3566 57.0728 43.4744 57.0222 43.562 56.9347C43.6495 56.8472 43.7 56.7294 43.703 56.6057C43.7031 56.4799 43.6539 56.359 43.5661 56.2689C43.4783 56.1789 43.3587 56.1267 43.2329 56.1235H35.0868C34.9615 56.1273 34.8425 56.1798 34.7552 56.2698C34.6679 56.3598 34.6191 56.4803 34.6191 56.6057C34.6188 56.6673 34.6307 56.7284 34.6541 56.7854C34.6774 56.8424 34.7118 56.8943 34.7553 56.938C34.7987 56.9817 34.8504 57.0163 34.9073 57.04C34.9642 57.0636 35.0252 57.0758 35.0868 57.0758Z" fill="#666264"/>
<path d="M60.2459 8.36548L57.3674 15.9185L52.2878 14.6866L55.8582 7.67358L60.2459 8.36548Z" fill="#E7E7E7"/>
<path d="M56.6177 7.43018C56.6177 7.43018 56.326 10.9475 58.2064 13.7127L59.1346 11.2465L56.6177 7.43018Z" fill="#D9D5D6"/>
<path d="M62.6109 4.40949L63.1099 9.44083C63.1392 9.73606 63.1101 10.0342 63.0242 10.3181C62.9383 10.6021 62.7973 10.8664 62.6092 11.0958C62.4212 11.3253 62.1898 11.5155 61.9282 11.6555C61.6667 11.7955 61.3801 11.8826 61.0849 11.9119C60.2101 11.9868 59.3343 11.7802 58.5853 11.3222C57.8363 10.8643 57.2533 10.1789 56.9214 9.3661L55.2989 5.54498C55.2145 5.34355 55.1785 5.12512 55.1939 4.90725C55.2092 4.68938 55.2755 4.47816 55.3874 4.29056C55.4992 4.10297 55.6535 3.94424 55.8379 3.82714C56.0223 3.71004 56.2315 3.63784 56.4489 3.61634L60.458 2.77738C61.2343 2.70265 62.5361 3.64286 62.6109 4.40949Z" fill="#E7E7E7"/>
<path d="M62.7557 6.65869L63.7875 7.9099C63.9104 8.12205 63.6911 8.37036 63.3921 8.35589L61.8757 8.63796L62.7557 6.65869Z" fill="#E7E7E7"/>
<path d="M57.0467 4.55176C57.0467 4.55176 58.5558 5.10142 58.0399 6.31887C57.6084 7.33864 57.9073 9.16362 59.2453 8.76343C60.5833 8.36323 61.9791 8.00161 63.011 8.42591L63.3268 9.79766C63.457 10.3456 63.3671 10.9228 63.0763 11.4051C62.7856 11.8875 62.3172 12.2365 61.7718 12.3772L61.7115 12.3917C59.6696 12.8738 56.4295 11.9867 56.4825 8.3777L56.1064 5.06285L57.0467 4.55176Z" fill="#070924"/>
<path d="M55.9039 2.71944C55.5616 2.77971 52.7892 2.68568 52.7699 5.77151C52.7554 7.73631 54.3948 9.92773 54.4092 9.90844C54.4237 9.88916 55.4218 9.84576 55.7038 8.40169C55.7414 8.26583 55.751 8.12374 55.7319 7.98407C55.7128 7.8444 55.6655 7.71007 55.5929 7.58925L57.7409 4.82165C57.7409 4.82165 57.1382 4.36842 58.076 3.81635C59.7636 2.83033 61.673 3.22088 61.673 3.22088C61.1426 1.42484 56.2462 2.65193 55.9039 2.71944Z" fill="#070924"/>
<path d="M54.0018 7.02528C53.8999 7.27765 53.8712 7.55367 53.919 7.82162C53.9669 8.08958 54.0894 8.33858 54.2725 8.54002C54.4555 8.74147 54.6917 8.88717 54.9539 8.96039C55.216 9.0336 55.4935 9.03136 55.7545 8.95392C56.0123 8.8722 56.2407 8.71722 56.412 8.50789C56.5832 8.29856 56.6898 8.04392 56.7188 7.77504C56.7503 7.50114 56.7021 7.22398 56.5799 6.97683C56.4577 6.72968 56.2668 6.52305 56.03 6.38177C55.7933 6.24048 55.5208 6.17054 55.2452 6.18035C54.9697 6.19015 54.7029 6.27929 54.4768 6.43705C54.2587 6.5762 54.0919 6.78274 54.0018 7.02528Z" fill="#E7E7E7"/>
<path d="M55.5569 6.99146C55.5569 6.99146 54.554 7.12646 55.0554 8.13418" stroke="#070924" stroke-width="1.02" stroke-linecap="round" stroke-linejoin="round"/>
<path d="M62.1988 3.08595L67.5893 2.28798C67.6604 2.28119 67.7315 2.30006 67.7899 2.34118C67.8483 2.38231 67.89 2.44296 67.9075 2.51218C67.9223 2.55132 67.9286 2.59319 67.9258 2.63494C67.923 2.6767 67.9113 2.71737 67.8914 2.75419C67.8715 2.79101 67.8439 2.82311 67.8105 2.84833C67.7771 2.87354 67.7386 2.89127 67.6978 2.90032L62.6809 3.89357C62.6315 3.90417 62.5805 3.90489 62.5308 3.89571C62.4812 3.88652 62.4338 3.86761 62.3914 3.84005C62.3491 3.8125 62.3126 3.77684 62.2841 3.73513C62.2556 3.69343 62.2356 3.6465 62.2253 3.59704C62.1843 3.39212 61.9842 3.27641 62.2036 3.23542C62.2132 3.23301 62.1988 3.08836 62.1988 3.08595Z" fill="#070924"/>
<path d="M52.5097 6.04637L62.8569 3.87665C62.8569 3.87665 61.8202 -0.944947 56.5598 0.180897C51.3501 1.27781 52.5097 6.04637 52.5097 6.04637Z" fill="#8B8B8B"/>
<path d="M62.2154 6.7237C62.2115 6.78254 62.1903 6.83892 62.1544 6.88574C62.1186 6.93256 62.0697 6.96773 62.0139 6.98682C61.9581 7.00591 61.8979 7.00806 61.8408 6.99302C61.7838 6.97797 61.7325 6.94639 61.6934 6.90226C61.6543 6.85812 61.6291 6.80341 61.621 6.74499C61.6129 6.68657 61.6223 6.62706 61.6479 6.57396C61.6736 6.52085 61.7143 6.47652 61.7651 6.44654C61.8159 6.41656 61.8744 6.40227 61.9333 6.40547C62.0129 6.41044 62.0872 6.44671 62.1401 6.50635C62.1929 6.56599 62.22 6.64414 62.2154 6.7237Z" fill="black"/>
<path d="M62.1455 5.28461C62.2275 5.54497 61.8104 5.639 61.321 5.76677C60.8316 5.89454 60.417 5.94758 60.3712 5.72096C60.3254 5.49435 60.7063 5.36657 61.1957 5.2388C61.6851 5.11103 62.078 5.06281 62.1455 5.28461Z" fill="#070924"/>
<path d="M61.2344 8.98755C61.2344 8.98755 61.514 9.52998 62.6616 9.22863" stroke="white" stroke-width="0.77" stroke-linecap="round" stroke-linejoin="round"/>
<path d="M54.9444 13.7416C54.9444 13.7416 52.3817 13.0184 50.8461 15.6341C49.0283 18.744 49.4647 23.6813 50.9545 27.6736L51.591 35.0965H63.8282C63.8282 35.0965 64.3803 26.9142 62.0201 21.6804C58.9078 14.7783 54.9444 13.7416 54.9444 13.7416Z" fill="white"/>
<path d="M62.2612 24.002L64.5152 27.3048C65.0026 28.0184 65.2064 28.8881 65.0869 29.744C64.9675 30.5999 64.5333 31.3805 63.8692 31.9335C63.5064 32.2346 63.0863 32.4588 62.6342 32.5925C62.1821 32.7262 61.7076 32.7665 61.2395 32.711C60.7713 32.6555 60.3194 32.5054 59.911 32.2698C59.5027 32.0342 59.1466 31.718 58.8643 31.3404L56.562 28.2667L62.2612 24.002Z" fill="#E7E7E7"/>
<path d="M62.2203 24.0021L58.7656 18.8213C58.4419 18.3357 58.0176 17.9255 57.5214 17.6183C57.0252 17.3112 56.4687 17.1143 55.8897 17.0411C55.3108 16.968 54.7228 17.0202 54.1658 17.1942C53.6088 17.3683 53.0957 17.6601 52.6614 18.0499C51.9224 18.714 51.4517 19.6255 51.338 20.6126C51.2243 21.5997 51.4755 22.5943 52.0443 23.4091L55.8148 28.8044L62.2203 24.0021Z" fill="white"/>
<path d="M62.2614 24.0019L59.1345 19.3635" stroke="#D1D1D1" stroke-width="1.07" stroke-miterlimit="10"/>
<path d="M56.5621 28.2739L55.8148 28.8042L51.4946 22.2878" stroke="#D1D1D1" stroke-width="1.07" stroke-miterlimit="10"/>
<path d="M62.1649 26.3863L76.1934 28.2402L75.6292 32.1722L61.772 32.7387C59.4504 32.4084 57.811 30.5883 58.5728 28.3704C59.1611 26.6587 60.3761 26.1042 62.1649 26.3863Z" fill="#E7E7E7"/>
<path d="M75.1495 28.7247L80.7256 26.1331C80.9921 26.0098 81.2911 25.9751 81.5787 26.0341C81.8664 26.0931 82.1276 26.2427 82.324 26.461L83.973 28.5463C84.1677 28.764 84.2964 29.0328 84.3438 29.321C84.3912 29.6092 84.3554 29.905 84.2406 30.1736L83.9826 30.7787C83.8663 31.0529 83.6728 31.2874 83.4257 31.4537L82.6591 31.9648C82.4571 32.1008 82.2146 32.1634 81.9721 32.1424C81.7295 32.1213 81.5015 32.0178 81.3259 31.8491L80.7618 31.3139L78.351 32.1625C78.351 32.1625 76.5477 33.0425 74.46 31.555L75.1495 28.7247Z" fill="#E7E7E7"/>
<path d="M79.3008 29.5878L78.1099 30.311C77.9423 30.4567 77.8071 30.6359 77.7132 30.8371C77.6192 31.0383 77.5686 31.257 77.5645 31.479C77.5604 31.7011 77.603 31.9215 77.6894 32.126C77.7759 32.3305 77.9044 32.5146 78.0665 32.6664C78.2194 32.8095 78.3992 32.921 78.5955 32.9943C78.7917 33.0676 79.0005 33.1013 79.2099 33.0934C79.4192 33.0856 79.625 33.0364 79.8152 32.9486C80.0054 32.8608 80.1764 32.7362 80.3182 32.582L81.4271 31.7695C81.564 31.6209 81.67 31.4465 81.739 31.2566C81.8079 31.0666 81.8385 30.8649 81.8288 30.663C81.8192 30.4612 81.7695 30.2632 81.6828 30.0807C81.596 29.8982 81.4739 29.7348 81.3235 29.5998C81.0462 29.3507 80.6872 29.212 80.3144 29.2097C79.9417 29.2075 79.5811 29.342 79.3008 29.5878Z" fill="#070924"/>
<path d="M69.6577 52.9966L75.4147 53.4474L75.393 58.8934L69.8843 58.973L69.6577 52.9966Z" fill="white"/>
<path d="M69.3925 58.3558L69.4552 63.7729L83.5294 63.621C83.5294 63.621 83.5294 61.2922 80.6582 60.9016C77.7869 60.5111 77.1215 60.7039 76.4634 59.8505C76.1475 59.3821 75.9757 58.8315 75.9691 58.2666C75.966 58.1368 75.9119 58.0134 75.8185 57.9232C75.7251 57.833 75.6 57.7831 75.4701 57.7844L69.8819 57.8495C69.8164 57.8502 69.7516 57.8638 69.6914 57.8897C69.6312 57.9155 69.5768 57.9531 69.5312 58.0002C69.4857 58.0474 69.45 58.1031 69.4261 58.1641C69.4023 58.2251 69.3909 58.2903 69.3925 58.3558Z" fill="#070924"/>
<path d="M68.9529 64.6896L84.1111 64.5229L84.1011 63.6165L68.9429 63.7832L68.9529 64.6896Z" fill="#070924"/>
<path d="M75.1375 59.5469C75.138 59.5894 75.1511 59.6308 75.1752 59.6659C75.1992 59.7009 75.2332 59.7281 75.2727 59.7438C75.3123 59.7595 75.3556 59.7631 75.3971 59.7542C75.4387 59.7452 75.4767 59.7241 75.5063 59.6935C75.5358 59.6629 75.5556 59.6243 75.5632 59.5824C75.5707 59.5405 75.5656 59.4974 75.5486 59.4584C75.5315 59.4194 75.5033 59.3864 75.4674 59.3635C75.4316 59.3406 75.3897 59.3289 75.3472 59.3299C75.2907 59.3312 75.237 59.3546 75.1977 59.3953C75.1585 59.4359 75.1368 59.4904 75.1375 59.5469Z" fill="#DBDADB"/>
<path d="M75.8027 60.487C75.7995 60.5169 75.8027 60.5472 75.812 60.5758C75.8212 60.6045 75.8364 60.6308 75.8565 60.6532C75.8767 60.6756 75.9013 60.6935 75.9287 60.7057C75.9562 60.718 75.986 60.7243 76.0161 60.7243C76.0462 60.7243 76.0759 60.718 76.1034 60.7057C76.1309 60.6935 76.1555 60.6756 76.1756 60.6532C76.1958 60.6308 76.211 60.6045 76.2202 60.5758C76.2295 60.5472 76.2326 60.5169 76.2295 60.487C76.2239 60.4343 76.199 60.3856 76.1596 60.3502C76.1202 60.3148 76.0691 60.2952 76.0161 60.2952C75.9631 60.2952 75.912 60.3148 75.8726 60.3502C75.8332 60.3856 75.8083 60.4343 75.8027 60.487Z" fill="#DBDADB"/>
<path d="M77.0347 61.056C77.0315 61.0859 77.0346 61.1162 77.0439 61.1448C77.0531 61.1734 77.0683 61.1998 77.0885 61.2222C77.1086 61.2445 77.1332 61.2624 77.1607 61.2747C77.1882 61.2869 77.2179 61.2933 77.248 61.2933C77.2781 61.2933 77.3079 61.2869 77.3353 61.2747C77.3628 61.2624 77.3874 61.2445 77.4076 61.2222C77.4277 61.1998 77.4429 61.1734 77.4521 61.1448C77.4614 61.1162 77.4645 61.0859 77.4614 61.056C77.4614 61.028 77.4558 61.0004 77.445 60.9746C77.4341 60.9488 77.4182 60.9255 77.3982 60.9059C77.3782 60.8864 77.3546 60.8711 77.3286 60.8608C77.3025 60.8506 77.2748 60.8456 77.2468 60.8462C77.191 60.8462 77.1374 60.8683 77.0976 60.9075C77.0579 60.9468 77.0353 61.0001 77.0347 61.056Z" fill="#DBDADB"/>
<path d="M78.469 61.2537C78.4691 61.2963 78.4818 61.338 78.5056 61.3734C78.5294 61.4087 78.5632 61.4362 78.6027 61.4523C78.6421 61.4684 78.6855 61.4724 78.7273 61.4637C78.769 61.455 78.8072 61.4341 78.837 61.4036C78.8668 61.3731 78.8869 61.3344 78.8946 61.2925C78.9023 61.2506 78.8974 61.2073 78.8804 61.1682C78.8634 61.1291 78.8352 61.0959 78.7993 61.0729C78.7634 61.0499 78.7214 61.0382 78.6788 61.0391C78.6508 61.0391 78.6232 61.0447 78.5974 61.0555C78.5716 61.0664 78.5483 61.0823 78.5288 61.1022C78.5092 61.1222 78.4939 61.1459 78.4836 61.1719C78.4734 61.1979 78.4684 61.2257 78.469 61.2537Z" fill="#DBDADB"/>
<path d="M69.4551 63.773L83.5294 63.6211" stroke="white" stroke-width="0.61" stroke-miterlimit="10"/>
<path d="M76.9431 39.4119H68.2834V55.5281H76.9431V39.4119Z" fill="#CDCDCD"/>
<path d="M77.9702 52.4375H67.4133V55.5281H77.9702V52.4375Z" fill="#C7C5C3"/>
<path d="M51.5911 35.0676C51.5911 35.0676 48.4836 43.9153 56.9624 43.9153H72.5241C73.6969 43.9146 74.8215 43.4483 75.6506 42.6187C76.4798 41.7892 76.9455 40.6643 76.9455 39.4914C76.9455 38.3186 76.4798 37.1937 75.6506 36.3642C74.8215 35.5346 73.6969 35.0683 72.5241 35.0676H51.5911Z" fill="#CDCDCD"/>
<path d="M68.2834 44.0959H71.1017" stroke="#070924" stroke-width="1.07" stroke-miterlimit="10"/>
<path d="M0 79.8699H136.596" stroke="white" stroke-width="1.07" stroke-miterlimit="10"/>
<path d="M83.269 17.6157V21.5357C83.269 21.5357 84.1008 21.4079 84.1008 19.366C84.1008 17.324 83.269 17.6157 83.269 17.6157Z" fill="#ABABAB"/>
<path d="M86.2246 25.1687L85.5424 20.3833C85.5241 20.2493 85.4606 20.1256 85.3624 20.0326C85.2642 19.9397 85.1372 19.8831 85.0024 19.8722L83.6692 19.7517L83.7029 19.3828L85.0361 19.5034C85.2541 19.5221 85.4592 19.6144 85.6178 19.7651C85.7764 19.9158 85.879 20.1159 85.9088 20.3327L86.5911 25.1181L86.2246 25.1687Z" fill="#ABABAB"/>
</svg>
