<svg width="16" height="16" viewBox="0 0 16 16" fill="none" xmlns="http://www.w3.org/2000/svg">
<path d="M13.6566 2.34343C12.1448 0.83165 10.138 0 8 0C5.86195 0 3.85522 0.83165 2.34343 2.34343C0.83165 3.85522 0 5.86195 0 8C0 10.138 0.83165 12.1448 2.34343 13.6566C3.85522 15.1684 5.86195 16 8 16C10.138 16 12.1448 15.1684 13.6566 13.6566C15.1684 12.1448 16 10.138 16 8C16 5.86195 15.1684 3.85522 13.6566 2.34343ZM13.0135 13.0135C11.6734 14.3535 9.89226 15.0909 8 15.0909C6.10774 15.0909 4.3266 14.3535 2.98653 13.0135C0.222222 10.2492 0.222222 5.75084 2.98653 2.98653C4.3266 1.64646 6.10774 0.909091 8 0.909091C9.89226 0.909091 11.6734 1.64646 13.0135 2.98653C15.7778 5.75084 15.7778 10.2492 13.0135 13.0135Z" fill="#369B58"/>
<path d="M11.5253 4.47481C11.3468 4.29636 11.0606 4.29636 10.8822 4.47481L8.00003 7.35697L5.11788 4.47481C4.93943 4.29636 4.65323 4.29636 4.47478 4.47481C4.29633 4.65326 4.29633 4.93946 4.47478 5.11791L7.35693 8.00006L4.47478 10.8822C4.29633 11.0607 4.29633 11.3469 4.47478 11.5253C4.56232 11.6129 4.68017 11.66 4.79465 11.66C4.90912 11.66 5.02697 11.6162 5.11451 11.5253L7.99666 8.64316L10.8788 11.5253C10.9664 11.6129 11.0842 11.66 11.1987 11.66C11.3165 11.66 11.431 11.6162 11.5185 11.5253C11.697 11.3469 11.697 11.0607 11.5185 10.8822L8.64312 8.00006L11.5253 5.11791C11.7037 4.93946 11.7037 4.65326 11.5253 4.47481Z" fill="#369B58"/>
</svg>
