<svg width="102" height="28" viewBox="0 0 102 28" fill="none" xmlns="http://www.w3.org/2000/svg">
<path d="M18.9337 1.45245C21.5698 2.8465 23.1794 5.28148 23.7625 8.75739H20.1618C20.0249 7.90913 19.7181 7.09652 19.2595 6.36726C18.801 5.63801 18.1999 5.00682 17.4915 4.51076C15.9623 3.56947 14.1829 3.10416 12.3836 3.17505C11.2161 3.15758 10.0591 3.39633 8.99573 3.87415C7.9324 4.35196 6.98914 5.05699 6.23369 5.93859C4.55897 7.78709 3.72161 10.5445 3.72161 14.2108C3.60168 16.9332 4.32567 19.6269 5.7964 21.9302C7.16719 23.8954 9.40636 24.878 12.5139 24.878C14.6808 24.9539 16.7948 24.2057 18.4219 22.7869C19.985 21.3867 20.7852 19.1299 20.8224 16.0163H12.4488V13.0685H24.1904V27.3007H21.8644L20.9806 23.8831C20.0622 24.9674 18.9756 25.9003 17.7614 26.6467C15.9171 27.6057 13.8512 28.0694 11.7696 27.9916C8.79165 28.0421 5.90882 26.9532 3.72161 24.9517C1.24054 22.3908 0 18.875 0 14.4042C0 9.93343 1.20332 6.38997 3.60996 3.77382C4.71802 2.53999 6.08684 1.56281 7.61924 0.911669C9.15164 0.260527 10.81 -0.0486126 12.4767 0.00620081C14.7171 -0.0521177 16.9367 0.445037 18.9337 1.45245Z" fill="white"/>
<path d="M39.1232 8.73002C40.2522 9.27273 41.2154 10.1024 41.9144 11.1343C42.56 12.1242 42.985 13.2391 43.1612 14.4045C43.3855 15.7528 43.479 17.1193 43.4403 18.4853H29.8564C29.8357 20.1004 30.3022 21.6848 31.1962 23.0359C31.6469 23.6173 32.2367 24.0784 32.9125 24.3775C33.5882 24.6766 34.3286 24.8044 35.0667 24.7493C35.797 24.7802 36.5252 24.6509 37.1991 24.3707C37.8731 24.0904 38.4761 23.666 38.9651 23.128C39.5124 22.5002 39.9071 21.7565 40.1188 20.9541H43.217C43.0912 21.7554 42.8167 22.5268 42.4075 23.2294C42.0025 23.9887 41.4816 24.6816 40.8631 25.2836C39.8864 26.2093 38.6686 26.8473 37.3462 27.1259C36.5076 27.3195 35.6485 27.4123 34.7875 27.4023C33.6812 27.4194 32.5838 27.2032 31.5684 26.768C30.5529 26.3329 29.6427 25.6887 28.8981 24.8783C27.2854 23.2017 26.4822 20.8527 26.4884 17.8313C26.3702 15.1985 27.2345 12.6147 28.9167 10.5724C29.7007 9.66922 30.6796 8.95199 31.7811 8.47366C32.8826 7.99534 34.0786 7.76814 35.2807 7.80885C36.6169 7.81171 37.9336 8.12736 39.1232 8.73002ZM40.249 16.0165C40.1809 14.8873 39.8801 13.7838 39.3651 12.774C38.939 12.0352 38.3095 11.4317 37.5501 11.0337C36.7907 10.6357 35.9326 10.4598 35.076 10.5263C34.3988 10.5132 33.7267 10.6446 33.1053 10.9117C32.484 11.1787 31.9281 11.5751 31.4753 12.0739C30.4819 13.1514 29.9311 14.5576 29.9308 16.0165H40.249Z" fill="white"/>
<path d="M46.6598 3.0459H49.8418V8.22292H52.8377V10.7654H49.8418V22.8697C49.8106 23.1275 49.8577 23.3888 49.977 23.6201C50.0963 23.8514 50.2824 24.0423 50.5117 24.1685C50.9002 24.3148 51.3157 24.3776 51.7305 24.3528H52.2237L52.8377 24.2975V26.7202C52.4671 26.8305 52.0872 26.9075 51.7026 26.9505C51.2825 26.9966 50.86 27.0181 50.4373 27.015C48.9672 27.015 47.9717 26.6465 47.4507 25.9003C46.8991 25.0471 46.6233 24.0478 46.6598 23.0355V10.7654H44.1292V8.22292H46.6598V3.0459Z" fill="white"/>
<path d="M78.972 13.7318C79.0715 13.2013 79.2982 12.7022 79.6331 12.2764C79.2729 12.6867 79.043 13.1929 78.972 13.7318Z" fill="white"/>
<path d="M101.972 11.5852V8.06631H98.8738V2.76953H93.9706V8.06631L88.5277 8.11237C89.0665 8.28762 89.5461 8.60632 89.914 9.03354C90.5439 9.77366 90.9616 10.6676 91.1235 11.6221H93.9706V23.2289C93.8911 24.1761 94.1919 25.1161 94.8079 25.845C95.6732 26.7662 97.2828 27.1347 99.6367 27.061L102 26.9689V23.2842H101.498H101.023C100.388 23.3671 99.7421 23.268 99.1622 22.9986C98.9034 22.5627 98.7987 22.0538 98.8645 21.5524V11.5852H101.972Z" fill="white"/>
<path d="M90.6864 25.4679C90.4829 25.0584 90.3809 24.6068 90.3886 24.1506C90.3886 23.2939 90.3886 22.5661 90.3886 21.9674V13.3083C90.3949 12.7284 90.3293 12.1498 90.1933 11.5857C90.0669 10.9639 89.7994 10.3787 89.4109 9.87442C89.0224 9.37011 88.5232 8.95988 87.951 8.67478C87.4745 8.43448 86.9799 8.2312 86.4717 8.0668C85.1469 7.64182 83.7611 7.43336 82.3686 7.44961C79.1494 7.44961 76.8792 8.27867 75.5581 9.93679C74.7843 10.9623 74.314 12.1807 74.1997 13.4557C74.1304 14.769 74.1304 16.085 74.1997 17.3983C74.7324 16.6185 75.4558 15.9847 76.3024 15.556C77.124 15.1395 77.9965 14.8299 78.8982 14.6348H79.0377C79.0149 14.3497 79.0149 14.0632 79.0377 13.7781C79.1086 13.2392 79.3384 12.7329 79.6983 12.3226C80.0302 12.0034 80.4289 11.7603 80.8663 11.6106C81.3036 11.461 81.7689 11.4084 82.229 11.4567C83.0595 11.4108 83.8889 11.5625 84.6481 11.8989C84.9266 12.0596 85.1526 12.296 85.2994 12.5802C85.4462 12.8643 85.5075 13.1841 85.4761 13.5018C85.4681 13.8179 85.3594 14.1236 85.1656 14.375C84.9718 14.6264 84.7028 14.8108 84.3969 14.9019C83.7533 15.1255 83.0847 15.2709 82.4058 15.3349L80.7032 15.5376C80.0054 15.6297 79.3727 15.731 78.8424 15.86C77.9632 16.0411 77.1165 16.3516 76.3303 16.7811C75.387 17.3002 74.632 18.0992 74.1718 19.0657C73.7772 19.9335 73.5833 20.8777 73.6042 21.8292C73.5589 22.6012 73.6873 23.3735 73.9802 24.0903C74.273 24.8072 74.723 25.4507 75.2975 25.9745C76.5031 26.9689 78.0373 27.4872 79.6053 27.43C80.8848 27.447 82.1461 27.1292 83.2618 26.5088C84.1318 25.9699 84.9184 25.3089 85.5971 24.5467C85.6195 24.9299 85.6661 25.3114 85.7366 25.6889C85.7885 26.0415 85.879 26.3875 86.0065 26.7207H91.4214V26.0021C91.1354 25.8872 90.8828 25.7035 90.6864 25.4679ZM85.3924 19.4249C85.3924 21.0738 84.8807 22.1885 83.9596 22.8333C83.0793 23.4429 82.0286 23.765 80.9544 23.7545C80.323 23.7749 79.7042 23.5762 79.2052 23.1925C78.9462 22.9642 78.7461 22.6778 78.6215 22.3573C78.4969 22.0369 78.4514 21.6916 78.4888 21.3502C78.4656 20.9277 78.5634 20.5074 78.7708 20.1375C78.9781 19.7676 79.2868 19.4631 79.6611 19.2591C80.382 18.9113 81.1549 18.6811 81.9499 18.5774L83.085 18.4301C83.5407 18.3548 83.9889 18.2407 84.4248 18.0892C84.7485 17.9606 85.0599 17.8034 85.3552 17.6194L85.3924 19.4249Z" fill="white"/>
<path d="M72.5715 23.0356C72.5424 22.4193 72.5798 21.8017 72.6831 21.1932C71.414 21.9919 70.0264 22.5887 68.5707 22.9619C66.9443 23.3982 65.2552 23.5601 63.5745 23.4409C62.5999 23.431 61.6422 23.1876 60.7833 22.7316C60.1333 22.2936 59.608 21.6976 59.2577 21.0007C58.9074 20.3039 58.7439 19.5296 58.7829 18.7521H72.6738C72.7211 17.5 72.6651 16.2461 72.5063 15.0029C72.3157 13.5903 71.7965 12.2407 70.9898 11.0603C70.1788 9.8485 69.0365 8.89004 67.6962 8.29676C66.3023 7.68328 64.7928 7.36932 63.2674 7.37558C62.8195 7.3748 62.372 7.4025 61.9277 7.45849C61.9373 7.5442 61.9373 7.6307 61.9277 7.71642C61.9278 8.01926 61.8456 8.31656 61.6896 8.57705C61.5335 8.83755 61.3095 9.05162 61.0411 9.19677C60.7726 9.34192 60.4696 9.41279 60.1639 9.40192C59.8583 9.39106 59.5612 9.29886 59.3039 9.13503C59.2261 9.413 59.0775 9.66654 58.8724 9.87139C58.6672 10.0762 58.4125 10.2256 58.1324 10.305C57.8523 10.3845 57.5564 10.3915 57.2728 10.3254C56.9892 10.2592 56.7275 10.1222 56.5127 9.92724C56.496 9.95316 56.4738 9.97517 56.4476 9.99173C54.6674 11.7481 53.7773 14.2537 53.7773 17.5085C53.7773 20.9967 54.7481 23.5146 56.6895 25.0622C58.5802 26.5931 60.9555 27.415 63.3977 27.3836C64.0118 27.3836 69.8175 27.7705 73.046 25.0438C72.7449 24.4156 72.5831 23.7308 72.5715 23.0356ZM60.2436 12.5342C60.6434 12.155 61.1191 11.8631 61.64 11.6774C62.1608 11.4918 62.7153 11.4165 63.2674 11.4564C64.3472 11.4245 65.4009 11.7887 66.2261 12.4789C66.6392 12.8598 66.9694 13.3202 67.1965 13.8318C67.4237 14.3434 67.543 14.8955 67.5473 15.4543H58.9225C59.0379 14.3666 59.5007 13.3436 60.2436 12.5342Z" fill="white"/>
</svg>
