<svg width="48" height="48" viewBox="0 0 48 48" fill="none" xmlns="http://www.w3.org/2000/svg">
<g clip-path="url(#clip0)">
<path d="M37.4388 41.9958L36.9145 35.6189L36.6474 32.3745L36.6263 32.1594C35.2042 32.3102 19.2859 23.8395 20.2391 22.5437C18.5344 22.5049 16.8938 22.4074 15.3454 22.2422L15.3332 22.5581L15.0339 26.1983L14.1827 36.5312C14.1494 36.8293 14.1328 37.1253 14.1328 37.418C14.1328 41.6877 17.6011 45.2513 21.9806 45.2513C23.7907 45.2513 25.4456 44.6417 26.7636 43.6252C27.24 46.0926 29.4103 48.0002 32.0694 48.0002C35.2917 48.0002 37.7979 45.1981 37.4388 41.9958Z" fill="#F9DCB2"/>
<path d="M17.7906 37.4178C17.7906 37.1252 17.8072 36.8292 17.8404 36.531L18.6685 26.4794C18.6767 26.4798 18.6849 26.4802 18.693 26.4806C18.7318 25.2093 24.6542 24.9931 25.6075 23.6973C25.188 23.6877 20.1994 21.0537 19.7881 21.037C19.7881 21.037 18.9046 20.8859 18.6242 20.8707C18.5626 20.8674 15.6314 20.649 15.3454 22.2419L15.3332 22.5578L15.0339 26.198L14.1827 36.5309C14.1494 36.829 14.1328 37.125 14.1328 37.4177C14.1328 41.6874 17.6011 45.2511 21.9806 45.2511C22.6122 45.2511 23.2244 45.1752 23.8105 45.0354C20.3323 44.2073 17.7906 41.0723 17.7906 37.4178Z" fill="#DDBB8E"/>
<path d="M30.3662 35.8425C30.9242 35.861 31.4925 35.8703 32.0697 35.8703C33.6703 35.8703 35.2044 35.8016 36.6265 35.6509C36.723 35.6409 36.8193 35.6298 36.9147 35.6187L36.6476 32.3743L36.6265 32.1593C35.8051 30.7914 32.646 29.4059 32.646 29.4059C32.1052 29.3912 28.8219 30.4589 27.514 32.1593L27.4929 32.3743L27.2258 35.6187L26.7004 41.9956C26.6772 42.2006 26.666 42.4046 26.666 42.6052C26.666 42.9533 26.6993 43.2947 26.7635 43.6251C27.2402 46.0924 29.4105 48 32.0697 48C32.6205 48 33.1497 47.9165 33.6479 47.7646C31.7422 47.1832 30.3002 45.5804 29.9225 43.625C29.8582 43.2947 29.825 42.9532 29.825 42.6051C29.825 42.4045 29.8361 42.2005 29.8594 41.9955L30.3662 35.8425Z" fill="#DDBB8E"/>
<path d="M39.3289 18.6839C40.6602 17.5123 41.4105 16.037 41.4105 14.2069C41.4105 7.97634 32.7115 0 21.9807 0C11.2498 0 2.55078 7.97634 2.55078 14.2069C2.55078 19.0852 7.88131 21.4462 15.3455 22.242C16.894 22.4072 18.5345 22.5047 20.2393 22.5435C19.2506 23.8881 18.6908 25.3124 18.6908 26.6237C18.6908 29.9856 22.3675 31.6117 27.514 32.1592C28.9361 32.31 30.4702 32.3787 32.0697 32.3787C33.6703 32.3787 35.2044 32.31 36.6265 32.1592C41.773 31.6117 45.4497 29.9856 45.4497 26.6237C45.4497 23.8869 43.0123 20.6602 39.3289 18.6839Z" fill="#B27214"/>
<path d="M23.5123 26.6237C23.5123 25.3124 24.072 23.8881 25.0607 22.5435C26.9444 19.9786 30.388 17.7013 34.481 17.0364C33.6988 16.9093 32.893 16.8406 32.0697 16.8406C27.1707 16.8406 22.8885 19.255 20.5585 22.1323C20.5586 22.1322 20.5587 22.1321 20.5588 22.1319C13.5903 21.2409 8.70237 18.8782 8.70237 14.2069C8.70237 8.58403 15.7874 1.5405 25.0564 0.219562C24.0545 0.0767812 23.0275 0 21.9807 0C11.2498 0 2.55078 7.97634 2.55078 14.2069C2.55078 19.0852 7.88131 21.4462 15.3455 22.242C16.894 22.4072 18.5345 22.5047 20.2393 22.5435C20.294 22.4689 20.3507 22.3947 20.4087 22.3208C20.3513 22.3949 20.2942 22.469 20.2394 22.5435C19.2507 23.8881 18.691 25.3124 18.691 26.6237C18.691 29.9856 22.3677 31.6117 27.5142 32.1592C28.9363 32.31 30.4704 32.3787 32.0698 32.3787C32.8934 32.3787 33.6989 32.3602 34.481 32.322C33.7432 32.286 33.0259 32.2325 32.3355 32.1592C27.189 31.6117 23.5123 29.9856 23.5123 26.6237Z" fill="#995C0D"/>
</g>
<defs>
<clipPath id="clip0">
<rect width="48" height="48" fill="white"/>
</clipPath>
</defs>
</svg>
