<svg width="48" height="48" viewBox="0 0 48 48" fill="none" xmlns="http://www.w3.org/2000/svg">
<g clip-path="url(#clip0)">
<path d="M36.2731 12.4148C33.9032 12.5122 29.2839 12.3392 24.9719 10.0864C18.9796 6.95567 15.9642 1.0734 15.8387 0.824571C15.7701 0.688572 15.7713 0.526687 15.8419 0.39172C15.9125 0.256566 16.0446 0.163149 16.1955 0.141764C16.2555 0.133229 16.8062 0.0575386 17.7133 0.0203031C20.0831 -0.0770532 24.7026 0.0959935 29.0144 2.34869C35.0081 5.48004 38.0221 11.3616 38.1475 11.6105C38.2161 11.7466 38.2149 11.9086 38.1443 12.0436C38.0738 12.1786 37.9416 12.272 37.7908 12.2934C37.7309 12.3019 37.1789 12.3777 36.2731 12.4148Z" fill="#008932"/>
<path d="M17.7131 0.0202722C16.8061 0.0575077 16.2554 0.133198 16.1954 0.141733C16.0446 0.163118 15.9124 0.256535 15.8418 0.391689L38.1443 12.0435C38.2148 11.9084 38.2159 11.7464 38.1474 11.6104C38.022 11.3615 35.0079 5.48 29.0143 2.34857C24.7024 0.0960562 20.083 -0.0769902 17.7131 0.0202722Z" fill="#006522"/>
<path d="M36.4644 13.3496C34.4084 14.5321 30.2329 16.5155 25.3679 16.5128C18.6072 16.509 13.2127 12.6888 12.9864 12.5262C12.8627 12.4372 12.7889 12.2933 12.7891 12.141C12.7892 11.9885 12.8631 11.8445 12.9869 11.7558C13.0361 11.7204 13.4894 11.3986 14.2763 10.946C16.3323 9.76342 20.508 7.78 25.3727 7.78272C32.1351 7.78647 37.5279 11.6067 37.7542 11.7694C37.8779 11.8583 37.9518 12.0024 37.9517 12.1548C37.9516 12.3072 37.8776 12.4511 37.7539 12.5398C37.7047 12.5751 37.2503 12.8976 36.4644 13.3496Z" fill="#008932"/>
<path d="M14.2753 10.9469C13.4884 11.3996 13.0352 11.7214 12.9859 11.7567C12.8621 11.8455 12.7881 11.9894 12.7881 12.1419L37.9508 12.1558C37.9509 12.0034 37.877 11.8593 37.7533 11.7703C37.527 11.6077 32.1341 7.78745 25.3718 7.78369C20.507 7.78097 16.3315 9.7644 14.2753 10.9469Z" fill="#006522"/>
<path d="M40.0349 12.5309C39.8324 11.7717 39.0528 11.3206 38.2938 11.523C33.9786 12.674 29.7656 15.4204 26.1104 19.4655C23.3755 22.492 21.9095 25.1685 21.8484 25.281C21.4738 25.9709 21.7292 26.8334 22.4188 27.2087C22.6346 27.3262 22.8675 27.3819 23.0972 27.3819C23.6012 27.3819 24.0897 27.1134 24.348 26.64C24.3771 26.5867 25.9676 23.7209 28.8584 20.7028C28.6763 24.6317 29.073 27.3368 29.0951 27.4831C29.2016 28.188 29.8078 28.693 30.4997 28.693C30.57 28.693 30.6412 28.6877 30.7128 28.677C31.4893 28.5605 32.0244 27.8364 31.9086 27.0598C31.9025 27.0186 31.3308 23.0731 31.9406 17.9107C33.9522 16.3499 36.3282 14.9919 39.0271 14.272C39.7862 14.0695 40.2374 13.29 40.0349 12.5309Z" fill="#C97340"/>
<path d="M40.035 12.5309C39.8325 11.7717 39.0529 11.3206 38.2938 11.523C35.6212 12.2359 32.9879 13.5614 30.502 15.4278V28.693C30.5715 28.6929 30.642 28.6877 30.7129 28.677C31.4894 28.5605 32.0246 27.8364 31.9087 27.0598C31.9026 27.0186 31.331 23.0731 31.9407 17.9107C33.9524 16.3499 36.3283 14.9919 39.0272 14.272C39.7862 14.0695 40.2375 13.29 40.035 12.5309Z" fill="#964C22"/>
<path d="M11.944 43.4315C11.0737 42.8698 10.3065 42.1073 9.66406 41.1653C8.41634 39.3355 7.81654 37.1693 7.92947 34.9005C8.03236 32.8321 8.71357 30.7675 9.89938 28.93C11.0852 27.0925 12.6858 25.6213 14.528 24.6754C16.5489 23.6379 18.77 23.292 20.9511 23.6751C22.0742 23.8724 23.0849 24.2572 23.9553 24.819C24.8259 25.3808 25.593 26.1433 26.2353 27.0852C27.4831 28.9148 28.0828 31.0811 27.9699 33.35C27.867 35.4184 27.1859 37.4829 26.0001 39.3204C24.8143 41.1579 23.2137 42.6292 21.3714 43.575C19.3506 44.6126 17.1295 44.9585 14.9483 44.5754C13.8252 44.3781 12.8145 43.9932 11.944 43.4315Z" fill="#D2D02C"/>
<path d="M27.9702 33.3498C28.0831 31.081 27.4833 28.9147 26.2356 27.0851C25.5933 26.1431 24.8262 25.3807 23.9556 24.8188L11.9443 43.4315C12.8147 43.9932 13.8255 44.3781 14.9485 44.5753C17.1297 44.9584 19.3508 44.6125 21.3716 43.5749C23.214 42.629 24.8145 41.1578 26.0003 39.3203C27.1862 37.4828 27.8673 35.4182 27.9702 33.3498Z" fill="#B5B424"/>
<path d="M30.502 47.9999C29.4661 47.9999 28.4081 47.7751 27.3576 47.332C25.317 46.4712 23.6384 44.9761 22.5031 43.0086C21.468 41.2149 20.9209 39.1108 20.9209 36.924C20.9209 34.7371 21.468 32.633 22.5031 30.8393C23.6384 28.8717 25.3171 27.3768 27.3576 26.516C28.4081 26.0729 29.4661 25.8481 30.502 25.8481C31.5382 25.8481 32.5961 26.0729 33.6465 26.516C35.687 27.3768 37.3656 28.8718 38.5009 30.8393C39.536 32.633 40.0832 34.737 40.0832 36.924C40.0832 39.1109 39.5361 41.215 38.5009 43.0086C37.3657 44.9762 35.687 46.4712 33.6464 47.332C32.5959 47.7752 31.538 47.9999 30.502 47.9999Z" fill="#D2D02C"/>
<path d="M38.5008 30.8393C37.3655 28.8717 35.6869 27.3768 33.6464 26.516C32.596 26.0729 31.538 25.8481 30.502 25.8481V48C31.5379 48 32.5959 47.7753 33.6463 47.3321C35.6869 46.4714 37.3656 44.9763 38.5008 43.0087C39.536 41.215 40.0831 39.1109 40.0831 36.9241C40.0831 34.7372 39.5359 32.633 38.5008 30.8393Z" fill="#B5B424"/>
</g>
<defs>
<clipPath id="clip0">
<rect width="48" height="48" fill="white"/>
</clipPath>
</defs>
</svg>
