<svg width="48" height="48" viewBox="0 0 48 48" fill="none" xmlns="http://www.w3.org/2000/svg">
<path d="M25.6267 43.9326H22.3725C20.1271 43.9353 18.3073 45.755 18.3047 48.0004H19.9318C19.9358 46.9257 20.6435 45.9806 21.6736 45.6744C21.6011 45.9005 21.5625 46.1359 21.5589 46.3733V48.0004H23.186V46.3733C23.186 45.924 23.5503 45.5597 23.9996 45.5597C24.4489 45.5597 24.8132 45.924 24.8132 46.3733V48.0004H26.4403V46.3733C26.4367 46.1359 26.3981 45.9004 26.3256 45.6744C27.3557 45.9806 28.0634 46.9257 28.0674 48.0004H29.6945C29.6919 45.755 27.8721 43.9353 25.6267 43.9326Z" fill="#763A02"/>
<path d="M19.932 13.0171C19.932 15.0656 18.9675 16.9947 17.3286 18.2239L11.9046 22.2917C8.76345 24.6476 6.91484 28.3451 6.91504 32.2716C6.91504 39.1609 12.5 44.7459 19.3893 44.7459H28.6102C35.4995 44.7459 41.0845 39.1609 41.0845 32.2716C41.0847 28.3451 39.2361 24.6476 36.095 22.2917L30.671 18.2239C29.0321 16.9947 28.0676 15.0656 28.0676 13.0171H19.932Z" fill="#FCC78A"/>
<path d="M21.559 13.0169V9.82047C21.559 7.69973 20.7165 5.66573 19.2168 4.16624C18.112 3.06122 17.4912 1.56264 17.4912 0C19.0539 0 20.5524 0.620746 21.6574 1.72556C23.678 3.74603 24.8131 6.4863 24.8132 9.34373V13.0169H21.559Z" fill="#33BC00"/>
<path d="M26.4408 14.6439V11.4474C26.4408 9.32668 27.2833 7.29268 28.783 5.79319C29.8878 4.68817 30.5086 3.1896 30.5086 1.62695C28.9459 1.62695 27.4473 2.2477 26.3423 3.35251C24.3217 5.37299 23.1866 8.11326 23.1865 10.9707V14.6439H26.4408Z" fill="#008100"/>
<path d="M37.0173 33.2406C37.0173 39.5948 31.8661 44.7459 25.5119 44.7459H22.4888C16.1346 44.7459 10.9834 39.5948 10.9834 33.2406C10.9834 30.1891 12.1955 27.2626 14.3532 25.105L18.1077 21.3504C20.318 19.1403 21.5597 16.1427 21.5597 13.0171H26.441C26.441 16.1427 27.6827 19.1403 29.893 21.3504L33.6475 25.105C35.8052 27.2626 37.0173 30.1891 37.0173 33.2406Z" fill="#FADBB7"/>
<path d="M16.2152 38.3635C16.9572 42.0747 20.2156 44.746 24.0002 44.7459C27.7847 44.746 31.0432 42.0747 31.7851 38.3635C32.533 34.6247 31.824 30.7415 29.8033 27.5082L28.2632 25.0448C26.009 21.438 24.8137 17.2704 24.8137 13.0171H23.1866C23.1866 17.2704 21.9914 21.438 19.7371 25.0448L18.1971 27.5082C16.1764 30.7415 15.4674 34.6247 16.2152 38.3635Z" fill="#FCE9CC"/>
</svg>
