<svg width="55" height="40" viewBox="0 0 55 40" fill="none" xmlns="http://www.w3.org/2000/svg">
<path d="M51.9398 18.3095H3.0602C1.3701 18.3095 0 19.7035 0 21.423V36.8865C0 38.606 1.3701 40 3.0602 40H51.9398C53.6299 40 55 38.606 55 36.8865V21.423C55 19.7035 53.6299 18.3095 51.9398 18.3095Z" fill="#48B26B"/>
<path d="M50.4467 19.6782H4.57998C3.26836 19.6782 2.20508 20.7601 2.20508 22.0945V36.2161C2.20508 37.5506 3.26836 38.6324 4.57998 38.6324H50.4467C51.7583 38.6324 52.8216 37.5506 52.8216 36.2161V22.0945C52.8216 20.7601 51.7583 19.6782 50.4467 19.6782Z" fill="#E0F9DC"/>
<path d="M5.75616 19.4869C5.61624 19.4885 5.48025 19.4397 5.37226 19.3492C5.32409 19.3104 5.28537 19.2609 5.25909 19.2044C5.23281 19.1479 5.2197 19.086 5.22076 19.0236C5.22183 18.9611 5.23704 18.8997 5.26523 18.8442C5.29341 18.7887 5.3338 18.7405 5.38326 18.7034L26.9246 0.863989C27.0315 0.780764 27.1623 0.735668 27.2969 0.735668C27.4315 0.735668 27.5624 0.780764 27.6693 0.863989L49.1765 18.5468C49.2261 18.5836 49.2666 18.6317 49.295 18.6871C49.3234 18.7425 49.3388 18.8038 49.3401 18.8663C49.3414 18.9288 49.3284 18.9907 49.3024 19.0473C49.2763 19.1039 49.2377 19.1536 49.1897 19.1925C49.0831 19.2805 48.9504 19.3295 48.8132 19.3315C48.6759 19.3336 48.5419 19.2885 48.4329 19.2037L27.2997 1.82647L6.13016 19.3582C6.02356 19.4432 5.8916 19.4886 5.75616 19.4869Z" fill="#48B26B"/>
<path d="M27.1373 2.9322C28.0868 2.9322 28.8566 2.27581 28.8566 1.4661C28.8566 0.656398 28.0868 0 27.1373 0C26.1877 0 25.418 0.656398 25.418 1.4661C25.418 2.27581 26.1877 2.9322 27.1373 2.9322Z" fill="#48B26B"/>
<path d="M17.1815 22.7503C17.5469 22.75 17.9087 22.8232 18.2463 22.9655C18.5838 23.1078 18.8904 23.3166 19.1485 23.5797C19.4065 23.8429 19.611 24.1553 19.75 24.4991C19.8891 24.8429 19.9601 25.2112 19.959 25.5829V32.0282C19.9593 32.5873 19.7965 33.134 19.4913 33.5989C19.186 34.0639 18.752 34.4262 18.2442 34.64C17.7364 34.8538 17.1777 34.9095 16.6388 34.8C16.0998 34.6904 15.605 34.4207 15.2169 34.0248C14.9557 33.7644 14.7495 33.4525 14.6109 33.1083C14.4722 32.764 14.4041 32.3946 14.4106 32.0226V25.5829C14.4097 24.8345 14.701 24.1162 15.2203 23.5861C15.7397 23.056 16.4447 22.7574 17.1804 22.7559L17.1815 22.7503ZM18.1341 25.5393C18.1354 25.4053 18.1104 25.2724 18.0607 25.1484C18.0109 25.0244 17.9373 24.9117 17.8442 24.8169C17.7511 24.7222 17.6403 24.6473 17.5184 24.5967C17.3965 24.546 17.2659 24.5206 17.1342 24.522C17.0019 24.5205 16.8707 24.5459 16.7483 24.5969C16.6258 24.6478 16.5147 24.7232 16.4214 24.8186C16.3258 24.9114 16.2501 25.0233 16.1992 25.1474C16.1483 25.2714 16.1232 25.4049 16.1255 25.5393V32.0036C16.1232 32.138 16.1483 32.2715 16.1992 32.3955C16.2501 32.5196 16.3258 32.6315 16.4214 32.7243C16.5144 32.8202 16.6254 32.8958 16.748 32.9468C16.8705 32.9978 17.0018 33.023 17.1342 33.0209C17.2659 33.0222 17.3965 32.9969 17.5184 32.9462C17.6403 32.8956 17.7511 32.8207 17.8442 32.7259C17.9373 32.6312 18.0109 32.5185 18.0607 32.3945C18.1104 32.2704 18.1354 32.1376 18.1341 32.0036V25.5393Z" fill="#48B26B"/>
<path d="M24.2648 22.8969C25.1162 22.8969 25.7952 23.1704 26.302 23.7173C26.7706 24.2396 27.0049 24.9051 27.0049 25.7139V27.4296C27.0108 27.8001 26.943 28.1681 26.8053 28.5112C26.6677 28.8544 26.4632 29.1656 26.2041 29.4261C25.9548 29.6933 25.6537 29.9049 25.3199 30.0477C24.9861 30.1904 24.6268 30.2612 24.2648 30.2554H23.255V34.703H21.5049V22.8969H24.2648ZM25.3109 25.743C25.3168 25.6067 25.2957 25.4705 25.2488 25.3427C25.202 25.2148 25.1303 25.0978 25.0381 24.9987C24.9426 24.9031 24.8287 24.8286 24.7036 24.7799C24.5785 24.7312 24.4448 24.7093 24.311 24.7156H23.255V28.4939H24.3099C24.442 28.4961 24.5731 28.4705 24.695 28.4187C24.8169 28.3669 24.927 28.29 25.0183 28.1928C25.1122 28.0978 25.1863 27.9845 25.2364 27.8597C25.2865 27.735 25.3114 27.6012 25.3098 27.4665L25.3109 25.743Z" fill="#48B26B"/>
<path d="M28.4033 34.7075V22.8969H33.3863V24.6876H30.1534V27.9097H32.5151V29.7003H30.1534V32.9235H33.3863V34.7142L28.4033 34.7075Z" fill="#48B26B"/>
<path d="M36.5555 22.8969L38.8776 30.8374V22.8969H40.6288V34.7075H38.7489L36.3399 27.1419V34.7075H34.5898V22.8969H36.5555Z" fill="#48B26B"/>
</svg>
