<svg width="28" height="28" viewBox="0 0 28 28" fill="none" xmlns="http://www.w3.org/2000/svg">
<circle cx="12" cy="15" r="12" fill="white"/>
<line x1="10" y1="26.001" x2="10" y2="4.00098" stroke="white" stroke-width="2"/>
<line x1="0.233398" y1="14.0835" x2="23.1316" y2="14.0835" stroke="white" stroke-width="2"/>
<path d="M22.0728 14.4895L11.898 14.5794L11.9748 5.65771C11.9748 5.65771 13.988 2.38493 19.7752 7.5176C23.2167 11.3449 22.0728 14.4895 22.0728 14.4895Z" fill="#FED841"/>
<path d="M20.7803 6.41571C18.5628 4.38774 15.349 2.85167 11.9979 3.00471L11.9771 5.65619C12.6151 5.48547 13.001 4.8459 13.6335 4.83835C14.2873 4.83052 14.8568 5.47137 15.4754 5.62227C16.1026 5.77524 16.9294 5.47698 17.4898 5.77664C18.0501 6.07628 18.2089 6.90158 18.6714 7.33136C19.1277 7.75531 20.0007 7.88581 20.3319 8.42041C20.4516 8.61348 20.6279 10.0339 20.8984 10.3929C21.1186 10.7525 22.0277 11.7402 22.1009 12.0691C22.2347 12.6706 21.7719 14.2696 21.8338 14.4828L24.3155 14.4587C24.2093 12.1692 23.2441 8.669 20.7803 6.41571Z" fill="#BF5C15"/>
<path d="M18.5437 9.62309C18.4079 8.86704 17.654 8.36217 16.86 8.49543C16.0659 8.62868 15.5323 9.34961 15.6681 10.1057C15.8039 10.8617 16.5578 11.3666 17.3519 11.2333C18.1459 11.1001 18.6795 10.3791 18.5437 9.62309Z" fill="#FF1F2E"/>
<path d="M11.8423 9.01591L11.9007 11.4533C12.6079 11.4287 13.1631 10.8631 13.1407 10.1901C13.1186 9.52427 12.5394 9.00314 11.8423 9.01591Z" fill="#FF1F2E"/>
<path d="M13.1338 12.0913L13.7815 11.9186L13.9598 12.5341L13.3121 12.7068L13.1338 12.0913Z" fill="#6EBD21"/>
<path d="M13.3121 12.7066L13.3121 12.7068L13.9598 12.5341L13.7815 11.9186L13.3121 12.7066Z" fill="#6EBD21"/>
<path d="M19.8604 12.0239L20.508 11.8512L20.6864 12.4667L20.0387 12.6394L19.8604 12.0239Z" fill="#6EBD21"/>
<path d="M13.1338 6.78369L13.7815 6.61099L13.9598 7.22646L13.3121 7.39917L13.1338 6.78369Z" fill="#6EBD21"/>
<path d="M11.809 24.9481L11.8981 14.5797L21.8247 14.4919C21.8247 14.4919 24.3026 16.8418 18.9293 22.5652C14.9361 25.9837 11.809 24.9481 11.809 24.9481Z" fill="#FED841"/>
<path d="M13.1006 18.909C13.1071 18.1856 12.6146 17.7077 11.87 17.7143L11.8493 20.1256C12.594 20.119 13.0963 19.3912 13.1006 18.909Z" fill="#FF1F2E"/>
<path d="M21.1308 22.9369C22.8975 21.113 24.4081 17.7237 24.3056 14.47L21.8354 14.4703C22.0006 15.0872 21.7825 15.9288 21.7799 16.5433C21.7772 17.1785 21.1082 17.7438 20.9427 18.3479C20.7749 18.9602 21.0684 19.7581 20.7507 20.3083C20.4331 20.8584 19.581 21.028 19.131 21.4856C18.6871 21.9369 18.5385 22.7876 17.9827 23.1195C17.782 23.2394 16.3171 23.4372 15.9431 23.7067C15.5694 23.9274 14.5377 24.8292 14.198 24.9065C13.5767 25.0477 12.0307 24.6429 11.8102 24.7071L11.7895 27.1183C15.9151 26.9613 18.6574 25.4904 21.1308 22.9369Z" fill="#BF5C15"/>
<path d="M16.782 21.4087C17.5623 21.2621 18.0937 20.5197 17.9689 19.7506C17.8441 18.9816 17.1103 18.477 16.3299 18.6236C15.5496 18.7703 15.0182 19.5126 15.143 20.2817C15.2678 21.0508 16.0016 21.5554 16.782 21.4087Z" fill="#FF1F2E"/>
<path d="M16.4014 16.1926C17.2644 16.0305 17.852 15.2095 17.714 14.359C17.576 13.5084 16.7645 12.9504 15.9015 13.1126C15.0385 13.2748 14.4508 14.0957 14.5888 14.9463C14.7269 15.7968 15.5384 16.3548 16.4014 16.1926Z" fill="#FF1F2E"/>
<path d="M14.3242 16.2007L14.4919 16.8268L13.8556 17.012L13.6879 16.3859L14.3242 16.2007Z" fill="#6EBD21"/>
<path d="M13.6881 16.3859L13.6879 16.3859L13.8556 17.012L14.4919 16.8268L13.6881 16.3859Z" fill="#6EBD21"/>
<path d="M14.2881 22.7354L14.4558 23.3614L13.8195 23.5466L13.6518 22.9206L14.2881 22.7354Z" fill="#6EBD21"/>
<path d="M19.7881 16.0957L19.9558 16.7218L19.3195 16.907L19.1518 16.2809L19.7881 16.0957Z" fill="#6EBD21"/>
</svg>
