<svg width="48" height="48" viewBox="0 0 48 48" fill="none" xmlns="http://www.w3.org/2000/svg">
<g clip-path="url(#clip0)">
<path d="M37.1055 15.9092C34.224 18.7907 30.7654 20.0039 29.3803 18.6189C27.9953 17.234 29.2086 13.7753 32.0901 10.8938C34.9716 8.01225 38.4302 6.79907 39.8153 8.18401C41.2002 9.56905 39.987 13.0277 37.1055 15.9092Z" fill="url(#paint0_linear)"/>
<path d="M32.5208 2.78638C31.615 1.67494 30.557 0.763133 29.4022 0.0550855C29.1003 -0.12995 28.7437 0.184215 28.8886 0.507321C31.5355 6.41217 30.1701 13.4892 25.0907 17.7388C22.5496 19.8649 19.4759 20.9501 16.3691 21.0483C20.7206 23.7843 26.4909 23.5935 30.6912 20.2084C36.0028 15.9277 36.8305 8.07419 32.5208 2.78638Z" fill="url(#paint1_linear)"/>
<path d="M28.1912 18.3778C33.4235 14.0001 34.1163 6.20972 29.7387 0.977341C29.4867 0.676164 29.2228 0.390988 28.9493 0.120117C28.8609 0.217247 28.8232 0.361153 28.8888 0.507411C31.5356 6.41226 30.1703 13.4893 25.0909 17.7389C22.8798 19.5888 20.2655 20.6504 17.5771 20.9597C21.1936 21.7635 25.13 20.9389 28.1912 18.3778Z" fill="url(#paint2_linear)"/>
<path d="M45.2133 15.4791C46.3247 16.3849 47.2365 17.4428 47.9446 18.5977C48.1296 18.8995 47.8154 19.2561 47.4923 19.1113C41.5875 16.4644 34.5105 17.8298 30.2609 22.9091C28.1348 25.4503 27.0495 28.524 26.9513 31.6307C24.2153 27.2793 24.4061 21.5089 27.7912 17.3086C32.072 11.9971 39.9255 11.1693 45.2133 15.4791Z" fill="url(#paint3_linear)"/>
<path d="M29.622 19.8086C33.9997 14.5763 41.7901 13.8835 47.0225 18.2611C47.3236 18.5131 47.6088 18.777 47.8797 19.0504C47.7826 19.1388 47.6387 19.1765 47.4924 19.1109C41.5875 16.4641 34.5106 17.8294 30.261 22.9088C28.411 25.1199 27.3494 27.7342 27.0401 30.4226C26.2363 26.8062 27.0609 22.8698 29.622 19.8086Z" fill="url(#paint4_linear)"/>
<path d="M44.1282 20.7212C45.2741 21.838 46.1831 23.1042 46.8561 24.4579C47.032 24.8117 46.6474 25.177 46.3026 24.9841C40.0004 21.4581 31.9986 22.2762 26.7724 27.5023C24.1578 30.1169 22.6475 33.4264 22.2313 36.8701C19.6201 31.7625 20.4026 25.367 24.5809 21.0326C29.8644 15.5515 38.6762 15.4077 44.1282 20.7212Z" fill="url(#paint5_linear)"/>
<path d="M26.3684 23.9927C31.7519 18.6092 40.4803 18.6092 45.8638 23.9927C46.1737 24.3026 46.4646 24.6242 46.7388 24.9549C46.6221 25.0435 46.4583 25.0712 46.3022 24.9839C40 21.4579 31.9983 22.276 26.7721 27.5021C24.4971 29.7771 23.0586 32.5782 22.449 35.5362C21.9131 31.4365 23.2189 27.1423 26.3684 23.9927Z" fill="url(#paint6_linear)"/>
<path d="M27.2788 3.87111C26.162 2.72522 24.8958 1.81614 23.5421 1.1432C23.1883 0.967295 22.823 1.35186 23.0159 1.69671C26.5419 7.99892 25.7238 16.0007 20.4977 21.2269C17.8831 23.8414 14.5736 25.3518 11.1299 25.7679C16.2375 28.3791 22.633 27.5966 26.9674 23.4184C32.4485 18.1349 32.5923 9.32306 27.2788 3.87111Z" fill="url(#paint7_linear)"/>
<path d="M24.0073 21.6306C29.3908 16.2471 29.3908 7.5187 24.0073 2.13517C23.6975 1.82534 23.3759 1.53442 23.0451 1.26025C22.9565 1.37696 22.9288 1.54072 23.0161 1.69677C26.5422 7.99898 25.724 16.0008 20.4979 21.2269C18.2229 23.5019 15.4218 24.9404 12.4639 25.55C16.5635 26.0859 20.8577 24.7802 24.0073 21.6306Z" fill="url(#paint8_linear)"/>
<path d="M43.1024 23.6061L24.3938 4.89746C25.9767 9.96005 25.1014 15.5696 21.7402 19.8285C20.0302 20.5873 18.2056 20.9904 16.3695 21.0483C17.2705 21.6148 18.2328 22.0538 19.2289 22.367C16.85 24.2849 14.0378 25.4164 11.1299 25.7679C14.2846 27.3807 17.9304 27.6982 21.2787 26.7212C20.3016 30.0694 20.6192 33.7153 22.232 36.87C22.5834 33.9621 23.7151 31.1499 25.6328 28.771C25.946 29.7671 26.385 30.7295 26.9515 31.6305C27.0095 29.7943 27.4126 27.9697 28.1714 26.2597C32.4302 22.8985 38.0398 22.0231 43.1024 23.6061Z" fill="url(#paint9_linear)"/>
<path d="M4.43513 43.5648C-1.47838 37.6513 -1.47838 28.0637 4.43513 22.1502L8.87475 17.7105C14.7883 11.797 24.3758 11.797 30.2893 17.7105C36.2028 23.624 36.2028 33.2116 30.2893 39.1251L25.8497 43.5648C19.9362 49.4783 10.3486 49.4783 4.43513 43.5648Z" fill="url(#paint10_linear)"/>
<path d="M30.2887 39.1249L25.8491 43.5645C24.8391 44.5745 23.7214 45.4128 22.5331 46.0775C16.7668 49.3053 9.33709 48.467 4.4345 43.5645C3.16269 42.2927 2.16382 40.8498 1.43968 39.311C0.352057 37.0024 -0.119379 34.4757 0.0255625 31.9778C0.18161 29.2781 1.05643 26.6131 2.65079 24.2927C3.16919 23.538 3.76392 22.8204 4.4345 22.1499L8.87413 17.7103C9.433 17.1514 10.0252 16.6455 10.6428 16.1924C12.8025 16.2081 15.0341 16.4365 17.293 16.8975C24.734 18.4154 30.9154 22.137 34.635 26.777C34.693 27.3221 34.7231 27.8705 34.7231 28.4176C34.7231 30.9469 34.093 33.4768 32.8337 35.7508C32.1638 36.9612 31.3157 38.0979 30.2887 39.1249Z" fill="url(#paint11_linear)"/>
<path d="M32.8337 35.7507C32.1638 36.9611 31.3157 38.0978 30.2887 39.1248L25.8491 43.5644C24.8391 44.5744 23.7214 45.4127 22.5331 46.0773C16.7668 49.3052 9.33709 48.4669 4.4345 43.5644C3.16269 42.2926 2.16382 40.8497 1.43968 39.3109C0.352057 37.0022 -0.119379 34.4756 0.0255625 31.9777C0.18161 29.278 1.05643 26.613 2.65079 24.2926C6.33897 23.6926 10.3992 23.7546 14.5509 24.6014C22.6592 26.2551 29.2715 30.5263 32.8337 35.7507Z" fill="url(#paint12_linear)"/>
<path d="M0.0255625 31.978C3.68297 31.3982 7.70086 31.4674 11.8088 32.3057C18.6869 33.7087 24.4891 36.9947 28.2654 41.1483L25.8491 43.5646C24.8391 44.5746 23.7214 45.4129 22.5331 46.0776C16.7668 49.3054 9.33709 48.4671 4.4345 43.5646C3.16269 42.2928 2.16382 40.8499 1.43968 39.3111C0.352057 37.0025 -0.119379 34.4759 0.0255625 31.978Z" fill="url(#paint13_linear)"/>
<path d="M4.43428 43.5642C3.16247 42.2924 2.16359 40.8495 1.43945 39.3107C3.90016 39.2565 6.46534 39.4791 9.06647 40.0092C14.3261 41.0812 18.9564 43.2553 22.5328 46.0771C16.7666 49.305 9.33677 48.4667 4.43428 43.5642Z" fill="url(#paint14_linear)"/>
<path d="M8.87448 17.7106L4.43485 22.1503C3.42488 23.1602 2.58657 24.278 1.92191 25.4663C-1.30595 31.2326 -0.467642 38.6623 4.43485 43.5649C5.70666 44.8367 7.14958 45.8356 8.68841 46.5598C10.997 47.6475 13.5237 48.1188 16.0216 47.9739C18.7213 47.8178 21.3863 46.943 23.7067 45.3487C24.4614 44.8303 25.1789 44.2355 25.8494 43.5649L30.2891 39.1253C30.8479 38.5664 31.3539 37.9743 31.807 37.3567C31.7913 35.1969 31.5629 32.9653 31.1019 30.7064C29.5839 23.2655 25.8624 17.084 21.2224 13.3645C20.6773 13.3064 20.1289 13.2763 19.5818 13.2764C17.0525 13.2764 14.5226 13.9064 12.2486 15.1658C11.0381 15.8355 9.90149 16.6836 8.87448 17.7106Z" fill="url(#paint15_linear)"/>
<path d="M12.2486 15.1655C11.0381 15.8354 9.90149 16.6835 8.87448 17.7105L4.43485 22.1501C3.42488 23.1601 2.58657 24.2778 1.92191 25.4661C-1.30595 31.2325 -0.467642 38.6622 4.43485 43.5648C5.70666 44.8366 7.14958 45.8355 8.68841 46.5596C10.997 47.6473 13.5237 48.1187 16.0216 47.9737C18.7213 47.8177 21.3863 46.9429 23.7067 45.3485C24.3067 41.6603 24.2446 37.6001 23.3979 33.4484C21.7441 25.34 17.473 18.7277 12.2486 15.1655Z" fill="url(#paint16_linear)"/>
<path d="M16.0215 47.9737C16.6013 44.3163 16.5321 40.2984 15.6938 36.1905C14.2908 29.3123 11.0047 23.5102 6.85113 19.7339L4.43485 22.1502C3.42488 23.1601 2.58657 24.2779 1.92191 25.4662C-1.30595 31.2325 -0.467642 38.6623 4.43485 43.5649C5.70666 44.8367 7.14958 45.8355 8.68841 46.5597C10.9969 47.6472 13.5236 48.1186 16.0215 47.9737Z" fill="url(#paint17_linear)"/>
<path d="M4.43483 43.5649C5.70664 44.8367 7.14956 45.8355 8.68839 46.5597C8.7426 44.099 8.51991 41.5338 7.98984 38.9327C6.91784 33.673 4.74373 29.0428 1.92198 25.4663C-1.30597 31.2325 -0.467663 38.6624 4.43483 43.5649Z" fill="url(#paint18_linear)"/>
<path d="M2.53229 24.4697C-1.38978 30.3525 -0.75609 38.374 4.43469 43.5648C9.62546 48.7556 17.647 49.3894 23.5297 45.4672L2.53229 24.4697Z" fill="url(#paint19_linear)"/>
</g>
<defs>
<linearGradient id="paint0_linear" x1="35.6334" y1="9.86379" x2="33.1511" y2="18.3218" gradientUnits="userSpaceOnUse">
<stop stop-color="#66BB00"/>
<stop offset="1" stop-color="#0B799D"/>
</linearGradient>
<linearGradient id="paint1_linear" x1="33.2968" y1="9.09242" x2="29.4775" y2="10.5829" gradientUnits="userSpaceOnUse">
<stop stop-color="#B9DD39"/>
<stop offset="1" stop-color="#90CC1C"/>
</linearGradient>
<linearGradient id="paint2_linear" x1="23.9199" y1="9.16197" x2="26.3809" y2="19.6916" gradientUnits="userSpaceOnUse">
<stop stop-color="#66BB00" stop-opacity="0"/>
<stop offset="1" stop-color="#66BB00"/>
</linearGradient>
<linearGradient id="paint3_linear" x1="38.906" y1="14.7018" x2="37.4156" y2="18.5212" gradientUnits="userSpaceOnUse">
<stop stop-color="#B9DD39"/>
<stop offset="1" stop-color="#90CC1C"/>
</linearGradient>
<linearGradient id="paint4_linear" x1="38.8379" y1="24.0833" x2="28.3083" y2="21.6222" gradientUnits="userSpaceOnUse">
<stop stop-color="#66BB00" stop-opacity="0"/>
<stop offset="1" stop-color="#66BB00"/>
</linearGradient>
<linearGradient id="paint5_linear" x1="37.1596" y1="18.814" x2="32.5833" y2="28.8397" gradientUnits="userSpaceOnUse">
<stop stop-color="#B9DD39"/>
<stop offset="1" stop-color="#90CC1C"/>
</linearGradient>
<linearGradient id="paint6_linear" x1="36.1975" y1="29.6539" x2="24.7395" y2="25.8811" gradientUnits="userSpaceOnUse">
<stop stop-color="#66BB00" stop-opacity="0"/>
<stop offset="1" stop-color="#66BB00"/>
</linearGradient>
<linearGradient id="paint7_linear" x1="24.1156" y1="13.2247" x2="9.79837" y2="27.5419" gradientUnits="userSpaceOnUse">
<stop stop-color="#B9DD39"/>
<stop offset="1" stop-color="#90CC1C"/>
</linearGradient>
<linearGradient id="paint8_linear" x1="18.3447" y1="11.8001" x2="22.1174" y2="23.2581" gradientUnits="userSpaceOnUse">
<stop stop-color="#66BB00" stop-opacity="0"/>
<stop offset="1" stop-color="#66BB00"/>
</linearGradient>
<linearGradient id="paint9_linear" x1="33.1528" y1="14.8419" x2="21.9043" y2="26.0904" gradientUnits="userSpaceOnUse">
<stop stop-color="#07485E" stop-opacity="0"/>
<stop offset="0.3884" stop-color="#05394A" stop-opacity="0.388"/>
<stop offset="1" stop-color="#03232E"/>
</linearGradient>
<linearGradient id="paint10_linear" x1="17.6672" y1="18.416" x2="17.0143" y2="44.6581" gradientUnits="userSpaceOnUse">
<stop stop-color="#FFDA2D"/>
<stop offset="1" stop-color="#FDBF00"/>
</linearGradient>
<linearGradient id="paint11_linear" x1="20.395" y1="27.6413" x2="39.0211" y2="9.27631" gradientUnits="userSpaceOnUse">
<stop stop-color="#FF9100" stop-opacity="0"/>
<stop offset="1" stop-color="#FF9100"/>
</linearGradient>
<linearGradient id="paint12_linear" x1="14.314" y1="33.8706" x2="34.1152" y2="15.4621" gradientUnits="userSpaceOnUse">
<stop stop-color="#FF9100" stop-opacity="0"/>
<stop offset="1" stop-color="#FF9100"/>
</linearGradient>
<linearGradient id="paint13_linear" x1="10.3292" y1="39.9679" x2="34.0472" y2="20.3408" gradientUnits="userSpaceOnUse">
<stop stop-color="#FF9100" stop-opacity="0"/>
<stop offset="1" stop-color="#FF9100"/>
</linearGradient>
<linearGradient id="paint14_linear" x1="8.68598" y1="46.0906" x2="22.6991" y2="31.6422" gradientUnits="userSpaceOnUse">
<stop stop-color="#FF9100" stop-opacity="0"/>
<stop offset="1" stop-color="#FF9100"/>
</linearGradient>
<linearGradient id="paint15_linear" x1="20.358" y1="27.6043" x2="38.723" y2="8.97817" gradientUnits="userSpaceOnUse">
<stop stop-color="#FF9100" stop-opacity="0"/>
<stop offset="1" stop-color="#FF9100"/>
</linearGradient>
<linearGradient id="paint16_linear" x1="14.1286" y1="33.6852" x2="32.5372" y2="13.884" gradientUnits="userSpaceOnUse">
<stop stop-color="#FF9100" stop-opacity="0"/>
<stop offset="1" stop-color="#FF9100"/>
</linearGradient>
<linearGradient id="paint17_linear" x1="8.03155" y1="37.67" x2="27.6587" y2="13.9521" gradientUnits="userSpaceOnUse">
<stop stop-color="#FF9100" stop-opacity="0"/>
<stop offset="1" stop-color="#FF9100"/>
</linearGradient>
<linearGradient id="paint18_linear" x1="1.90851" y1="39.3132" x2="16.3569" y2="25.3" gradientUnits="userSpaceOnUse">
<stop stop-color="#FF9100" stop-opacity="0"/>
<stop offset="1" stop-color="#FF9100"/>
</linearGradient>
<linearGradient id="paint19_linear" x1="10.2039" y1="37.7904" x2="3.73433" y2="44.26" gradientUnits="userSpaceOnUse">
<stop stop-color="#FF9100" stop-opacity="0"/>
<stop offset="1" stop-color="#FF9100"/>
</linearGradient>
<clipPath id="clip0">
<rect width="48" height="48" fill="white"/>
</clipPath>
</defs>
</svg>
