<?xml version="1.0" encoding="utf-8"?>
<!-- Generator: Adobe Illustrator 23.0.1, SVG Export Plug-In . SVG Version: 6.00 Build 0)  -->
<svg version="1.1" id="Слой_1" xmlns="http://www.w3.org/2000/svg" xmlns:xlink="http://www.w3.org/1999/xlink" x="0px" y="0px"
	 viewBox="0 0 100 100" style="enable-background:new 0 0 100 100;" xml:space="preserve">
<style type="text/css">
	.st0{fill:#FED841;}
	.st1{fill:#BF5C15;}
	.st2{fill:#FF1F2E;}
	.st3{fill:#6EBD21;}
</style>
<path class="st0" d="M90.1,48.1H50V11.8c0,0,7.8-13.2,30.9,7.8C94.6,35.3,90.1,48.1,90.1,48.1z"/>
<path class="st1" d="M84.8,15.2C75.9,6.9,63.2,0.5,50,1l0,10.8c2.5-0.7,4-3.3,6.5-3.3c2.6,0,4.9,2.6,7.3,3.3c2.5,0.6,5.7-0.5,8,0.7
	c2.2,1.2,2.9,4.6,4.7,6.4c1.8,1.7,5.3,2.3,6.6,4.5c0.5,0.8,1.2,6.6,2.3,8c0.9,1.5,4.5,5.5,4.8,6.9c0.5,2.4-1.2,8.9-1,9.8H99
	C98.5,38.7,94.6,24.5,84.8,15.2z"/>
<path class="st2" d="M76,28.2c-0.6-3.1-3.6-5.2-6.7-4.6c-3.1,0.5-5.2,3.4-4.7,6.5c0.6,3.1,3.6,5.2,6.7,4.6
	C74.5,34.1,76.6,31.2,76,28.2z"/>
<path class="st2" d="M49.6,25.4l0.3,9.9c2.8-0.1,5-2.4,4.9-5.1C54.6,27.6,52.3,25.4,49.6,25.4z"/>
<path class="st3" d="M54.8,38l2.6-0.7l0.7,2.5l-2.6,0.7L54.8,38z"/>
<path class="st3" d="M55.5,40.5L55.5,40.5l2.6-0.7l-0.7-2.5L55.5,40.5z"/>
<path class="st3" d="M81.3,38l2.6-0.7l0.7,2.5l-2.6,0.7L81.3,38z"/>
<path class="st3" d="M54.6,16.4l2.6-0.7l0.7,2.5l-2.6,0.7L54.6,16.4z"/>
<path class="st0" d="M50,90.2l0-42.1h39.2c0,0,9.9,9.6-11.2,32.7C62.4,94.5,50,90.2,50,90.2z"/>
<path class="st2" d="M54.9,65.7c0-2.9-2-4.9-4.9-4.9v9.8C52.9,70.6,54.9,67.6,54.9,65.7z"/>
<path class="st1" d="M86.7,82.3C93.6,75,99.5,61.3,99,48.1l-9.9,0c0.7,2.5,0,5.8,0,8.3c0,2.6-2.6,4.9-3.2,7.3
	c-0.6,2.5,0.5,5.7-0.7,8c-1.2,2.2-4.6,2.9-6.4,4.7c-1.7,1.8-2.3,5.3-4.5,6.6c-0.8,0.5-6.6,1.2-8,2.3c-1.5,0.9-5.5,4.5-6.9,4.8
	c-2.4,0.6-8.6-1.1-9.4-0.9V99C66.3,98.5,77,92.6,86.7,82.3z"/>
<path class="st2" d="M69.5,76c3.1-0.6,5.1-3.6,4.6-6.7c-0.5-3.1-3.4-5.2-6.5-4.6c-3.1,0.6-5.1,3.6-4.6,6.7
	C63.5,74.5,66.4,76.5,69.5,76z"/>
<path class="st2" d="M67.8,54.8c3.4-0.6,5.7-3.9,5.1-7.4c-0.6-3.5-3.8-5.8-7.2-5.1c-3.4,0.6-5.7,3.9-5.1,7.4
	C61.2,53.1,64.4,55.4,67.8,54.8z"/>
<path class="st3" d="M59.6,54.7l0.7,2.5L57.8,58l-0.7-2.6L59.6,54.7z"/>
<path class="st3" d="M57.1,55.5L57.1,55.5l0.7,2.6l2.5-0.7L57.1,55.5z"/>
<path class="st3" d="M59.7,81.3l0.7,2.6l-2.5,0.7L57.2,82L59.7,81.3z"/>
<path class="st3" d="M81.2,54.5l0.7,2.5l-2.5,0.7l-0.7-2.6L81.2,54.5z"/>
<path class="st0" d="M9.8,48.1H50V11.8c0,0-7.8-13.2-30.9,7.8C5.4,35.3,9.8,48.1,9.8,48.1z"/>
<path class="st1" d="M15.2,15.2C24.1,6.9,36.8,0.5,50,1l0,10.8c-2.5-0.7-4-3.3-6.5-3.3c-2.6,0-4.9,2.6-7.3,3.3
	c-2.5,0.6-5.7-0.5-8,0.7c-2.2,1.2-2.9,4.6-4.7,6.4c-1.8,1.7-5.3,2.3-6.6,4.5c-0.5,0.8-1.2,6.6-2.3,8c-0.9,1.5-4.5,5.5-4.8,6.9
	c-0.5,2.4,1.2,8.9,1,9.8H1C1.5,38.7,5.4,24.5,15.2,15.2z"/>
<path class="st2" d="M24,28.2c0.6-3.1,3.6-5.2,6.7-4.6c3.1,0.5,5.2,3.4,4.7,6.5c-0.6,3.1-3.6,5.2-6.7,4.6
	C25.5,34.1,23.4,31.2,24,28.2z"/>
<path class="st2" d="M50.4,25.4l-0.3,9.9c-2.8-0.1-5-2.4-4.9-5.1C45.4,27.6,47.7,25.4,50.4,25.4z"/>
<path class="st3" d="M45.2,38l-2.6-0.7l-0.7,2.5l2.6,0.7L45.2,38z"/>
<path class="st3" d="M44.5,40.5L44.5,40.5l-2.6-0.7l0.7-2.5L44.5,40.5z"/>
<path class="st3" d="M18.7,38l-2.6-0.7l-0.7,2.5l2.6,0.7L18.7,38z"/>
<path class="st3" d="M45.4,16.4l-2.6-0.7l-0.7,2.5l2.6,0.7L45.4,16.4z"/>
<path class="st0" d="M50,90.2l0-42.1H10.8c0,0-9.9,9.6,11.2,32.7C37.6,94.5,50,90.2,50,90.2z"/>
<path class="st2" d="M45.1,65.7c0-2.9,2-4.9,4.9-4.9v9.8C47.1,70.6,45.1,67.6,45.1,65.7z"/>
<path class="st1" d="M13.3,82.3C6.4,75,0.5,61.3,1,48.1l9.9,0c-0.7,2.5,0,5.8,0,8.3c0,2.6,2.6,4.9,3.2,7.3c0.6,2.5-0.5,5.7,0.7,8
	c1.2,2.2,4.6,2.9,6.4,4.7c1.7,1.8,2.3,5.3,4.5,6.6c0.8,0.5,6.6,1.2,8,2.3c1.5,0.9,5.5,4.5,6.9,4.8c2.4,0.6,8.6-1.1,9.4-0.9V99
	C33.7,98.5,23,92.6,13.3,82.3z"/>
<path class="st2" d="M30.5,76c-3.1-0.6-5.1-3.6-4.6-6.7c0.5-3.1,3.4-5.2,6.5-4.6c3.1,0.6,5.1,3.6,4.6,6.7
	C36.5,74.5,33.6,76.5,30.5,76z"/>
<path class="st2" d="M32.2,54.8c-3.4-0.6-5.7-3.9-5.1-7.4s3.8-5.8,7.2-5.1s5.7,3.9,5.1,7.4C38.8,53.1,35.6,55.4,32.2,54.8z"/>
<path class="st3" d="M40.4,54.7l-0.7,2.5l2.5,0.7l0.7-2.6L40.4,54.7z"/>
<path class="st3" d="M42.9,55.5L42.9,55.5L42.2,58l-2.5-0.7L42.9,55.5z"/>
<path class="st3" d="M40.3,81.3l-0.7,2.6l2.5,0.7l0.7-2.5L40.3,81.3z"/>
<path class="st3" d="M18.8,54.5L18.1,57l2.5,0.7l0.7-2.6L18.8,54.5z"/>
</svg>
