<svg width="44" height="32" viewBox="0 0 44 32" fill="none" xmlns="http://www.w3.org/2000/svg">
<path d="M41.5518 14.6475H2.44816C1.09608 14.6475 0 15.7626 0 17.1383V29.509C0 30.8847 1.09608 31.9999 2.44816 31.9999H41.5518C42.9039 31.9999 44 30.8847 44 29.509V17.1383C44 15.7626 42.9039 14.6475 41.5518 14.6475Z" fill="#48B26B"/>
<path d="M40.357 15.7427H3.66359C2.6143 15.7427 1.76367 16.6081 1.76367 17.6757V28.973C1.76367 30.0406 2.6143 30.906 3.66359 30.906H40.357C41.4062 30.906 42.2569 30.0406 42.2569 28.973V17.6757C42.2569 16.6081 41.4062 15.7427 40.357 15.7427Z" fill="#E0F9DC"/>
<path d="M4.60512 15.5893C4.49318 15.5906 4.3844 15.5516 4.298 15.4792C4.25947 15.4482 4.22849 15.4085 4.20747 15.3634C4.18645 15.3182 4.17595 15.2687 4.17681 15.2187C4.17766 15.1687 4.18983 15.1196 4.21238 15.0752C4.23492 15.0308 4.26724 14.9922 4.3068 14.9626L21.5398 0.691035C21.6254 0.624456 21.73 0.588379 21.8377 0.588379C21.9454 0.588379 22.0501 0.624456 22.1356 0.691035L39.3414 14.8373C39.381 14.8668 39.4135 14.9052 39.4362 14.9495C39.4589 14.9938 39.4712 15.0429 39.4723 15.0929C39.4733 15.1429 39.463 15.1924 39.4421 15.2377C39.4212 15.283 39.3904 15.3227 39.3519 15.3539C39.2666 15.4243 39.1605 15.4634 39.0507 15.4651C38.9409 15.4667 38.8337 15.4307 38.7465 15.3628L21.8399 1.46102L4.90432 15.4864C4.81905 15.5544 4.71348 15.5907 4.60512 15.5893Z" fill="#48B26B"/>
<path d="M21.7094 2.34576C22.4691 2.34576 23.0849 1.82065 23.0849 1.17288C23.0849 0.525118 22.4691 0 21.7094 0C20.9498 0 20.334 0.525118 20.334 1.17288C20.334 1.82065 20.9498 2.34576 21.7094 2.34576Z" fill="#48B26B"/>
<path d="M13.7454 18.2002C14.0377 18.2 14.3272 18.2584 14.5972 18.3723C14.8672 18.4862 15.1125 18.6532 15.319 18.8637C15.5254 19.0743 15.689 19.3242 15.8002 19.5992C15.9115 19.8742 15.9683 20.1689 15.9674 20.4663V25.6225C15.9676 26.0698 15.8374 26.5071 15.5932 26.8791C15.349 27.251 15.0018 27.5409 14.5956 27.7119C14.1893 27.883 13.7423 27.9275 13.3112 27.8399C12.8801 27.7523 12.4842 27.5365 12.1737 27.2198C11.9648 27.0114 11.7998 26.7619 11.6889 26.4865C11.578 26.2111 11.5235 25.9156 11.5287 25.618V20.4663C11.528 19.8675 11.761 19.2929 12.1765 18.8688C12.592 18.4447 13.156 18.2059 13.7445 18.2047L13.7454 18.2002ZM14.5075 20.4314C14.5085 20.3242 14.4886 20.2179 14.4487 20.1186C14.4089 20.0194 14.35 19.9293 14.2755 19.8535C14.201 19.7777 14.1124 19.7178 14.0149 19.6773C13.9174 19.6367 13.8129 19.6164 13.7075 19.6175C13.6017 19.6163 13.4968 19.6367 13.3988 19.6774C13.3009 19.7182 13.212 19.7785 13.1373 19.8548C13.0608 19.929 13.0003 20.0186 12.9595 20.1178C12.9188 20.2171 12.8987 20.3238 12.9006 20.4314V25.6028C12.8987 25.7103 12.9188 25.8171 12.9595 25.9163C13.0003 26.0156 13.0608 26.1051 13.1373 26.1794C13.2117 26.2561 13.3006 26.3166 13.3986 26.3574C13.4966 26.3982 13.6017 26.4183 13.7075 26.4166C13.8129 26.4177 13.9174 26.3974 14.0149 26.3569C14.1124 26.3164 14.201 26.2565 14.2755 26.1807C14.35 26.1049 14.4089 26.0147 14.4487 25.9155C14.4886 25.8163 14.5085 25.71 14.5075 25.6028V20.4314Z" fill="#48B26B"/>
<path d="M19.412 18.3174C20.0931 18.3174 20.6364 18.5361 21.0418 18.9737C21.4167 19.3915 21.6041 19.9239 21.6041 20.5709V21.9435C21.6089 22.2399 21.5546 22.5343 21.4445 22.8088C21.3343 23.0833 21.1707 23.3323 20.9635 23.5407C20.764 23.7545 20.5232 23.9238 20.2561 24.038C19.9891 24.1522 19.7017 24.2088 19.412 24.2042H18.6042V27.7622H17.2041V18.3174H19.412ZM20.2489 20.5942C20.2536 20.4851 20.2367 20.3762 20.1993 20.2739C20.1618 20.1717 20.1044 20.0781 20.0307 19.9988C19.9543 19.9223 19.8632 19.8627 19.7631 19.8237C19.663 19.7848 19.556 19.7672 19.449 19.7723H18.6042V22.7949H19.4481C19.5538 22.7967 19.6587 22.7762 19.7562 22.7348C19.8537 22.6933 19.9418 22.6318 20.0148 22.5541C20.0899 22.478 20.1493 22.3874 20.1893 22.2876C20.2294 22.1878 20.2493 22.0808 20.248 21.973L20.2489 20.5942Z" fill="#48B26B"/>
<path d="M22.7227 27.7658V18.3174H26.7091V19.7499H24.1227V22.3276H26.0121V23.7601H24.1227V26.3386H26.7091V27.7712L22.7227 27.7658Z" fill="#48B26B"/>
<path d="M29.2444 18.3174L31.1021 24.6698V18.3174H32.5031V27.7658H30.9992L29.072 21.7134V27.7658H27.6719V18.3174H29.2444Z" fill="#48B26B"/>
</svg>
