<svg width="40" height="40" viewBox="0 0 40 40" fill="none" xmlns="http://www.w3.org/2000/svg">
<g clip-path="url(#clip0)">
<path d="M14.667 25.746L16.6987 14.3174H19.8733L17.9051 25.746H14.667Z" fill="#3C58BF"/>
<path d="M14.667 25.746L17.2702 14.3174H19.8733L17.9051 25.746H14.667Z" fill="#293688"/>
<path d="M29.3969 14.4445C28.762 14.1906 27.7461 13.9366 26.4763 13.9366C23.3017 13.9366 21.0159 15.5239 21.0159 17.8096C21.0159 19.5239 22.6033 20.4128 23.8731 20.9842C25.1429 21.5556 25.5239 21.9366 25.5239 22.4445C25.5239 23.2064 24.508 23.5874 23.6191 23.5874C22.3493 23.5874 21.6509 23.3969 20.5715 22.9525L20.1271 22.762L19.6826 25.3652C20.4445 25.6826 21.8413 26.0001 23.3017 26.0001C26.6667 26.0001 28.889 24.4128 28.889 22.0001C28.889 20.6667 28.0636 19.6509 26.1588 18.8255C25.016 18.254 24.3175 17.9366 24.3175 17.3652C24.3175 16.8572 24.889 16.3493 26.1588 16.3493C27.2382 16.3493 28.0001 16.5398 28.5715 16.7937L28.889 16.9207L29.3969 14.4445Z" fill="#3C58BF"/>
<path d="M29.3969 14.4445C28.762 14.1906 27.7461 13.9366 26.4763 13.9366C23.3017 13.9366 21.5874 15.5239 21.5874 17.8096C21.5874 19.5239 22.6033 20.4128 23.8731 20.9842C25.1429 21.5556 25.5239 21.9366 25.5239 22.4445C25.5239 23.2064 24.508 23.5874 23.6191 23.5874C22.3493 23.5874 21.6509 23.3969 20.5715 22.9525L20.1271 22.762L19.6826 25.3652C20.4445 25.6826 21.8413 26.0001 23.3017 26.0001C26.6667 26.0001 28.889 24.4128 28.889 22.0001C28.889 20.6667 28.0636 19.6509 26.1588 18.8255C25.016 18.254 24.3175 17.9366 24.3175 17.3652C24.3175 16.8572 24.889 16.3493 26.1588 16.3493C27.2382 16.3493 28.0001 16.5398 28.5715 16.7937L28.889 16.9207L29.3969 14.4445Z" fill="#293688"/>
<path d="M34.8575 14.3174C34.0956 14.3174 33.5242 14.3809 33.2067 15.1428L28.4448 25.746H31.8734L32.5083 23.8412H36.5718L36.9528 25.746H40.0004L37.3337 14.3174H34.8575ZM33.3972 21.9364C33.5877 21.365 34.667 18.5714 34.667 18.5714C34.667 18.5714 34.921 17.8729 35.1115 17.4285L35.302 18.5079C35.302 18.5079 35.9369 21.365 36.0639 21.9999H33.3972V21.9364Z" fill="#3C58BF"/>
<path d="M35.6194 14.3174C34.8575 14.3174 34.2861 14.3809 33.9686 15.1428L28.4448 25.746H31.8734L32.5083 23.8412H36.5718L36.9528 25.746H40.0004L37.3337 14.3174H35.6194ZM33.3972 21.9364C33.6512 21.3015 34.667 18.5714 34.667 18.5714C34.667 18.5714 34.921 17.8729 35.1115 17.4285L35.302 18.5079C35.302 18.5079 35.9369 21.365 36.0639 21.9999H33.3972V21.9364Z" fill="#293688"/>
<path d="M8.82489 22.3175L8.50743 20.6667C7.936 18.762 6.09473 16.6668 4.06299 15.6509L6.92013 25.8096H10.3487L15.4916 14.381H12.063L8.82489 22.3175Z" fill="#3C58BF"/>
<path d="M8.82489 22.3175L8.50743 20.6667C7.936 18.762 6.09473 16.6668 4.06299 15.6509L6.92013 25.8096H10.3487L15.4916 14.381H12.6979L8.82489 22.3175Z" fill="#293688"/>
<path d="M0 14.3174L0.571429 14.4444C4.63492 15.3967 7.42857 17.8094 8.50794 20.6666L7.36508 15.2698C7.1746 14.5079 6.60318 14.3174 5.90476 14.3174H0Z" fill="#FFBC00"/>
<path d="M0 14.3174C4.06349 15.2698 7.42857 17.746 8.50794 20.6031L7.42857 16.0952C7.2381 15.3333 6.60318 14.8888 5.90476 14.8888L0 14.3174Z" fill="#F7981D"/>
<path d="M0 14.3174C4.06349 15.2698 7.42857 17.746 8.50794 20.6031L7.74603 18.1269C7.55556 17.365 7.30159 16.6031 6.4127 16.2856L0 14.3174Z" fill="#ED7C00"/>
<path d="M12 21.9365L9.84124 19.7778L8.82537 22.1905L8.5714 20.6032C7.99997 18.6984 6.1587 16.6032 4.12695 15.5873L6.9841 25.746H10.4127L12 21.9365Z" fill="#051244"/>
<path d="M17.9051 25.746L15.1749 22.9523L14.667 25.746H17.9051Z" fill="#051244"/>
<path d="M25.2064 21.8094C25.4604 22.0634 25.5874 22.2539 25.5239 22.5079C25.5239 23.2698 24.508 23.6507 23.6191 23.6507C22.3493 23.6507 21.6509 23.4602 20.5715 23.0158L20.1271 22.8253L19.6826 25.4285C20.4445 25.746 21.8413 26.0634 23.3017 26.0634C25.3334 26.0634 26.9842 25.492 27.9366 24.4761L25.2064 21.8094Z" fill="#051244"/>
<path d="M28.8887 25.746H31.8728L32.5077 23.8412H36.5712L36.9522 25.746H39.9998L38.9204 21.1111L35.1109 17.4285L35.3014 18.4444C35.3014 18.4444 35.9363 21.3015 36.0633 21.9365H33.3966C33.6506 21.3015 34.6664 18.5714 34.6664 18.5714C34.6664 18.5714 34.9204 17.873 35.1109 17.4285" fill="#051244"/>
</g>
<defs>
<clipPath id="clip0">
<rect width="40" height="40" fill="white"/>
</clipPath>
</defs>
</svg>
