<svg width="30" height="30" viewBox="0 0 30 30" fill="none" xmlns="http://www.w3.org/2000/svg">
<g clip-path="url(#clip0)">
<path d="M13.7382 5.91268C15.3693 5.91268 16.6944 4.58907 16.6944 2.95637C16.6944 1.32318 15.3693 0 13.7382 0C12.1053 0 10.7812 1.32318 10.7812 2.95637C10.7812 4.58907 12.1053 5.91268 13.7382 5.91268Z" fill="white"/>
<path d="M18.3073 22.6653C17.5217 25.393 15.0071 27.3962 12.0298 27.3962C8.42438 27.3962 5.49234 24.464 5.49234 20.8597C5.49234 18.1916 7.10194 15.8952 9.399 14.8805V12.1094C5.63723 13.2424 2.88867 16.7344 2.88867 20.8597C2.88867 25.8995 6.98931 30.0002 12.0297 30.0002C15.703 30.0002 18.8691 27.8171 20.3208 24.6848L19.2887 22.6569C18.9989 22.6593 18.6633 22.6624 18.3073 22.6653Z" fill="white"/>
<path d="M26.9211 26.1741L22.9612 18.3888C22.6657 17.8063 22.0682 17.4396 21.4146 17.4396H16.3428V16.2831H20.7078C21.1437 16.2831 21.51 16.0553 21.7467 15.7271C21.9005 15.5133 22.0099 15.265 22.0099 14.981C22.0099 14.2621 21.4276 13.679 20.7078 13.679H18.0781H16.3428V9.75638C16.3428 8.67754 15.5429 7.15234 13.7397 7.15234C12.3016 7.15234 11.1357 8.31838 11.1357 9.75638V18.2551C11.1357 19.7221 12.325 20.9114 13.7921 20.9114H18.5646H20.3503L23.8275 27.7482C24.1331 28.3503 24.7429 28.6978 25.3757 28.6978C25.641 28.6978 25.91 28.6372 26.1613 28.5085C27.0171 28.0744 27.357 27.0287 26.9211 26.1741Z" fill="white"/>
</g>
<defs>
<clipPath id="clip0">
<rect width="30" height="30" fill="white"/>
</clipPath>
</defs>
</svg>
