<svg width="24" height="24" viewBox="0 0 24 24" fill="none" xmlns="http://www.w3.org/2000/svg">
<g clip-path="url(#clip0)">
<path d="M10.3821 22.5937H7.78135C7.39304 22.5937 7.07823 22.9086 7.07823 23.2969C7.07823 23.6852 7.39304 24 7.78135 24H16.2189C16.6072 24 16.922 23.6852 16.922 23.2969C16.922 22.9086 16.6072 22.5937 16.2189 22.5937H13.6182C14.4938 21.6522 15.763 20.2113 17.0044 18.5294C19.7211 14.8491 21.0985 11.6901 21.0985 9.14054C21.0985 4.12516 17.0185 0.0247033 12.0036 0C12.0013 0 11.9989 0 11.9967 0C6.98171 0.0247033 2.90173 4.12516 2.90173 9.14054C2.90173 11.6902 4.27921 14.8491 6.99587 18.5294C8.23726 20.2113 9.50641 21.6522 10.3821 22.5937ZM12.0001 1.40626C16.2421 1.42885 19.6923 4.89776 19.6923 9.14054C19.6923 11.3515 18.3716 14.3093 15.873 17.6943C14.3428 19.7674 12.7739 21.458 12.0001 22.2569C11.2264 21.458 9.65749 19.7674 8.12725 17.6943C5.62866 14.3093 4.30799 11.3515 4.30799 9.14054C4.30799 4.89776 7.75815 1.42885 12.0001 1.40626Z" fill="#4A4A4A"/>
<path d="M18.3281 9.14066C18.3281 5.65131 15.4893 2.8125 11.9999 2.8125C8.51057 2.8125 5.67175 5.65131 5.67175 9.14066C5.67175 12.63 8.51057 15.4688 11.9999 15.4688C15.4893 15.4688 18.3281 12.6301 18.3281 9.14066ZM9.89053 13.5871V13.3595C9.89053 12.1964 10.8368 11.2501 11.9999 11.2501C13.163 11.2501 14.1093 12.1964 14.1093 13.3595V13.5871C13.4696 13.8918 12.7544 14.0626 11.9999 14.0626C11.2455 14.0626 10.5302 13.8918 9.89053 13.5871ZM7.07801 9.14066C7.07801 6.42672 9.28598 4.21876 11.9999 4.21876C14.7139 4.21876 16.9218 6.42672 16.9218 9.14066C16.9218 10.5149 16.3555 11.7591 15.4442 12.6529C15.1163 11.0519 13.6965 9.84379 11.9999 9.84379C10.3033 9.84379 8.88355 11.0518 8.55561 12.6529C7.64436 11.7592 7.07801 10.5149 7.07801 9.14066Z" fill="#4A4A4A"/>
<path d="M14.1094 7.73437C14.1094 6.57126 13.1631 5.625 12 5.625C10.8369 5.625 9.89062 6.57126 9.89062 7.73437C9.89062 8.89748 10.8369 9.84374 12 9.84374C13.1631 9.84374 14.1094 8.89753 14.1094 7.73437ZM12 8.43749C11.6123 8.43749 11.2969 8.12207 11.2969 7.73437C11.2969 7.34667 11.6123 7.03125 12 7.03125C12.3877 7.03125 12.7031 7.34667 12.7031 7.73437C12.7031 8.12207 12.3877 8.43749 12 8.43749Z" fill="#4A4A4A"/>
</g>
<defs>
<clipPath id="clip0">
<rect width="24" height="24" fill="white"/>
</clipPath>
</defs>
</svg>
