<svg width="15" height="15" viewBox="0 0 15 15" fill="none" xmlns="http://www.w3.org/2000/svg">
<g clip-path="url(#clip0)">
<path d="M14.9711 8.19289C14.8364 6.83824 14.2312 5.56114 13.2669 4.59682C12.4428 3.77277 11.4342 3.24322 10.3729 3.00776V2.26337C10.8063 2.15553 11.1286 1.76315 11.1286 1.29677C11.1286 0.747502 10.6817 0.300659 10.1325 0.300659H8.02304C7.47378 0.300659 7.02694 0.747502 7.02694 1.29677C7.02694 1.76312 7.34915 2.1555 7.7826 2.26337V3.00984C6.72453 3.2463 5.71922 3.77512 4.89749 4.59685C4.71766 4.77668 4.55184 4.96532 4.40005 5.16138C4.3927 5.16082 4.38534 5.16027 4.37784 5.16027H2.29008C2.1283 5.16027 1.99711 5.29143 1.99711 5.45324C1.99711 5.61505 2.1283 5.74621 2.29008 5.74621H4.0014C3.78659 6.10584 3.61339 6.48351 3.48155 6.87228H0.292973C0.131193 6.87228 0 7.00345 0 7.16526C0 7.32707 0.131193 7.45823 0.292973 7.45823H3.31599C3.23155 7.82887 3.1831 8.20607 3.17059 8.58433H1.87503C1.71325 8.58433 1.58206 8.7155 1.58206 8.87731C1.58206 9.03911 1.71325 9.17028 1.87503 9.17028H3.17993C3.20466 9.5495 3.26563 9.92674 3.36286 10.2964H1.46487C1.30309 10.2964 1.17189 10.4275 1.17189 10.5894C1.17189 10.7512 1.30309 10.8823 1.46487 10.8823H3.54984C3.83725 11.6426 4.2864 12.3552 4.89749 12.9663C5.86272 13.9315 7.14114 14.5369 8.49719 14.6709C8.69073 14.69 8.88442 14.6994 9.07784 14.6994C10.2211 14.6994 11.3498 14.3686 12.3075 13.7449C12.4431 13.6566 12.4815 13.4751 12.3932 13.3395C12.3048 13.2039 12.1234 13.1656 11.9878 13.2539C9.89134 14.619 7.08368 14.3239 5.31181 12.552C3.23281 10.473 3.23281 7.09023 5.31181 5.0112C7.39078 2.93223 10.7735 2.93223 12.8526 5.0112C14.6221 6.78076 14.9189 9.58601 13.5582 11.6814C13.4701 11.8171 13.5087 11.9986 13.6444 12.0867C13.7801 12.1748 13.9615 12.1362 14.0496 12.0005C14.7766 10.8809 15.1039 9.5287 14.9711 8.19289ZM7.61288 1.2968C7.61288 1.07062 7.79687 0.886635 8.02304 0.886635H10.1325C10.3586 0.886635 10.5426 1.07062 10.5426 1.2968C10.5426 1.52297 10.3586 1.70696 10.1325 1.70696H10.0799H8.07557H8.02304C7.79687 1.70696 7.61288 1.52294 7.61288 1.2968ZM8.36855 2.90912V2.29291H9.78692V2.90806C9.31594 2.85205 8.83944 2.8524 8.36855 2.90912Z" fill="#D60B52"/>
<path d="M13.0599 12.4661C12.9826 12.4661 12.9073 12.4974 12.8528 12.5519C12.7981 12.6064 12.767 12.682 12.767 12.759C12.767 12.8361 12.7981 12.9117 12.8528 12.9662C12.9073 13.0209 12.9826 13.052 13.0599 13.052C13.137 13.052 13.2123 13.0209 13.2671 12.9662C13.3216 12.9117 13.3529 12.8361 13.3529 12.759C13.3529 12.682 13.3216 12.6064 13.2671 12.5519C13.2123 12.4974 13.137 12.4661 13.0599 12.4661Z" fill="#D60B52"/>
<path d="M9.08222 4.23663C6.57618 4.23663 4.53735 6.27544 4.53735 8.7815C4.53735 11.2876 6.57618 13.3264 9.08222 13.3264C11.5883 13.3264 13.6271 11.2876 13.6271 8.7815C13.6271 6.27544 11.5883 4.23663 9.08222 4.23663ZM9.08222 12.7404C6.89925 12.7404 5.1233 10.9644 5.1233 8.7815C5.1233 6.59856 6.89925 4.82258 9.08222 4.82258C11.2652 4.82258 13.0411 6.59856 13.0411 8.7815C13.0411 10.9644 11.2652 12.7404 9.08222 12.7404Z" fill="#D60B52"/>
<path d="M10.9355 6.51397L9.48438 7.96503C9.36303 7.90503 9.22653 7.87114 9.08225 7.87114C8.93793 7.87114 8.80146 7.90503 8.68011 7.96503L8.03067 7.3156C7.91624 7.20119 7.73079 7.20119 7.61632 7.3156C7.50192 7.43001 7.50192 7.61552 7.61632 7.72992L8.26576 8.37936C8.20573 8.50071 8.17186 8.6372 8.17186 8.78149C8.17186 9.28347 8.58024 9.69188 9.08225 9.69188C9.58426 9.69188 9.99263 9.28347 9.99263 8.78149C9.99263 8.6372 9.95873 8.50071 9.89873 8.37936L11.3072 6.97086L11.3498 6.92829C11.4642 6.81388 11.4642 6.62837 11.3498 6.51397C11.2354 6.39956 11.0499 6.39956 10.9355 6.51397ZM9.08225 9.10596C8.90336 9.10596 8.75781 8.96041 8.75781 8.78152C8.75781 8.60263 8.90336 8.45708 9.08225 8.45708C9.26114 8.45708 9.40668 8.60263 9.40668 8.78152C9.40668 8.96041 9.26114 9.10596 9.08225 9.10596Z" fill="#D60B52"/>
<path d="M12.2146 8.49213H11.9431C11.7813 8.49213 11.6501 8.62329 11.6501 8.78509C11.6501 8.9469 11.7813 9.07806 11.9431 9.07806H12.2146C12.3763 9.07806 12.5075 8.9469 12.5075 8.78509C12.5075 8.62329 12.3763 8.49213 12.2146 8.49213Z" fill="#D60B52"/>
<path d="M6.22111 8.48505H5.94971C5.78793 8.48505 5.65674 8.61621 5.65674 8.77801C5.65674 8.93982 5.78793 9.07098 5.94971 9.07098H6.22111C6.38289 9.07098 6.51408 8.93982 6.51408 8.77801C6.51408 8.61621 6.38289 8.48505 6.22111 8.48505Z" fill="#D60B52"/>
<path d="M9.08582 6.21354C9.24759 6.21354 9.37878 6.08238 9.37878 5.92058V5.64917C9.37878 5.48736 9.24759 5.3562 9.08582 5.3562C8.92404 5.3562 8.79285 5.48736 8.79285 5.64917V5.92058C8.79285 6.08238 8.92404 6.21354 9.08582 6.21354Z" fill="#D60B52"/>
<path d="M9.07861 11.3495C8.91684 11.3495 8.78564 11.4807 8.78564 11.6425V11.9139C8.78564 12.0757 8.91684 12.2069 9.07861 12.2069C9.24039 12.2069 9.37158 12.0757 9.37158 11.9139V11.6425C9.37158 11.4807 9.24039 11.3495 9.07861 11.3495Z" fill="#D60B52"/>
<path d="M0.292969 10.2963C0.215918 10.2963 0.140332 10.3277 0.0858398 10.3822C0.0313477 10.4367 0 10.5122 0 10.5893C0 10.6666 0.0313184 10.7419 0.0858398 10.7964C0.140361 10.8509 0.215918 10.8823 0.292969 10.8823C0.37002 10.8823 0.445605 10.8509 0.500068 10.7964C0.554561 10.7419 0.585938 10.6663 0.585938 10.5893C0.585938 10.5122 0.55459 10.4367 0.500068 10.3822C0.445605 10.3277 0.37002 10.2963 0.292969 10.2963Z" fill="#D60B52"/>
</g>
<defs>
<clipPath id="clip0">
<rect width="15" height="15" fill="white"/>
</clipPath>
</defs>
</svg>
