<svg width="24" height="24" viewBox="0 0 24 24" fill="none" xmlns="http://www.w3.org/2000/svg">
<path d="M23.5583 0.438873C22.9732 -0.146291 22.0347 -0.146291 21.4495 0.438873L11.9986 9.88982L2.54767 0.438873C1.96251 -0.146291 1.02404 -0.146291 0.438872 0.438873C-0.146291 1.02404 -0.146291 1.96251 0.438872 2.54767L9.88981 11.9986L0.438872 21.4496C-0.146291 22.0347 -0.146291 22.9732 0.438872 23.5584C0.725934 23.8454 1.11236 24 1.48775 24C1.86314 24 2.24957 23.8565 2.53663 23.5584L11.9876 14.1074L21.4385 23.5584C21.7256 23.8454 22.112 24 22.4874 24C22.8738 24 23.2492 23.8565 23.5363 23.5584C24.1214 22.9732 24.1214 22.0347 23.5363 21.4496L14.1074 11.9986L23.5583 2.54767C24.1435 1.96251 24.1435 1.02404 23.5583 0.438873Z" fill="white"/>
</svg>
