<svg width="16" height="16" viewBox="0 0 16 16" fill="none" xmlns="http://www.w3.org/2000/svg">
<g clip-path="url(#clip0)">
<path d="M14.2523 4.24931C13.5619 4.24931 13.0021 4.80905 13.0021 5.4995C13.0024 5.63057 13.0235 5.76075 13.0646 5.88519L12.0507 6.52967C11.3831 6.95501 10.503 6.81404 10.0016 6.2015L9.00775 4.98571C9.16592 4.77277 9.25142 4.5146 9.25154 4.24934C9.25154 3.55889 8.6918 2.99915 8.00135 2.99915C7.31089 2.99915 6.75115 3.55889 6.75115 4.24934C6.75127 4.5146 6.83677 4.77277 6.99494 4.98571L6.00104 6.2015C5.49979 6.81369 4.62005 6.95463 3.95263 6.52967L2.93816 5.88519C2.97933 5.76075 3.00043 5.63057 3.00066 5.4995C3.00078 4.80905 2.44116 4.24922 1.75067 4.2491C1.06025 4.24899 0.500422 4.80864 0.500305 5.49909C0.500188 6.14723 0.995436 6.68799 1.64109 6.74468L2.37995 11.1766C2.405 11.3273 2.53533 11.4378 2.68811 11.4379H13.3147C13.4675 11.4378 13.5978 11.3273 13.6228 11.1766L14.3617 6.74468C15.0494 6.68301 15.5569 6.0755 15.4952 5.38781C15.4375 4.74409 14.8986 4.25051 14.2523 4.24931Z" fill="white"/>
<path d="M8.00138 12.6882C10.9358 12.6882 13.3146 11.9885 13.3146 11.1255C13.3146 10.2624 10.9358 9.56274 8.00138 9.56274C5.06694 9.56274 2.68811 10.2624 2.68811 11.1255C2.68811 11.9885 5.06694 12.6882 8.00138 12.6882Z" fill="#FFA000"/>
<path d="M8.0015 13.0009C5.20546 13.0009 2.37567 12.3571 2.37567 11.1256C2.37567 9.8942 5.20546 9.25037 8.0015 9.25037C10.7975 9.25037 13.6273 9.8942 13.6273 11.1256C13.6273 12.3571 10.7975 13.0009 8.0015 13.0009ZM8.0015 9.87545C4.7185 9.87545 3.00075 10.6881 3.00075 11.1256C3.00075 11.5632 4.7185 12.3758 8.0015 12.3758C11.2845 12.3758 13.0022 11.5632 13.0022 11.1256C13.0022 10.6881 11.2845 9.87545 8.0015 9.87545Z" fill="#F7F6F3"/>
</g>
<defs>
<clipPath id="clip0">
<rect x="0.500305" y="0.5" width="15" height="15" fill="white"/>
</clipPath>
</defs>
</svg>
