<svg width="16" height="16" viewBox="0 0 16 16" fill="none" xmlns="http://www.w3.org/2000/svg">
<g clip-path="url(#clip0)">
<path d="M3.07965 0.969971L2.71835 5.77406C2.76673 6.36226 3.29134 6.85684 3.87058 6.85684C4.53361 6.85684 5.11524 6.3517 5.11524 5.77583C5.11524 5.77481 5.11524 5.77385 5.11524 5.77283C5.11524 5.77181 5.11524 5.77086 5.11524 5.76983L5.2558 0.969971H3.07965Z" fill="#979797"/>
<path d="M6.68011 6.85684C7.31747 6.85684 7.83601 6.3723 7.83645 5.77658L7.749 0.969971H5.6646L5.5239 5.77739C5.52471 6.37264 6.04306 6.85684 6.68011 6.85684Z" fill="#979797"/>
<path d="M1.15618 6.85684C1.73951 6.85684 2.26776 6.35521 2.30963 5.76146V5.76051L2.66998 0.969971H1.5186L0.0229111 5.60861C0.0144684 5.63781 0.00718313 5.66767 0.00115747 5.69739L0 5.70311C0.0111322 6.31997 0.546599 6.85684 1.15618 6.85684Z" fill="#979797"/>
<path d="M10.9651 5.75516V5.75581C10.9655 5.75952 10.9655 5.76316 10.9657 5.76684C10.9657 5.76983 10.9662 5.7728 10.9662 5.77583C10.9662 6.37189 11.4849 6.85684 12.1225 6.85684C12.7554 6.85684 13.2709 6.37894 13.2785 5.7889L12.5455 0.969971H10.494L10.9651 5.75475V5.75516Z" fill="#979797"/>
<path d="M8.15759 0.969971L8.24508 5.77208V5.77395C8.24508 5.77395 8.24508 5.77521 8.24508 5.77583C8.24508 6.37189 8.7638 6.85684 9.40144 6.85684C10.0362 6.85684 10.553 6.37611 10.5576 5.78369L10.0834 0.969971H8.15759Z" fill="#979797"/>
<path d="M9.95358 8.93896H13.2631V15.0299H9.95358V8.93896Z" fill="#979797"/>
<path d="M13.6852 5.74512C13.6854 5.74658 13.6855 5.74805 13.6856 5.74955C13.6861 5.75315 13.6865 5.7568 13.6868 5.76051C13.6871 5.76422 13.6872 5.76769 13.6873 5.77126C13.6873 5.7728 13.6875 5.77426 13.6875 5.77583C13.6875 6.37189 14.2062 6.85684 14.8439 6.85684C15.5027 6.85684 15.9994 6.42707 15.9994 5.85716L16 5.79874L14.8546 0.969971H12.9587L13.6852 5.74512Z" fill="#979797"/>
<path d="M14.8446 15.0299L14.8478 7.26529C14.8465 7.26529 14.8451 7.26529 14.8438 7.26529C14.2894 7.26985 13.7731 6.98365 13.4832 6.51102C13.0137 7.26246 12.024 7.49106 11.2726 7.0216C11.0658 6.89241 10.8912 6.7178 10.762 6.51102C10.2925 7.26246 9.30272 7.49106 8.55125 7.02154C8.3445 6.89238 8.1699 6.71777 8.04074 6.51102C7.57148 7.26236 6.58198 7.49099 5.83065 7.02174C5.61863 6.88931 5.44048 6.70915 5.31047 6.49567C5.02376 6.95056 4.4792 7.26529 3.87044 7.26529C3.30338 7.26529 2.78786 6.93561 2.51324 6.45557C2.24052 6.93282 1.72919 7.2612 1.16621 7.26501L1.15546 15.0299H9.54504V8.7347C9.54504 8.62188 9.63648 8.53044 9.7493 8.53044H13.4673C13.5801 8.53044 13.6716 8.62188 13.6716 8.7347V15.0299H14.8446ZM8.89587 12.922C8.89587 13.0348 8.80443 13.1262 8.69161 13.1262H2.15473C2.04191 13.1262 1.95047 13.0348 1.95047 12.922V8.84459C1.95047 8.73177 2.04191 8.64033 2.15473 8.64033H8.69161C8.80443 8.64033 8.89587 8.73177 8.89587 8.84459V12.922Z" fill="#979797"/>
<path d="M2.35901 9.04907H8.4874V12.7179H2.35901V9.04907Z" fill="#979797"/>
</g>
<defs>
<clipPath id="clip0">
<rect width="16" height="16" fill="white"/>
</clipPath>
</defs>
</svg>
