<svg width="20" height="20" viewBox="0 0 20 20" fill="none" xmlns="http://www.w3.org/2000/svg">
<path d="M18.3333 0H8.33329C7.41282 0 6.66661 0.746211 6.66661 1.66668V4.58336C6.66661 4.81348 6.85317 5.00004 7.08329 5.00004H7.91661C8.14673 5.00004 8.33329 4.81348 8.33329 4.58336V1.66668H18.3333V18.3334H8.33329V15.4167C8.33329 15.1866 8.14673 15 7.91661 15H7.08329C6.85317 15 6.66661 15.1866 6.66661 15.4167V18.3334C6.66661 19.2538 7.41278 20 8.33329 20H18.3333C19.2538 20 20 19.2538 20 18.3333V1.66668C20 0.746211 19.2538 0 18.3333 0Z" fill="#4A4A4A"/>
<path d="M9.30461 13.4401C9.21672 13.5191 9.16668 13.6318 9.16668 13.7498V14.5831C9.16668 14.7483 9.26434 14.898 9.4157 14.9643C9.46941 14.9884 9.5268 14.9997 9.58336 14.9997C9.68551 14.9997 9.78641 14.9619 9.86492 14.8903L14.8649 10.307C14.9512 10.228 15 10.1166 15 9.99976C15 9.88297 14.9512 9.77148 14.8649 9.69254L9.86492 5.10922C9.74285 4.99812 9.56586 4.96761 9.4157 5.03515C9.26434 5.10148 9.16668 5.25121 9.16668 5.4164V6.24976C9.16668 6.36777 9.21672 6.48047 9.30461 6.55941L12.2011 9.16644H0.41668C0.186367 9.16644 0 9.35281 0 9.58308V10.4164C0 10.6467 0.186367 10.8331 0.41668 10.8331H12.2011L9.30461 13.4401Z" fill="#4A4A4A"/>
</svg>
