<svg width="16" height="16" viewBox="0 0 16 16" fill="none" xmlns="http://www.w3.org/2000/svg">
<path d="M16 2.49782C15.9994 1.82936 15.7381 1.20131 15.2641 0.729264C14.2866 -0.244368 12.6975 -0.243025 11.7211 0.732926L1.63509 10.8424C1.30702 11.1697 1.0566 11.5748 0.910844 12.0142L0.901429 12.0427L0 16L3.97499 15.1116L4.00459 15.1018C4.44478 14.9563 4.85087 14.7065 5.17979 14.3783L15.2672 4.26759C15.7403 3.79469 16.0006 3.16615 16 2.49782ZM2.20429 14.2273L1.7828 13.8063L2.08715 12.4699L3.54629 13.9274L2.20429 14.2273ZM14.3813 3.38551L4.58822 13.2013L2.81483 11.4298L9.52309 4.70607L10.5446 5.72584L11.4293 4.84266L10.4059 3.82106L11.3576 2.86732L12.3828 3.89076L13.2675 3.00758L12.2405 1.98231L12.6069 1.61501C13.0954 1.12672 13.8911 1.12599 14.3804 1.61342C14.6177 1.84975 14.7485 2.1642 14.7489 2.49879C14.7491 2.83351 14.6189 3.14808 14.3813 3.38551Z" fill="#D60B52"/>
</svg>
