<svg width="16" height="14" viewBox="0 0 16 14" fill="none" xmlns="http://www.w3.org/2000/svg">
<path d="M8 5.39998C6.6744 5.39998 5.6 6.47486 5.6 7.79998C5.6 9.12558 6.6744 10.2 8 10.2C9.32528 10.2 10.4 9.12558 10.4 7.79998C10.4 6.47486 9.32528 5.39998 8 5.39998ZM14.4 2.99998H12.48C12.216 2.99998 11.9315 2.79518 11.8482 2.54462L11.3518 1.05518C11.2682 0.804776 10.984 0.599976 10.72 0.599976H5.28C5.016 0.599976 4.73152 0.804776 4.64816 1.05534L4.15184 2.54478C4.06816 2.79518 3.784 2.99998 3.52 2.99998H1.6C0.72 2.99998 0 3.71998 0 4.59998V11.8C0 12.68 0.72 13.4 1.6 13.4H14.4C15.28 13.4 16 12.68 16 11.8V4.59998C16 3.71998 15.28 2.99998 14.4 2.99998ZM8 11.8C5.79088 11.8 4 10.0091 4 7.79998C4 5.59102 5.79088 3.79998 8 3.79998C10.2088 3.79998 12 5.59102 12 7.79998C12 10.0091 10.2088 11.8 8 11.8ZM13.84 5.71886C13.5309 5.71886 13.28 5.4683 13.28 5.15886C13.28 4.84974 13.5309 4.59886 13.84 4.59886C14.1494 4.59886 14.4 4.84974 14.4 5.15886C14.4 5.4683 14.1493 5.71886 13.84 5.71886Z" fill="white"/>
</svg>
