<svg width="12" height="12" viewBox="0 0 12 12" fill="none" xmlns="http://www.w3.org/2000/svg">
<path d="M6.57957 0.622279L7.93301 3.36471C8.02713 3.55545 8.2091 3.68761 8.41962 3.71815L11.4461 4.15795C11.9763 4.23504 12.1878 4.88636 11.8043 5.26008L9.61436 7.39474C9.46217 7.54318 9.39258 7.7572 9.42863 7.96671L9.94552 10.981C10.0361 11.5089 9.48194 11.9114 9.00785 11.6623L6.30097 10.2393C6.11273 10.1404 5.8877 10.1404 5.69947 10.2393L2.99258 11.6623C2.51849 11.9116 1.9643 11.5089 2.05491 10.981L2.57181 7.96671C2.60785 7.7572 2.53826 7.54318 2.38607 7.39474L0.196087 5.26008C-0.187393 4.88611 0.0241216 4.23479 0.554284 4.15795L3.58082 3.71815C3.79133 3.68761 3.97331 3.55545 4.06743 3.36471L5.42087 0.622279C5.65766 0.141929 6.34252 0.141929 6.57957 0.622279Z" fill="#F28F16"/>
</svg>
