<svg width="24" height="24" viewBox="0 0 24 24" fill="none" xmlns="http://www.w3.org/2000/svg">
<g clip-path="url(#clip0)">
<path d="M23.2969 11.2969C22.9086 11.2969 22.5938 11.6117 22.5938 12C22.5938 17.8414 17.8414 22.5937 12.0001 22.5937C6.15871 22.5937 1.40641 17.8414 1.40641 12C1.40641 6.15859 6.15871 1.40629 12.0001 1.40629C13.7813 1.40629 15.5139 1.84855 17.0606 2.69126L16.1816 3.5703C15.9805 3.7714 15.9204 4.07379 16.0292 4.33657C16.138 4.5993 16.3944 4.77063 16.6788 4.77063H20.0431C20.4314 4.77063 20.7462 4.45581 20.7462 4.0675V0.703165C20.7462 0.418776 20.5749 0.162418 20.3122 0.0535749C20.0493 -0.0553151 19.7469 0.0048721 19.5459 0.206012L18.092 1.65992C16.2503 0.572572 14.1564 9.0859e-05 12.0001 9.0859e-05C8.79476 9.0859e-05 5.78128 1.24832 3.51479 3.51476C1.2483 5.78129 0.00012207 8.79473 0.00012207 12C0.00012207 15.2053 1.2483 18.2187 3.51479 20.4852C5.78132 22.7518 8.79476 24 12.0001 24C15.2053 24 18.2188 22.7518 20.4853 20.4852C22.7518 18.2187 23.9999 15.2053 23.9999 12C24 11.6117 23.6852 11.2969 23.2969 11.2969Z" fill="#4A4A4A"/>
<path d="M16.365 12.2862H11.7142V7.63535C11.7142 7.16204 11.3305 6.77832 10.8572 6.77832C10.3838 6.77832 10.0001 7.16204 10.0001 7.63535V13.1432C10.0001 13.6165 10.3838 14.0002 10.8572 14.0002H16.365C16.8383 14.0002 17.222 13.6165 17.222 13.1432C17.222 12.6699 16.8383 12.2862 16.365 12.2862Z" fill="#4A4A4A"/>
</g>
<defs>
<clipPath id="clip0">
<rect width="24" height="24" fill="white"/>
</clipPath>
</defs>
</svg>
