<?xml version="1.0" encoding="utf-8"?>
<!-- Generator: Adobe Illustrator 23.0.1, SVG Export Plug-In . SVG Version: 6.00 Build 0)  -->
<svg version="1.1" id="Слой_1" xmlns="http://www.w3.org/2000/svg" xmlns:xlink="http://www.w3.org/1999/xlink" x="0px" y="0px"
	 viewBox="0 0 14 14" style="enable-background:new 0 0 14 14;" xml:space="preserve">
<style type="text/css">
	.st0{fill:#C4C4C4;}
</style>
<path class="st0" d="M2,0h2c1.1,0,2,0.9,2,2v2c0,1.1-0.9,2-2,2H2C0.9,6,0,5.1,0,4V2C0,0.9,0.9,0,2,0z"/>
<path class="st0" d="M10,0h2c1.1,0,2,0.9,2,2v2c0,1.1-0.9,2-2,2h-2C8.9,6,8,5.1,8,4V2C8,0.9,8.9,0,10,0z"/>
<path class="st0" d="M2,8h2c1.1,0,2,0.9,2,2v2c0,1.1-0.9,2-2,2H2c-1.1,0-2-0.9-2-2v-2C0,8.9,0.9,8,2,8z"/>
<path class="st0" d="M10,8h2c1.1,0,2,0.9,2,2v2c0,1.1-0.9,2-2,2h-2c-1.1,0-2-0.9-2-2v-2C8,8.9,8.9,8,10,8z"/>
</svg>
