<svg width="16" height="16" viewBox="0 0 16 16" fill="none" xmlns="http://www.w3.org/2000/svg">
<g clip-path="url(#clip0)">
<path d="M8.28592 15.9904C9.50945 15.8166 10.5821 14.5396 11.257 12.6537C10.2813 12.4352 9.28563 12.3179 8.28592 12.304V15.9904Z" fill="#979797"/>
<path d="M10.2407 15.6906C10.313 15.6697 10.3851 15.6486 10.4566 15.6254C10.5169 15.606 10.5764 15.5851 10.6359 15.5643C10.7062 15.54 10.7763 15.515 10.8461 15.4884C10.9056 15.4658 10.9645 15.4418 11.0236 15.4178C11.0917 15.3892 11.1597 15.3607 11.227 15.3321C11.2858 15.3062 11.3442 15.2791 11.4025 15.2519C11.4686 15.2208 11.5343 15.1891 11.5995 15.1561C11.6568 15.127 11.7139 15.0972 11.7711 15.0666C11.8352 15.0323 11.8989 14.9972 11.9621 14.9612C12.0194 14.9288 12.0745 14.8963 12.1303 14.8628C12.1922 14.8247 12.254 14.7865 12.3153 14.7484C12.3701 14.7135 12.4249 14.6781 12.4789 14.6415C12.5392 14.6008 12.5987 14.5585 12.6579 14.5162C12.7111 14.4781 12.764 14.4401 12.8159 14.4019C12.8732 14.3578 12.9318 14.3121 12.9892 14.2663C13.0402 14.2257 13.091 14.1853 13.1411 14.1436C13.1982 14.0961 13.253 14.047 13.3084 13.9978C13.357 13.9547 13.4059 13.9119 13.4533 13.8677C13.5079 13.8167 13.5611 13.7639 13.6143 13.7116C13.6604 13.6661 13.707 13.6213 13.7521 13.5746C13.7605 13.566 13.7685 13.5566 13.7771 13.5477C13.1534 13.2256 12.4965 12.9727 11.8178 12.7937C11.4648 13.9193 10.8366 14.9394 9.99023 15.7613C10.0134 15.7553 10.0366 15.7504 10.0598 15.7444C10.1209 15.7272 10.181 15.7083 10.2407 15.6906Z" fill="#979797"/>
<path d="M16.0001 8.29248H12.5714C12.5585 9.6312 12.3642 10.962 11.9941 12.2486C12.7489 12.4502 13.4773 12.7401 14.1643 13.1122C15.2922 11.7528 15.9378 10.0579 16.0001 8.29248Z" fill="#979797"/>
<path d="M8.28592 7.72064H11.9995C11.985 6.42925 11.7955 5.14583 11.4366 3.90527C10.4025 4.1411 9.34637 4.26704 8.28592 4.281V7.72064Z" fill="#979797"/>
<path d="M8.28592 0.0224609V3.70894C9.28563 3.69484 10.2813 3.5777 11.257 3.35919C10.5821 1.47329 9.50945 0.196292 8.28592 0.0224609Z" fill="#979797"/>
<path d="M8.28592 11.7321C9.34637 11.7462 10.4025 11.8722 11.4366 12.108C11.7955 10.8674 11.985 9.58386 11.9995 8.29248H8.28592V11.7321Z" fill="#979797"/>
<path d="M14.1643 2.90088C13.4773 3.27298 12.7489 3.56283 11.9941 3.76445C12.3642 5.05108 12.5585 6.38184 12.5714 7.72055H16.0001C15.9377 5.95529 15.292 4.26039 14.1643 2.90088Z" fill="#979797"/>
<path d="M13.7779 2.46729C13.7695 2.45877 13.7616 2.44956 13.7533 2.44076C13.7081 2.39413 13.6612 2.34917 13.6151 2.30379C13.5621 2.25143 13.5091 2.19851 13.4544 2.14769C13.4071 2.10357 13.3581 2.06182 13.3095 2.01784C13.254 1.96869 13.1986 1.91913 13.1416 1.87166C13.0922 1.82991 13.0415 1.78998 12.9913 1.7499C12.934 1.70355 12.8754 1.65747 12.8165 1.61321C12.7648 1.57426 12.7124 1.53656 12.6598 1.49886C12.6 1.45586 12.54 1.41299 12.4791 1.37208C12.4257 1.33606 12.3713 1.30087 12.317 1.26639C12.2552 1.22659 12.1935 1.18764 12.1305 1.14994C12.0753 1.11685 12.0196 1.08418 11.9638 1.05248C11.8998 1.0159 11.8357 0.980437 11.7711 0.945811C11.7138 0.917188 11.6567 0.886052 11.5995 0.857429C11.5337 0.824199 11.4674 0.792225 11.3994 0.760809C11.3422 0.733583 11.2841 0.707054 11.2252 0.681224C11.1574 0.651205 11.089 0.624118 11.0207 0.595495C10.9618 0.57148 10.9032 0.547744 10.8437 0.525125C10.7743 0.498596 10.7039 0.473743 10.6336 0.449449C10.5741 0.428505 10.5146 0.407701 10.4543 0.388154C10.3828 0.364976 10.3113 0.343893 10.2379 0.32267C10.1784 0.305218 10.1186 0.287485 10.0585 0.271568C10.0354 0.265285 10.012 0.260398 9.98878 0.254395C10.8352 1.07622 11.4632 2.09617 11.8163 3.22196C12.4957 3.04296 13.1537 2.78996 13.7779 2.46729Z" fill="#979797"/>
<path d="M0 7.72055H3.4286C3.44158 6.38184 3.6358 5.05108 4.0058 3.76445C3.25114 3.56297 2.52272 3.27312 1.83577 2.90088C0.707892 4.26025 0.0622722 5.95529 0 7.72055Z" fill="#979797"/>
<path d="M7.71409 15.9904V12.304C6.71439 12.3181 5.71873 12.4352 4.74304 12.6537C5.41784 14.5396 6.49057 15.8166 7.71409 15.9904Z" fill="#979797"/>
<path d="M7.71406 8.29248H4.00049C4.01501 9.58386 4.20434 10.8674 4.56345 12.108C5.5975 11.872 6.65348 11.7461 7.71406 11.7321V8.29248Z" fill="#979797"/>
<path d="M7.71409 0.0224609C6.49057 0.196292 5.41784 1.47329 4.74304 3.35919C5.71873 3.57784 6.71439 3.69498 7.71409 3.70894V0.0224609Z" fill="#979797"/>
<path d="M7.71406 4.281C6.65362 4.26704 5.5975 4.1411 4.56345 3.90527C4.20434 5.14583 4.01501 6.42925 4.00049 7.72064H7.71406V4.281Z" fill="#979797"/>
<path d="M6.00899 0.253906C5.98581 0.25991 5.96263 0.264797 5.93946 0.270801C5.87886 0.286997 5.8191 0.305009 5.75878 0.322461C5.68702 0.343405 5.61581 0.364488 5.54376 0.387386C5.48303 0.407073 5.42327 0.428017 5.36351 0.448821C5.29356 0.473534 5.22347 0.498108 5.15421 0.524357C5.09446 0.547255 5.03553 0.570991 4.97633 0.595286C4.90834 0.623909 4.8402 0.652532 4.77304 0.681015C4.71412 0.706845 4.6559 0.733932 4.59754 0.761159C4.53149 0.792295 4.46573 0.823989 4.40053 0.856941C4.34328 0.886122 4.28604 0.916001 4.22893 0.946439C4.16484 0.980787 4.10131 1.01597 4.0382 1.05199C3.98096 1.08397 3.92469 1.11678 3.86954 1.15029C3.80741 1.18771 3.74597 1.22638 3.68482 1.26464C3.62981 1.29983 3.57521 1.33529 3.52118 1.37187C3.46086 1.4125 3.40138 1.45481 3.34218 1.49711C3.28899 1.53523 3.23607 1.57321 3.18399 1.61161C3.12549 1.65559 3.06964 1.70138 3.01072 1.74704C2.95989 1.78767 2.90865 1.82802 2.85895 1.87005C2.8017 1.91724 2.74739 1.96611 2.69224 2.01498C2.64337 2.05854 2.59408 2.10085 2.54633 2.14595C2.49202 2.19663 2.4391 2.24927 2.38604 2.30149C2.33997 2.347 2.29305 2.39196 2.24781 2.43874C2.23958 2.44739 2.23162 2.45689 2.22296 2.46568C2.84652 2.78794 3.50359 3.04079 4.1823 3.21979C4.53526 2.0947 5.16301 1.07531 6.00899 0.253906Z" fill="#979797"/>
<path d="M2.38479 13.7094C2.43799 13.7617 2.49091 13.8146 2.5455 13.8656C2.59297 13.9096 2.64184 13.9513 2.69057 13.9953C2.746 14.0446 2.80143 14.094 2.8584 14.1415C2.90782 14.183 2.95823 14.223 3.00877 14.2632C3.06602 14.3096 3.12312 14.3557 3.18372 14.4002C3.23524 14.4389 3.2876 14.4763 3.33996 14.5147C3.39972 14.5576 3.46003 14.6004 3.52091 14.6416C3.57439 14.6776 3.6287 14.7128 3.68301 14.7475C3.74487 14.7871 3.80658 14.8261 3.86955 14.8638C3.9247 14.897 3.98041 14.9295 4.03626 14.9614C4.10021 14.9979 4.1643 15.0334 4.22894 15.0679C4.28605 15.0965 4.34329 15.1276 4.40054 15.1563C4.4663 15.1895 4.53262 15.2215 4.60062 15.253C4.65787 15.28 4.71595 15.3065 4.77487 15.3325C4.84259 15.3625 4.91086 15.3896 4.97928 15.4182C5.0382 15.4422 5.09684 15.466 5.15632 15.4886C5.22571 15.5152 5.29608 15.5401 5.36646 15.5644C5.42593 15.5852 5.48541 15.6061 5.54573 15.6255C5.61722 15.6487 5.68871 15.6699 5.76215 15.691C5.82163 15.7085 5.88139 15.7262 5.94143 15.7423C5.9646 15.7485 5.98806 15.7534 6.01124 15.7594C5.16484 14.9375 4.53681 13.9175 4.1837 12.7917C3.50499 12.9709 2.84792 13.2237 2.22437 13.5461C2.23274 13.5546 2.2407 13.5639 2.24908 13.5727C2.29194 13.619 2.33816 13.664 2.38479 13.7094Z" fill="#979797"/>
<path d="M1.83577 13.1122C2.52272 12.7401 3.25114 12.4502 4.0058 12.2486C3.6358 10.962 3.44158 9.6312 3.4286 8.29248H0C0.0624118 10.0577 0.707892 11.7526 1.83577 13.1122Z" fill="#979797"/>
</g>
<defs>
<clipPath id="clip0">
<rect width="16" height="16" fill="white"/>
</clipPath>
</defs>
</svg>
