<svg xmlns="http://www.w3.org/2000/svg" xmlns:xlink="http://www.w3.org/1999/xlink"><defs><symbol viewBox="0 0 24 24" id="ic-address"><g clip-path="url(#ic-address_clip0)"><path d="M10.382 22.594h-2.6a.703.703 0 0 0 0 1.406h8.437a.703.703 0 0 0 0-1.406h-2.6a47.77 47.77 0 0 0 3.385-4.065c2.717-3.68 4.095-6.839 4.095-9.388 0-5.016-4.08-9.116-9.095-9.141h-.007C6.982.025 2.902 4.125 2.902 9.14c0 2.55 1.377 5.71 4.094 9.39a47.75 47.75 0 0 0 3.386 4.064zM12 1.406c4.242.023 7.692 3.492 7.692 7.735 0 2.21-1.32 5.168-3.819 8.553A46.593 46.593 0 0 1 12 22.257a46.614 46.614 0 0 1-3.873-4.563C5.63 14.31 4.308 11.352 4.308 9.141c0-4.243 3.45-7.712 7.692-7.735z" /><path d="M18.328 9.14A6.335 6.335 0 0 0 12 2.813a6.335 6.335 0 0 0-6.328 6.329A6.335 6.335 0 0 0 12 15.469a6.335 6.335 0 0 0 6.328-6.328zm-8.437 4.447v-.227c0-1.164.946-2.11 2.109-2.11s2.11.946 2.11 2.11v.227a4.892 4.892 0 0 1-2.11.476c-.755 0-1.47-.171-2.11-.476zM7.078 9.141A4.927 4.927 0 0 1 12 4.219a4.927 4.927 0 0 1 4.922 4.922 4.907 4.907 0 0 1-1.478 3.512A3.522 3.522 0 0 0 12 9.843a3.522 3.522 0 0 0-3.444 2.81A4.907 4.907 0 0 1 7.078 9.14z" /><path d="M14.11 7.734c0-1.163-.947-2.109-2.11-2.109-1.163 0-2.11.946-2.11 2.11 0 1.162.947 2.109 2.11 2.109 1.163 0 2.11-.946 2.11-2.11zM12 8.437a.704.704 0 1 1 .002-1.407A.704.704 0 0 1 12 8.437z" /></g><defs></defs></symbol><clipPath id="ic-address_clip0"><path d="M0 0h24v24H0z" /></clipPath><symbol viewBox="0 0 15 15" id="ic-alarm"><g clip-path="url(#ic-alarm_clip0)"><path d="M14.971 8.193a5.93 5.93 0 0 0-1.704-3.596 5.883 5.883 0 0 0-2.894-1.59v-.744A.997.997 0 0 0 10.133.3h-2.11a.997.997 0 0 0-.24 1.963v.747A5.883 5.883 0 0 0 4.4 5.16a.29.29 0 0 0-.022 0H2.29a.293.293 0 0 0 0 .585h1.711c-.214.36-.388.738-.52 1.126H.294a.293.293 0 0 0 0 .586h3.023c-.084.37-.133.748-.145 1.126H1.875a.293.293 0 0 0 0 .586H3.18c.025.38.086.757.183 1.126H1.465a.293.293 0 1 0 0 .586H3.55c.287.76.736 1.473 1.347 2.084a5.93 5.93 0 0 0 4.18 1.733c1.144 0 2.273-.33 3.23-.954a.293.293 0 1 0-.32-.491 5.354 5.354 0 0 1-6.675-.702 5.338 5.338 0 0 1 0-7.54 5.338 5.338 0 0 1 7.54 0c1.77 1.769 2.067 4.574.706 6.67a.293.293 0 0 0 .492.319 5.937 5.937 0 0 0 .921-3.808zM7.613 1.297a.41.41 0 0 1 .41-.41h2.11a.41.41 0 0 1 0 .82h-2.11a.41.41 0 0 1-.41-.41zm.756 1.612v-.616h1.418v.615a5.97 5.97 0 0 0-1.418.001z" /><path d="M13.06 12.466a.295.295 0 0 0-.293.293.294.294 0 0 0 .293.293.295.295 0 0 0 .293-.293.295.295 0 0 0-.293-.293zM9.082 4.237A4.55 4.55 0 0 0 4.537 8.78a4.55 4.55 0 0 0 4.545 4.545 4.55 4.55 0 0 0 4.545-4.545 4.55 4.55 0 0 0-4.545-4.544zm0 8.503a3.963 3.963 0 0 1-3.959-3.959 3.963 3.963 0 0 1 3.96-3.958A3.963 3.963 0 0 1 13.04 8.78a3.963 3.963 0 0 1-3.959 3.96z" /><path d="M10.935 6.514l-1.45 1.451a.905.905 0 0 0-.805 0l-.65-.65a.293.293 0 0 0-.414.415l.65.65a.911.911 0 1 0 1.727.402.905.905 0 0 0-.094-.403l1.408-1.408.043-.043a.293.293 0 0 0-.415-.414zM9.082 9.106a.325.325 0 1 1 .001-.65.325.325 0 0 1 0 .65zM12.215 8.492h-.272a.293.293 0 1 0 0 .586h.272a.293.293 0 0 0 0-.586zM6.221 8.485H5.95a.293.293 0 0 0 0 .586h.271a.293.293 0 0 0 0-.586zM9.086 6.214a.293.293 0 0 0 .293-.293v-.272a.293.293 0 0 0-.586 0v.272c0 .161.131.293.293.293zM9.079 11.35a.293.293 0 0 0-.293.293v.27a.293.293 0 0 0 .586 0v-.27a.293.293 0 0 0-.293-.293zM.293 10.296A.295.295 0 0 0 0 10.59a.295.295 0 0 0 .293.293.295.295 0 0 0 .293-.293.295.295 0 0 0-.293-.293z" /></g><defs></defs></symbol><clipPath id="ic-alarm_clip0"><path d="M0 0h15v15H0z" /></clipPath><symbol viewBox="0 0 14 8" id="ic-arrow-down"><path d="M7 7.99a.978.978 0 0 1-.693-.287l-6.02-6.02A.98.98 0 1 1 1.674.297L7 5.623 12.326.297a.98.98 0 0 1 1.387 1.387l-6.02 6.02A.978.978 0 0 1 7 7.99z" /></symbol><symbol viewBox="0 0 16 12" id="ic-arrow-left"><path d="M5.226 11.456c.218.226.58.226.806 0a.569.569 0 0 0 0-.798L1.943 6.569h13.492c.315 0 .565-.25.565-.565a.568.568 0 0 0-.565-.572H1.943l4.09-4.082a.579.579 0 0 0 0-.806.565.565 0 0 0-.807 0L.169 5.601a.555.555 0 0 0 0 .798l5.057 5.057z" /></symbol><symbol viewBox="0 0 16 12" id="ic-arrow-right"><path d="M10.774.544a.565.565 0 0 0-.806 0 .569.569 0 0 0 0 .798l4.088 4.089H.564A.562.562 0 0 0 0 5.996c0 .314.25.573.564.573h13.492l-4.088 4.08a.579.579 0 0 0 0 .807.565.565 0 0 0 .806 0l5.057-5.057a.555.555 0 0 0 0-.798L10.774.544z" /></symbol><symbol viewBox="0 0 20 20" id="ic-burger"><path d="M10 4.727a.586.586 0 1 0 0-1.172.586.586 0 0 0 0 1.172zM14.688 4.727a.586.586 0 1 0 0-1.172.586.586 0 0 0 0 1.172zM12.344 3.555a.586.586 0 1 0 0-1.172.586.586 0 0 0 0 1.172zM7.656 3.555a.586.586 0 1 0 0-1.172.586.586 0 0 0 0 1.172zM5.313 4.727a.586.586 0 1 0 0-1.172.586.586 0 0 0 0 1.172z" /><path d="M20 11.758a2.347 2.347 0 0 0-1.797-2.279V8.242a.586.586 0 0 0 .586-.586v-1.21A6.453 6.453 0 0 0 12.344 0H7.656a6.453 6.453 0 0 0-6.445 6.445v1.211c0 .324.262.586.586.586V9.48A2.347 2.347 0 0 0 0 11.758c0 1.104.768 2.031 1.797 2.279v1.236a.586.586 0 0 0-.586.586v1.211A2.933 2.933 0 0 0 4.14 20h11.718a2.933 2.933 0 0 0 2.93-2.93v-1.21a.586.586 0 0 0-.547-.585v-1.248A2.348 2.348 0 0 0 20 11.757zm-4.727 3.515v-1.171h1.797v1.171h-1.797zm3.555-3.515c0 .646-.526 1.172-1.172 1.172h-2.383v-2.344h2.383c.646 0 1.172.526 1.172 1.172zM2.383 6.445a5.28 5.28 0 0 1 5.273-5.273h4.688a5.28 5.28 0 0 1 5.273 5.273v.625H2.383v-.625zM17.03 8.242v1.172h-2.343a.586.586 0 0 0-.586.586v5.86a.587.587 0 0 1-1.172 0V10a.586.586 0 0 0-.586-.586H8.828a.586.586 0 0 0-.586.586.587.587 0 0 1-1.172 0 .586.586 0 0 0-.586-.586H2.97V8.242H17.03zm-15.86 3.516c0-.646.527-1.172 1.173-1.172h3.655a1.76 1.76 0 0 0 1.657 1.172 1.76 1.76 0 0 0 1.658-1.172h2.444v2.344H2.344a1.173 1.173 0 0 1-1.172-1.172zm1.798 2.344h8.789v1.171h-8.79v-1.171zm14.648 2.968a1.76 1.76 0 0 1-1.758 1.758H4.141a1.76 1.76 0 0 1-1.758-1.758v-.625h9.476a1.76 1.76 0 0 0 1.657 1.172 1.76 1.76 0 0 0 1.657-1.172h2.444v.625z" /></symbol><symbol viewBox="0 0 16 16" id="ic-cafe"><g clip-path="url(#ic-cafe_clip0)"><path d="M3.08.97l-.362 4.804c.049.588.573 1.083 1.153 1.083.663 0 1.244-.505 1.244-1.081v-.003-.003l.14-4.8H3.08zM6.68 6.857c.637 0 1.156-.485 1.156-1.08L7.75.97H5.665l-.141 4.807c0 .596.52 1.08 1.156 1.08zM1.156 6.857c.584 0 1.112-.502 1.154-1.096L2.67.97H1.519L.023 5.609c-.009.029-.016.059-.022.088L0 5.703c.011.617.547 1.154 1.156 1.154zM10.965 5.755v.012l.001.009c0 .596.519 1.08 1.157 1.08.632 0 1.148-.477 1.155-1.067L12.546.97h-2.052l.471 4.785zM8.158.97l.087 4.802v.004c0 .596.519 1.08 1.156 1.08.635 0 1.152-.48 1.157-1.072L10.083.97H8.158zM9.954 8.939h3.31v6.09h-3.31V8.94zM13.685 5.745v.005a.192.192 0 0 1 .002.021v.005c0 .596.52 1.08 1.157 1.08.659 0 1.155-.429 1.155-.999L16 5.8 14.855.97h-1.896l.726 4.775z" /><path d="M14.845 15.03l.003-7.765h-.004a1.58 1.58 0 0 1-1.36-.754 1.604 1.604 0 0 1-2.722 0 1.604 1.604 0 0 1-2.721 0 1.604 1.604 0 0 1-2.73-.015 1.71 1.71 0 0 1-1.44.77c-.568 0-1.083-.33-1.358-.81a1.587 1.587 0 0 1-1.347.809l-.01 7.765h8.389V8.735c0-.113.091-.205.204-.205h3.718c.113 0 .205.092.205.205v6.295h1.173zm-5.95-2.108a.204.204 0 0 1-.203.204H2.155a.204.204 0 0 1-.205-.204V8.845c0-.113.092-.205.205-.205h6.537c.112 0 .204.092.204.205v4.077z" /><path d="M2.359 9.05h6.128v3.668H2.36V9.049z" /></g><defs></defs></symbol><clipPath id="ic-cafe_clip0"><path d="M0 0h16v16H0z" /></clipPath><symbol viewBox="0 0 20 20" id="ic-calendar"><path d="M17.656 1.563h-.937V0h-1.563v1.563H4.844V0H3.28v1.563h-.937A2.346 2.346 0 0 0 0 3.905v13.75A2.346 2.346 0 0 0 2.344 20h15.312A2.346 2.346 0 0 0 20 17.656V3.906a2.346 2.346 0 0 0-2.344-2.344zm.782 16.093c0 .431-.351.782-.782.782H2.344a.782.782 0 0 1-.781-.782V7.344h16.875v10.312zm0-11.875H1.563V3.906c0-.43.35-.781.78-.781h.938v1.563h1.563V3.125h10.312v1.563h1.563V3.125h.937c.431 0 .782.35.782.781v1.875z" /><path d="M4.531 8.984H2.97v1.563H4.53V8.984zM7.656 8.984H6.094v1.563h1.562V8.984zM10.781 8.984H9.22v1.563h1.562V8.984zM13.906 8.984h-1.562v1.563h1.562V8.984zM17.031 8.984H15.47v1.563h1.562V8.984zM4.531 12.11H2.97v1.562H4.53v-1.563zM7.656 12.11H6.094v1.562h1.562v-1.563zM10.781 12.11H9.22v1.562h1.562v-1.563zM13.906 12.11h-1.562v1.562h1.562v-1.563zM4.531 15.234H2.97v1.563H4.53v-1.563zM7.656 15.234H6.094v1.563h1.562v-1.563zM10.781 15.234H9.22v1.563h1.562v-1.563zM13.906 15.234h-1.562v1.563h1.562v-1.563zM17.031 12.11H15.47v1.562h1.562v-1.563z" /></symbol><symbol viewBox="0 0 24 24" id="ic-calls"><path d="M23.462 18.983l-3.706-3.715c-.739-.737-1.961-.715-2.725.051l-1.868 1.871-.368-.205c-1.18-.655-2.793-1.553-4.492-3.256-1.703-1.707-2.6-3.327-3.255-4.51-.069-.125-.135-.246-.2-.36L8.1 7.603l.616-.618c.765-.767.786-1.992.05-2.731L5.06.539C4.324-.199 3.1-.177 2.336.59L1.29 1.643l.028.029c-.35.448-.643.964-.86 1.522a6.32 6.32 0 0 0-.383 1.543c-.49 4.067 1.364 7.783 6.396 12.826 6.955 6.97 12.56 6.444 12.802 6.419a6.25 6.25 0 0 0 1.545-.39 6.016 6.016 0 0 0 1.512-.858l.023.02 1.059-1.039c.763-.767.785-1.992.049-2.732z" /></symbol><symbol viewBox="0 0 16 16" id="ic-calls-stroke"><path d="M15.571 11.857l-2.523-2.535a1.46 1.46 0 0 0-2.08 0L9.524 10.78a.317.317 0 0 1-.409.036A16.381 16.381 0 0 1 6.901 8.94a16.536 16.536 0 0 1-1.68-1.978.319.319 0 0 1 .032-.412l1.482-1.494a1.49 1.49 0 0 0 0-2.092L4.21.42a1.495 1.495 0 0 0-2.079 0l-.799.806A4.554 4.554 0 0 0 .22 5.845a13.629 13.629 0 0 0 1.643 3.359c.63.952 1.351 1.837 2.155 2.644a16.948 16.948 0 0 0 2.887 2.35 12.8 12.8 0 0 0 3.736 1.675c.34.085.69.127 1.042.127a4.525 4.525 0 0 0 3.201-1.358l.687-.693a1.49 1.49 0 0 0 0-2.092zm-.636 1.475l-.002.001.005-.013-.687.692a3.572 3.572 0 0 1-3.39.978 11.888 11.888 0 0 1-3.466-1.566A16.046 16.046 0 0 1 4.66 11.2a16.245 16.245 0 0 1-2.043-2.5 12.719 12.719 0 0 1-1.535-3.133A3.643 3.643 0 0 1 1.98 1.87l.799-.806a.567.567 0 0 1 .806-.001l.002.001L6.11 3.608a.578.578 0 0 1 .002.813l-.002.002L4.63 5.917a1.226 1.226 0 0 0-.126 1.585c.536.741 1.129 1.44 1.774 2.087.718.728 1.5 1.39 2.334 1.979a1.21 1.21 0 0 0 1.554-.136l1.432-1.467a.567.567 0 0 1 .807-.002l.001.002 2.528 2.553a.578.578 0 0 1 .002.813z" /></symbol><symbol viewBox="0 0 24 18" id="ic-check"><path d="M23.649.539a1.2 1.2 0 0 0-1.698 0L7.575 14.916 2.049 9.39A1.2 1.2 0 0 0 .35 11.087l6.375 6.374a1.2 1.2 0 0 0 1.697 0L23.65 2.236a1.2 1.2 0 0 0 0-1.697z" /></symbol><symbol viewBox="0 0 20 20" id="ic-close"><path d="M12.877 10.32a.441.441 0 0 1 0-.64l6.849-6.849a.986.986 0 0 0 .274-.64.986.986 0 0 0-.274-.638L18.448.274a.987.987 0 0 0-.64-.274.83.83 0 0 0-.64.274l-6.848 6.85a.441.441 0 0 1-.64 0L2.831.273A.987.987 0 0 0 2.191 0a.987.987 0 0 0-.638.274L.274 1.553A.987.987 0 0 0 0 2.192c0 .182.091.456.274.639l6.85 6.85a.441.441 0 0 1 0 .639l-6.85 6.849a.987.987 0 0 0-.274.64c0 .182.091.456.274.639l1.279 1.278a.986.986 0 0 0 .639.274.986.986 0 0 0 .639-.274l6.85-6.85a.441.441 0 0 1 .639 0l6.849 6.85a.987.987 0 0 0 .64.274.986.986 0 0 0 .639-.274l1.278-1.278a.986.986 0 0 0 .274-.64.987.987 0 0 0-.274-.64l-6.85-6.848z" /></symbol><symbol viewBox="0 0 16 16" id="ic-close-circle"><path d="M13.657 2.343A7.944 7.944 0 0 0 8 0a7.943 7.943 0 0 0-5.657 2.343A7.943 7.943 0 0 0 0 8c0 2.138.832 4.145 2.343 5.657A7.943 7.943 0 0 0 8 16a7.943 7.943 0 0 0 5.657-2.343A7.943 7.943 0 0 0 16 8a7.943 7.943 0 0 0-2.343-5.657zm-.643 10.67A7.045 7.045 0 0 1 8 15.091a7.045 7.045 0 0 1-5.013-2.077C.222 10.248.222 5.75 2.987 2.987A7.045 7.045 0 0 1 8 .909c1.892 0 3.673.737 5.014 2.078 2.764 2.764 2.764 7.262 0 10.027z" /><path d="M11.525 4.475a.453.453 0 0 0-.643 0L8 7.357 5.118 4.475a.453.453 0 0 0-.643 0 .453.453 0 0 0 0 .643L7.357 8l-2.882 2.882a.457.457 0 1 0 .32.778.444.444 0 0 0 .32-.135l2.882-2.882 2.882 2.882a.457.457 0 0 0 .32.135.438.438 0 0 0 .32-.135.453.453 0 0 0 0-.643L8.643 8l2.882-2.882a.453.453 0 0 0 0-.643z" /></symbol><symbol fill="none" viewBox="0 0 32 32" id="ic-close-grad"><path d="M27.313 4.687A15.886 15.886 0 0 0 16 0C11.724 0 7.71 1.663 4.687 4.687A15.887 15.887 0 0 0 0 16c0 4.276 1.663 8.29 4.687 11.313A15.887 15.887 0 0 0 16 32c4.276 0 8.29-1.663 11.313-4.687A15.886 15.886 0 0 0 32 16c0-4.276-1.663-8.29-4.687-11.313zm-1.286 21.34A14.09 14.09 0 0 1 16 30.182a14.09 14.09 0 0 1-10.027-4.155c-5.529-5.529-5.529-14.525 0-20.054A14.09 14.09 0 0 1 16 1.818a14.09 14.09 0 0 1 10.027 4.155c5.529 5.529 5.529 14.525 0 20.054z" fill="url(#ic-close-grad_paint0_linear)" /><path d="M23.05 8.95a.906.906 0 0 0-1.286 0L16 14.714 10.236 8.95a.906.906 0 0 0-1.287 0 .906.906 0 0 0 0 1.286L14.715 16 8.95 21.764a.906.906 0 0 0 0 1.287c.175.175.41.269.64.269a.887.887 0 0 0 .639-.27l5.764-5.764 5.765 5.765c.175.175.41.269.64.269a.876.876 0 0 0 .639-.27.906.906 0 0 0 0-1.286L17.287 16l5.764-5.764a.906.906 0 0 0 0-1.286z" fill="url(#ic-close-grad_paint1_linear)" /><defs></defs></symbol><linearGradient id="ic-close-grad_paint0_linear" x1="16" y1="0" x2="16" y2="32" gradientUnits="userSpaceOnUse"><stop stop-color="#D60B52" /><stop offset="1" stop-color="#F28F16" /></linearGradient><linearGradient id="ic-close-grad_paint1_linear" x1="16" y1="8.682" x2="16" y2="23.32" gradientUnits="userSpaceOnUse"><stop stop-color="#D60B52" /><stop offset="1" stop-color="#F28F16" /></linearGradient><symbol viewBox="0 0 24 24" id="ic-close-thin"><path d="M23.558.439a1.486 1.486 0 0 0-2.108 0l-9.451 9.45L2.548.44a1.486 1.486 0 0 0-2.11 0 1.486 1.486 0 0 0 0 2.109l9.452 9.45L.439 21.45a1.486 1.486 0 0 0 0 2.108A1.5 1.5 0 0 0 1.488 24c.375 0 .762-.143 1.049-.442l9.45-9.45 9.452 9.45a1.5 1.5 0 0 0 1.048.442c.387 0 .762-.143 1.05-.442a1.486 1.486 0 0 0 0-2.108l-9.43-9.451 9.451-9.451a1.486 1.486 0 0 0 0-2.11z" /></symbol><symbol viewBox="0 0 16 16" id="ic-crown"><g clip-path="url(#ic-crown_clip0)"><path d="M14.252 4.25a1.25 1.25 0 0 0-1.187 1.635l-1.014.645A1.563 1.563 0 0 1 10 6.2l-.993-1.215c.158-.213.243-.471.244-.737a1.25 1.25 0 0 0-2.5 0c0 .266.085.524.243.737L6 6.202a1.563 1.563 0 0 1-2.048.328l-1.015-.645a1.25 1.25 0 1 0-1.297.86l.739 4.432c.025.15.155.26.308.26h10.627c.152 0 .283-.11.308-.26l.739-4.432a1.25 1.25 0 0 0-.11-2.496z" /><path d="M8.001 12.688c2.935 0 5.314-.7 5.314-1.563S10.935 9.564 8 9.564s-5.313.7-5.313 1.563 2.379 1.562 5.313 1.562z" /><path d="M8.002 13c-2.797 0-5.626-.643-5.626-1.874 0-1.232 2.83-1.876 5.626-1.876 2.795 0 5.625.644 5.625 1.876 0 1.231-2.83 1.875-5.626 1.875zm0-3.125c-3.284 0-5.001.813-5.001 1.25 0 .438 1.717 1.25 5 1.25 3.284 0 5.001-.812 5.001-1.25 0-.437-1.718-1.25-5-1.25z" /></g><defs></defs></symbol><clipPath id="ic-crown_clip0"><path d="M.5.5h15v15H.5z" /></clipPath><symbol viewBox="0 0 20 20" id="ic-exit"><path d="M18.333 0h-10c-.92 0-1.666.746-1.666 1.667v2.916c0 .23.186.417.416.417h.834c.23 0 .416-.187.416-.417V1.667h10v16.666h-10v-2.916A.417.417 0 0 0 7.917 15h-.834a.417.417 0 0 0-.416.417v2.916c0 .92.746 1.667 1.666 1.667h10c.92 0 1.667-.746 1.667-1.667V1.667C20 .747 19.254 0 18.333 0z" /><path d="M9.305 13.44a.416.416 0 0 0-.138.31v.833a.416.416 0 0 0 .698.307l5-4.583a.416.416 0 0 0 0-.614l-5-4.584a.416.416 0 0 0-.698.307v.834c0 .118.05.23.138.31L12.2 9.165H.417A.416.416 0 0 0 0 9.583v.833c0 .23.186.417.417.417H12.2L9.305 13.44z" /></symbol><symbol viewBox="0 0 16 16" id="ic-history"><path d="M7.996 13.88l-6.19-4.812-1.36 1.057L8 16l7.553-5.875-1.368-1.061-6.19 4.817z" /><path d="M8 11.75l6.181-4.805 1.372-1.07L8 0 .447 5.875l1.368 1.061L8 11.75z" /></symbol><symbol viewBox="0 0 10 2" id="ic-minus"><rect width="10" height="2" rx="1" /></symbol><symbol viewBox="0 0 16 16" id="ic-pencil"><path d="M16 2.498c0-.669-.262-1.297-.736-1.769a2.512 2.512 0 0 0-3.543.004L1.635 10.843a2.996 2.996 0 0 0-.724 1.171l-.01.029L0 16l3.975-.888.03-.01c.44-.146.846-.396 1.175-.724l10.087-10.11A2.483 2.483 0 0 0 16 2.498zM2.204 14.228l-.421-.422.304-1.336 1.46 1.457-1.343.3zM14.381 3.385L4.588 13.2 2.815 11.43l6.708-6.724 1.022 1.02.884-.883-1.023-1.022.952-.954 1.025 1.024.885-.883-1.027-1.026.366-.367a1.257 1.257 0 0 1 1.773-.002c.238.237.368.551.369.886 0 .335-.13.65-.368.887z" /></symbol><symbol viewBox="0 0 16 14" id="ic-photo"><path d="M8 5.4a2.4 2.4 0 1 0 0 4.8 2.4 2.4 0 0 0 0-4.8zM14.4 3h-1.92a.712.712 0 0 1-.632-.455l-.496-1.49A.713.713 0 0 0 10.72.6H5.28a.712.712 0 0 0-.632.455l-.496 1.49A.713.713 0 0 1 3.52 3H1.6C.72 3 0 3.72 0 4.6v7.2c0 .88.72 1.6 1.6 1.6h12.8c.88 0 1.6-.72 1.6-1.6V4.6c0-.88-.72-1.6-1.6-1.6zM8 11.8a4 4 0 1 1 0-8 4 4 0 0 1 0 8zm5.84-6.081a.56.56 0 1 1 0-1.12.56.56 0 0 1 0 1.12z" /></symbol><symbol viewBox="0 0 16 16" id="ic-plus"><rect x="7" width="2" height="16" rx="1" /><rect y="9" width="2" height="16" rx="1" transform="rotate(-90 0 9)" /></symbol><symbol viewBox="0 0 16 16" id="ic-search"><circle cx="6.5" cy="6.5" r="5.75" stroke-width="1.5" /><path d="M11 11l4 4" stroke-width="1.5" stroke-linecap="round" /></symbol><symbol viewBox="0 0 12 12" id="ic-star"><path d="M6.58.622l1.353 2.743c.094.19.276.323.487.353l3.026.44c.53.077.742.728.358 1.102l-2.19 2.135a.646.646 0 0 0-.185.572l.517 3.014a.646.646 0 0 1-.938.681L6.3 10.24a.647.647 0 0 0-.602 0l-2.706 1.423a.646.646 0 0 1-.938-.681l.517-3.014a.646.646 0 0 0-.186-.572L.196 5.26a.646.646 0 0 1 .358-1.102l3.027-.44a.646.646 0 0 0 .486-.353L5.421.622a.646.646 0 0 1 1.159 0z" /></symbol><symbol viewBox="0 0 24 24" id="ic-time"><g clip-path="url(#ic-time_clip0)"><path d="M23.297 11.297a.703.703 0 0 0-.703.703c0 5.841-4.753 10.594-10.594 10.594C6.16 22.594 1.406 17.84 1.406 12 1.406 6.159 6.16 1.406 12 1.406c1.781 0 3.514.443 5.06 1.285l-.878.88a.703.703 0 0 0 .497 1.2h3.364a.703.703 0 0 0 .703-.704V.704a.703.703 0 0 0-1.2-.497L18.092 1.66A11.953 11.953 0 0 0 12 0a11.922 11.922 0 0 0-8.485 3.515A11.921 11.921 0 0 0 0 12c0 3.205 1.248 6.219 3.515 8.485A11.921 11.921 0 0 0 12 24c3.205 0 6.219-1.248 8.485-3.515A11.921 11.921 0 0 0 24 12a.703.703 0 0 0-.703-.703z" /><path d="M16.365 12.286h-4.65v-4.65a.857.857 0 1 0-1.715 0v5.507c0 .473.384.857.857.857h5.508a.857.857 0 0 0 0-1.714z" /></g><defs></defs></symbol><clipPath id="ic-time_clip0"><path d="M0 0h24v24H0z" /></clipPath><symbol viewBox="0 0 20 14" id="ic-view-line"><rect x="4" width="16" height="2" rx="1" /><rect x="4" y="6" width="16" height="2" rx="1" /><rect x="4" y="12" width="16" height="2" rx="1" /><circle cx="1" cy="1" r="1" /><circle cx="1" cy="7" r="1" /><circle cx="1" cy="13" r="1" /></symbol><symbol viewBox="0 0 14 14" id="ic-view-tile"><style>#ic-view-tile .st0{fill:#c4c4c4}</style><path class="st0" d="M2 0h2c1.1 0 2 .9 2 2v2c0 1.1-.9 2-2 2H2C.9 6 0 5.1 0 4V2C0 .9.9 0 2 0zM10 0h2c1.1 0 2 .9 2 2v2c0 1.1-.9 2-2 2h-2c-1.1 0-2-.9-2-2V2c0-1.1.9-2 2-2zM2 8h2c1.1 0 2 .9 2 2v2c0 1.1-.9 2-2 2H2c-1.1 0-2-.9-2-2v-2c0-1.1.9-2 2-2zM10 8h2c1.1 0 2 .9 2 2v2c0 1.1-.9 2-2 2h-2c-1.1 0-2-.9-2-2v-2c0-1.1.9-2 2-2z" /></symbol><symbol viewBox="0 0 16 16" id="ic-world"><g clip-path="url(#ic-world_clip0)"><path d="M8.286 15.99c1.223-.173 2.296-1.45 2.971-3.336a14.52 14.52 0 0 0-2.971-.35v3.686zM10.24 15.69c.073-.02.145-.041.217-.065.06-.019.12-.04.179-.06.07-.025.14-.05.21-.077.06-.022.118-.046.178-.07l.203-.086a8.928 8.928 0 0 0 .544-.265 8.249 8.249 0 0 0 1.045-.665l.173-.136c.051-.04.102-.08.152-.122.057-.048.112-.097.167-.146.049-.043.098-.086.145-.13.055-.051.108-.104.161-.156.046-.046.093-.09.138-.137l.025-.027a9.612 9.612 0 0 0-1.96-.754A7.097 7.097 0 0 1 9.99 15.76c.023-.006.047-.01.07-.017l.18-.053zM16 8.292h-3.429a14.828 14.828 0 0 1-.577 3.957 9.945 9.945 0 0 1 2.17.863A7.99 7.99 0 0 0 16 8.292zM8.286 7.72h3.713a14.307 14.307 0 0 0-.562-3.815c-1.034.236-2.09.362-3.151.376v3.44zM8.286.022V3.71c1-.014 1.995-.131 2.971-.35C10.582 1.473 9.509.196 8.286.022zM8.286 11.732c1.06.014 2.117.14 3.15.376.36-1.24.549-2.524.563-3.816H8.287v3.44zM14.164 2.9a9.946 9.946 0 0 1-2.17.864c.37 1.287.565 2.618.577 3.957h3.43a7.992 7.992 0 0 0-1.837-4.82zM13.778 2.467l-.025-.026c-.045-.047-.092-.092-.138-.137-.053-.053-.106-.105-.16-.156l-.146-.13c-.055-.05-.11-.099-.167-.146-.05-.042-.1-.082-.15-.122a6.236 6.236 0 0 0-.332-.251 6.933 6.933 0 0 0-.696-.447 8.085 8.085 0 0 0-.193-.106L11.6.857a6.355 6.355 0 0 0-.375-.176c-.068-.03-.136-.057-.204-.086a7.962 7.962 0 0 0-.783-.272c-.06-.018-.12-.036-.18-.051-.023-.007-.046-.012-.07-.018a7.096 7.096 0 0 1 1.828 2.968 9.596 9.596 0 0 0 1.962-.755zM0 7.72h3.429c.013-1.338.207-2.669.577-3.956a9.933 9.933 0 0 1-2.17-.863A7.99 7.99 0 0 0 0 7.72zM7.714 15.99v-3.686c-1 .014-1.995.131-2.971.35.675 1.886 1.748 3.163 2.971 3.336zM7.714 8.292H4a14.3 14.3 0 0 0 .563 3.816 15.052 15.052 0 0 1 3.151-.376v-3.44zM7.714.022C6.491.196 5.418 1.473 4.743 3.36c.976.219 1.971.336 2.971.35V.022zM7.714 4.281a15.061 15.061 0 0 1-3.15-.376A14.3 14.3 0 0 0 4 7.721h3.714V4.28zM6.009.254c-.023.006-.046.01-.07.017l-.18.051c-.072.021-.143.042-.215.065l-.18.062-.21.075-.178.071-.203.086a8.253 8.253 0 0 0-.903.47 7.507 7.507 0 0 0-.686.461c-.059.044-.114.09-.173.135-.051.04-.102.081-.152.123-.057.047-.112.096-.167.145l-.146.13-.16.156c-.046.046-.093.091-.138.138l-.025.027a9.6 9.6 0 0 0 1.96.754A7.093 7.093 0 0 1 6.008.254zM2.385 13.71c.053.052.106.105.16.156.048.044.097.085.146.13.055.049.11.098.167.146l.15.121c.058.047.115.093.176.137.051.039.104.076.156.115a8.002 8.002 0 0 0 .53.349 8.43 8.43 0 0 0 .359.204c.057.029.114.06.172.088a6.57 6.57 0 0 0 .374.176 8.025 8.025 0 0 0 .592.232 6.62 6.62 0 0 0 .396.127c.059.018.118.035.178.051l.07.017a7.097 7.097 0 0 1-1.827-2.967 9.604 9.604 0 0 0-1.96.754l.025.027c.043.046.09.091.136.136zM1.836 13.112a9.946 9.946 0 0 1 2.17-.863 14.835 14.835 0 0 1-.577-3.957H0a7.991 7.991 0 0 0 1.836 4.82z" /></g><defs></defs></symbol><clipPath id="ic-world_clip0"><path d="M0 0h16v16H0z" /></clipPath></defs></svg>