<?xml version="1.0" encoding="utf-8"?>
<!-- Generator: Adobe Illustrator 23.0.1, SVG Export Plug-In . SVG Version: 6.00 Build 0)  -->
<svg version="1.1" id="Слой_1" xmlns="http://www.w3.org/2000/svg" xmlns:xlink="http://www.w3.org/1999/xlink" x="0px" y="0px"
	 viewBox="0 0 100 100" style="enable-background:new 0 0 100 100;" xml:space="preserve">
<style type="text/css">
	.st0{fill:#FFFFFF;}
	.st1{fill:#FFFFFF;filter:url(#Adobe_OpacityMaskFilter);}
	.st2{mask:url(#mask0_2_);}
	.st3{fill:#D60B52;}
	.st4{fill:#E18C72;}
	.st5{fill:#130017;}
	.st6{fill:#1E0B07;}
	.st7{fill-rule:evenodd;clip-rule:evenodd;fill:#130017;}
	.st8{fill-rule:evenodd;clip-rule:evenodd;fill:#D3725C;}
	.st9{fill-rule:evenodd;clip-rule:evenodd;fill:#FFFFFF;}
	.st10{opacity:0.13;fill:#FFFFFF;enable-background:new    ;}
</style>
<g>
	<circle class="st0" cx="50" cy="50" r="50"/>
</g>
<defs>
	<filter id="Adobe_OpacityMaskFilter" filterUnits="userSpaceOnUse" x="9" y="10" width="81.2" height="90">
		<feColorMatrix  type="matrix" values="1 0 0 0 0  0 1 0 0 0  0 0 1 0 0  0 0 0 1 0"/>
	</filter>
</defs>
<mask maskUnits="userSpaceOnUse" x="9" y="10" width="81.2" height="90" id="mask0_2_">
	<circle class="st1" cx="50" cy="50" r="50"/>
</mask>
<g class="st2">
	<path class="st3" d="M80.7,83.2l-24.5-6.9H43l-24.4,6.9c0,0-9.5,3.4-9.5,16.8h81.2C90.2,86.5,80.7,83.2,80.7,83.2z"/>
	<path class="st4" d="M34.2,78.7l8.8-2.5h13.2l8.8,2.5l-15.4,9.4L34.2,78.7z"/>
	<path class="st5" d="M67.4,41.7H31.8l-0.3-0.6c-8.2-10.6-2.7-24.2,8.5-29.1c3.1-1.3,6.4-1.9,9.7-2c3.1,0,6.1,0.5,8.9,1.6
		C70.5,16.3,76.6,30.9,67.4,41.7L67.4,41.7z"/>
	<path class="st5" d="M37.4,22c0,0-7.1-1.1-8.4,5.9c-1.3,7,4.2,17.5,4.2,17.5l0.2-15.7L37.4,22z"/>
	<path class="st5" d="M61.7,20.6c0,0,7.6-2.6,8.6,7.3c0.8,7.1-3,17.5-3,17.5l-0.3-15.7L61.7,20.6z"/>
	<path class="st4" d="M44.1,62.3l-1.4,17.8l13.9,0.1l-1.9-18L44.1,62.3z"/>
	<path class="st6" d="M43.9,64.4l11.8,7.8l-1-10.3h-9.9L43.9,64.4z"/>
	<path class="st4" d="M31.9,39.3c-0.4-0.8-1-1.5-1.8-2c-0.8-0.5-1.7-0.6-2.6-0.5C22,37.4,22.9,52.3,30,51.6
		C38.1,50.9,31.9,39.3,31.9,39.3z"/>
	<path class="st7" d="M26.6,42.3l-0.1-0.5c-0.3,0-0.5,0.3-0.4,0.6c0,0.3,0.3,0.5,0.6,0.4l0,0l0,0h0l0,0c0,0,0,0,0,0c0,0,0,0,0,0l0,0
		c0,0,0,0,0.1,0c0.1,0,0.2,0,0.3,0c0.3,0,0.7,0.1,1.1,0.3c0.9,0.4,2,1.4,2.8,3.7c0.1,0.3,0.4,0.4,0.6,0.3c0.3-0.1,0.4-0.4,0.3-0.6
		c-0.8-2.6-2.1-3.8-3.3-4.4c-0.6-0.3-1.1-0.4-1.5-0.4c-0.2,0-0.4,0-0.5,0c-0.1,0-0.1,0-0.1,0c0,0,0,0,0,0l0,0l0,0l0,0l0,0
		C26.5,41.8,26.5,41.8,26.6,42.3z"/>
	<path class="st4" d="M67.1,39.3c0.4-0.8,1-1.5,1.8-2c0.8-0.5,1.7-0.6,2.6-0.5c5.5,0.7,4.6,15.6-2.5,14.9
		C60.9,50.9,67.1,39.3,67.1,39.3z"/>
	<path class="st7" d="M72.6,41.8c0,0,0,0-0.1,0.5L72.6,41.8c0.3,0,0.5,0.3,0.4,0.6c0,0.3-0.3,0.5-0.6,0.4l0.1-0.5
		c-0.1,0.5-0.1,0.5-0.1,0.5l0,0l0,0l0,0c0,0,0,0,0,0l0,0c0,0,0,0-0.1,0c-0.1,0-0.2,0-0.3,0c-0.3,0-0.7,0.1-1.1,0.3
		c-0.9,0.4-2,1.4-2.8,3.7c-0.1,0.3-0.4,0.4-0.6,0.3c-0.3-0.1-0.4-0.4-0.3-0.6c0.8-2.6,2.1-3.8,3.3-4.4c0.6-0.3,1.1-0.4,1.5-0.4
		c0.2,0,0.4,0,0.5,0C72.4,41.8,72.5,41.8,72.6,41.8C72.5,41.8,72.5,41.8,72.6,41.8L72.6,41.8L72.6,41.8L72.6,41.8L72.6,41.8z"/>
	<path class="st4" d="M31.5,38.1c0,0-1.9,26.4,17.1,27.1c19.5,0.7,19.2-26.9,19.2-26.9S70.6,18.6,49,18.6
		C29,18.7,31.5,38.1,31.5,38.1z"/>
	<path class="st5" d="M46.2,34.6c-3.7,0.4-7.3,1.3-10.7,2.6c-0.1,0-0.2,0.1-0.3,0.1c-0.1,0-0.2-0.1-0.3-0.1
		c-0.1-0.1-0.2-0.2-0.2-0.3c0-0.1,0-0.2,0-0.3c0.1-0.6,0.3-1.2,0.7-1.7c0.4-0.5,0.9-0.9,1.5-1.1c1.5-0.7,4.8-1.9,7.4-1.4
		c0.5,0.1,1,0.4,1.4,0.7c0.4,0.4,0.6,0.8,0.7,1.3c0,0,0,0.1,0,0.1c0,0,0,0.1,0,0.1C46.3,34.5,46.3,34.6,46.2,34.6
		C46.2,34.6,46.2,34.6,46.2,34.6z"/>
	<path class="st5" d="M51.7,34.6c3.7,0.4,7.2,1.3,10.7,2.6c0.1,0.1,0.2,0.1,0.3,0.1c0.1,0,0.2-0.1,0.3-0.1c0.1-0.1,0.2-0.2,0.2-0.3
		c0-0.1,0-0.2,0-0.3c-0.1-0.6-0.3-1.2-0.7-1.7c-0.4-0.5-0.9-0.9-1.5-1.1c-1.5-0.7-4.8-1.9-7.4-1.4c-0.5,0.1-1,0.4-1.4,0.7
		c-0.4,0.4-0.6,0.8-0.7,1.3c0,0,0,0.1,0,0.1c0,0,0,0.1,0,0.1C51.6,34.5,51.6,34.6,51.7,34.6C51.7,34.6,51.7,34.6,51.7,34.6z"/>
	<path class="st7" d="M48.2,47.8c0.3,0,0.5,0.2,0.5,0.5v2.1h1.7c0.3,0,0.5,0.2,0.5,0.5s-0.2,0.5-0.5,0.5h-2.2
		c-0.3,0-0.5-0.2-0.5-0.5v-2.6C47.7,48,47.9,47.8,48.2,47.8z"/>
	<path class="st7" d="M55.7,53.2c0.1,0.3,0,0.6-0.3,0.7c-3.9,1.6-8.4,1.7-12.4,0.3c-0.3-0.1-0.4-0.4-0.3-0.6
		c0.1-0.3,0.4-0.4,0.6-0.3c3.8,1.4,7.9,1.3,11.6-0.2C55.3,52.8,55.6,52.9,55.7,53.2z"/>
	<path class="st8" d="M55.6,47.1l-2.1-1.5l0.4-0.6l2.1,1.5L55.6,47.1z"/>
	<path class="st8" d="M41.8,46.5l2.6-1.5l0.4,0.6l-2.6,1.5L41.8,46.5z"/>
	<path class="st8" d="M51.2,57.3h-3.8v-0.8h3.8V57.3z"/>
	<path class="st0" d="M45.4,42.5c0,0-0.6-2.6-4.4-2.6c-4.1,0-5,2.9-5,2.9s1.3,2.9,5.3,2.4C45.1,44.8,45.4,42.5,45.4,42.5z"/>
	<path class="st5" d="M43.4,42.2c0,0.5-0.1,1-0.4,1.4c-0.3,0.4-0.7,0.7-1.1,0.9c-0.4,0.2-0.9,0.2-1.4,0.1c-0.5-0.1-0.9-0.3-1.3-0.7
		s-0.6-0.8-0.7-1.3c-0.1-0.5,0-1,0.1-1.4c0.2-0.4,0.5-0.8,0.9-1.1c0.4-0.3,0.9-0.4,1.4-0.4c0.3,0,0.6,0.1,0.9,0.2
		c0.3,0.1,0.6,0.3,0.8,0.5c0.2,0.2,0.4,0.5,0.5,0.8C43.3,41.6,43.4,41.9,43.4,42.2z"/>
	<path class="st0" d="M52.7,42.5c0,0,0.6-2.6,4.4-2.6c4.1,0,5,2.9,5,2.9s-1.3,2.9-5.3,2.4C52.9,44.8,52.7,42.5,52.7,42.5z"/>
	<path class="st5" d="M54.8,42.1c0,0.5,0.1,1,0.4,1.4c0.3,0.4,0.7,0.7,1.1,0.9c0.4,0.2,0.9,0.2,1.4,0.1c0.5-0.1,0.9-0.3,1.3-0.7
		c0.3-0.3,0.6-0.8,0.7-1.3c0.1-0.5,0-1-0.1-1.4S59,40.3,58.6,40c-0.4-0.3-0.9-0.4-1.4-0.4c-0.3,0-0.6,0.1-0.9,0.2
		c-0.3,0.1-0.6,0.3-0.8,0.5c-0.2,0.2-0.4,0.5-0.5,0.8C54.9,41.4,54.8,41.8,54.8,42.1z"/>
	<path class="st9" d="M39.6,35.3c-1.5,0-3.1,0.5-4.3,1.3c-1.3,0.9-2.3,2.1-2.9,3.5s-0.7,3-0.4,4.5c0.3,1.5,1,2.9,2.1,4
		c1.1,1.1,2.5,1.8,4,2.1c1.5,0.3,3.1,0.1,4.5-0.4c1.4-0.6,2.6-1.6,3.5-2.9c0.9-1.3,1.3-2.8,1.3-4.3l0.4,0h-0.4
		c0-2.1-0.8-4.1-2.3-5.5C43.7,36.1,41.7,35.3,39.6,35.3L39.6,35.3z M48.2,43c0,1.7-0.5,3.4-1.5,4.8c-0.9,1.4-2.3,2.5-3.9,3.2
		c-1.6,0.7-3.3,0.8-5,0.5c-1.7-0.3-3.2-1.2-4.4-2.4c-1.2-1.2-2-2.7-2.4-4.4c-0.3-1.7-0.2-3.4,0.5-5c0.7-1.6,1.8-2.9,3.2-3.9
		c1.4-0.9,3.1-1.5,4.8-1.5 M48.2,43c0-2.3-0.9-4.5-2.5-6.1c-1.6-1.6-3.8-2.5-6.1-2.5"/>
	<path class="st9" d="M58.9,35.3c-1.5,0-3.1,0.5-4.3,1.3c-1.3,0.9-2.3,2.1-2.9,3.5c-0.6,1.4-0.7,3-0.4,4.5c0.3,1.5,1,2.9,2.1,4
		c1.1,1.1,2.5,1.8,4,2.1c1.5,0.3,3.1,0.1,4.5-0.4c1.4-0.6,2.6-1.6,3.5-2.9c0.9-1.3,1.3-2.8,1.3-4.3c0-2.1-0.8-4.1-2.3-5.5
		C63,36.1,61,35.3,58.9,35.3z M54.2,35.9c1.4-0.9,3.1-1.5,4.8-1.5c2.3,0,4.5,0.9,6.1,2.5c1.6,1.6,2.5,3.8,2.5,6.1
		c0,1.7-0.5,3.4-1.5,4.8c-0.9,1.4-2.3,2.5-3.9,3.2c-1.6,0.7-3.3,0.8-5,0.5c-1.7-0.3-3.2-1.2-4.4-2.4c-1.2-1.2-2-2.7-2.4-4.4
		c-0.3-1.7-0.2-3.4,0.5-5C51.6,38.2,52.7,36.8,54.2,35.9z"/>
	<path class="st9" d="M49.3,43.1c-0.4,0-0.9,0.1-1.3,0.3l-0.4-0.7c0.5-0.3,1.1-0.4,1.6-0.4s1.1,0.1,1.6,0.4l-0.4,0.7
		C50.2,43.2,49.7,43.1,49.3,43.1z"/>
	<path class="st10" d="M38.6,35L47,46.4c0,0-2.5,4.8-6.6,4.3L32,39.6C32,39.6,34.3,34.7,38.6,35z"/>
	<path class="st10" d="M58.6,35L67,46.4c0,0-2.5,4.8-6.6,4.3L52,39.6C52,39.6,54.3,34.7,58.6,35z"/>
	<path class="st5" d="M33.2,23c0,0,1.4,4.4-1.7,18.6L29,36.8L33.2,23z"/>
	<path class="st5" d="M65.7,23c0,0-3.6,3.8,1.7,18.6l3.1-5L65.7,23z"/>
	<path class="st5" d="M63.9,17.9l-9.2-1.4l-0.8-1.7l-4.8,0.8l-4.8-0.8l-0.8,1.7l-9.2,1.4L33.1,23l0.3,5.9c0,0,1.4-6.7,6.5-5.4
		c1.2,0.3,2.6,0.8,4.3,1.2c1.5,0.3,2.9,0.5,4.4,0.5c0.2,0,0.3,0,0.5,0c0.2,0,0.3,0,0.5,0c1.5,0,3-0.2,4.4-0.5
		c1.5-0.3,2.9-0.7,4.3-1.2c4.7-1.7,6.4,5.1,6.4,5.1l0.4-5.6L63.9,17.9z"/>
	<path d="M57,39c4,0,5,3.5,5,3.5S59,40,57,40c-1.8,0-4.5,2.5-4.5,2.5S54,39,57,39z"/>
	<path d="M40.5,39c4,0,5,3.5,5,3.5s-3-2.5-5-2.5c-1.8,0-4.4,3-4.5,3C35.7,42.9,37,39,40.5,39z"/>
</g>
</svg>
