<svg width="137" height="80" viewBox="0 0 137 80" fill="none" xmlns="http://www.w3.org/2000/svg">
<path d="M59.4262 17.3384C59.1346 16.8761 58.7529 16.4772 58.3039 16.1656C57.8548 15.854 57.3475 15.6361 56.8124 15.5248C56.2772 15.4135 55.7251 15.4112 55.1891 15.518C54.653 15.6247 54.1439 15.8384 53.6923 16.1462C53.2406 16.454 52.8555 16.8497 52.5601 17.3096C52.2647 17.7695 52.065 18.2841 51.9728 18.8229C51.8806 19.3617 51.898 19.9135 52.0238 20.4454C52.1495 20.9774 52.3812 21.4785 52.7049 21.9189L56.4754 27.3167L62.8809 22.512L59.4262 17.3384Z" fill="#B1B1B1"/>
<path d="M84.5926 27.0636L82.946 24.9807C82.7503 24.7615 82.4891 24.6112 82.2011 24.5521C81.9132 24.4931 81.6139 24.5284 81.3477 24.6528L76.8154 26.7599L64.6818 25.1543L62.8833 22.5193L57.1842 26.7936L59.4865 29.865C59.8192 30.3096 60.254 30.6676 60.7541 30.9089C61.2543 31.1501 61.8051 31.2676 62.3602 31.2512H62.3939L76.2512 30.6871C77.1283 31.0314 78.1032 31.0314 78.9803 30.6871L81.3911 29.8385L81.948 30.3713C82.1228 30.5401 82.3503 30.644 82.5925 30.6655C82.8346 30.687 83.0768 30.6248 83.2787 30.4894L84.0454 29.9759C84.2937 29.8103 84.4881 29.5757 84.6047 29.3009L84.8602 28.6885C84.9748 28.4203 85.0105 28.1249 84.9631 27.8371C84.9157 27.5493 84.7872 27.281 84.5926 27.0636Z" fill="#B1B1B1"/>
<path d="M71.1789 63.7801V64.6866L86.338 64.5202V63.6137H85.7642C85.7642 63.6137 85.7642 61.2873 82.8906 60.8968C80.0169 60.5062 79.3539 60.6991 78.6982 59.8457C78.3823 59.3773 78.2105 58.8267 78.204 58.2618C78.2008 58.132 78.1467 58.0086 78.0533 57.9184C77.9599 57.8282 77.8348 57.7783 77.7049 57.7796H77.6278V55.5135H80.1929V52.4373H79.1659V39.4913V39.4117C79.1444 38.2533 78.6691 37.1497 77.8422 36.3382C77.0154 35.5266 75.903 35.0721 74.7445 35.0723H53.8211C53.8211 35.0723 50.716 43.9199 59.1948 43.9199H70.5256V52.4421H69.648V55.5327H71.9889L72.0829 57.8592C71.9585 57.8678 71.8422 57.9244 71.7586 58.017C71.675 58.1096 71.6305 58.2311 71.6345 58.3558L71.6948 63.7729" fill="#BC6A06"/>
<path d="M86.8755 26.8201L84.6191 18.7728C84.5272 18.4377 84.3285 18.1416 84.053 17.9297C83.7776 17.7178 83.4405 17.6016 83.093 17.5988H81.8539" stroke="#FBFBFB" stroke-width="1.53" stroke-miterlimit="10"/>
<path d="M81.3693 20.3206C81.9072 20.3206 82.3433 19.0189 82.3433 17.4132C82.3433 15.8074 81.9072 14.5057 81.3693 14.5057C80.8314 14.5057 80.3954 15.8074 80.3954 17.4132C80.3954 19.0189 80.8314 20.3206 81.3693 20.3206Z" fill="#FBFBFB"/>
<path d="M91.2153 28.7764C91.4872 27.094 90.3437 25.5097 88.6613 25.2378C86.9789 24.9659 85.3946 26.1094 85.1227 27.7918C84.8508 29.4743 85.9943 31.0585 87.6767 31.3304C89.3591 31.6023 90.9434 30.4589 91.2153 28.7764Z" fill="#FBFBFB"/>
<path d="M87.946 24.3707H84.9976C84.3878 24.3707 83.8934 24.8651 83.8934 25.4749V31.0944C83.8934 31.7042 84.3878 32.1986 84.9976 32.1986H87.946C88.5558 32.1986 89.0501 31.7042 89.0501 31.0944V25.4749C89.0501 24.8651 88.5558 24.3707 87.946 24.3707Z" fill="#C10748"/>
<path d="M25.4099 59.6914H21.0054V62.7121H25.4099V59.6914Z" fill="#070924"/>
<path d="M99.8721 79.8698C106.624 79.8698 112.097 74.3964 112.097 67.6446C112.097 60.8928 106.624 55.4194 99.8721 55.4194C93.1204 55.4194 87.647 60.8928 87.647 67.6446C87.647 74.3964 93.1204 79.8698 99.8721 79.8698Z" fill="#070924"/>
<path d="M99.8722 75.4218C104.167 75.4218 107.649 71.9398 107.649 67.6446C107.649 63.3493 104.167 59.8673 99.8722 59.8673C95.577 59.8673 92.095 63.3493 92.095 67.6446C92.095 71.9398 95.577 75.4218 99.8722 75.4218Z" fill="#FBC4D7"/>
<path d="M97.6061 67.6446C97.6061 68.0928 97.739 68.5309 97.988 68.9036C98.237 69.2762 98.5909 69.5667 99.005 69.7382C99.4191 69.9097 99.8747 69.9546 100.314 69.8672C100.754 69.7797 101.158 69.5639 101.475 69.247C101.792 68.9301 102.007 68.5263 102.095 68.0867C102.182 67.6471 102.137 67.1914 101.966 66.7773C101.794 66.3633 101.504 66.0093 101.131 65.7603C100.759 65.5113 100.32 65.3784 99.8722 65.3784C99.2712 65.3784 98.6948 65.6172 98.2698 66.0422C97.8448 66.4671 97.6061 67.0435 97.6061 67.6446Z" fill="white"/>
<path d="M99.9036 50.6749C104.15 50.6749 108.223 52.362 111.226 55.3649C114.229 58.3678 115.916 62.4407 115.916 66.6875H83.8959C83.8959 62.4415 85.5822 58.3694 88.5841 55.3666C91.586 52.3638 95.6576 50.6762 99.9036 50.6749Z" fill="#C10748"/>
<path d="M37.7337 26.1234H21.6658V30.634H37.7337V26.1234Z" fill="#F28F16"/>
<path d="M39.3683 30.5713H20.0312V44.7612H39.3683V30.5713Z" fill="white"/>
<path d="M28.5824 26.1234L27.9026 45.1711" stroke="#070924" stroke-width="1.13" stroke-miterlimit="10"/>
<path d="M30.0555 26.1234L30.7354 45.1711" stroke="#070924" stroke-width="1.13" stroke-miterlimit="10"/>
<path d="M17.1746 45.1711H41.6996" stroke="#070924" stroke-width="3.42" stroke-miterlimit="10"/>
<path d="M25.4171 45.1711L30.8776 49.1707" stroke="#070924" stroke-width="3.42" stroke-miterlimit="10"/>
<path d="M85.082 25.6051L78.8139 29.2213L84.3587 41.7575C84.3587 41.7575 88.1654 48.5077 85.6919 54.4407C82.9026 61.121 79.6914 64.6071 79.6914 64.6071H67.2276C65.9749 64.6065 64.7414 64.2984 63.6356 63.71C62.5297 63.1215 61.5851 62.2706 60.8848 61.2319C59.3997 59.0333 58.1123 56.0029 59.1562 52.8978C61.0222 47.3529 66.4923 44.8095 66.4923 44.8095H36.4031C36.4031 44.8095 31.15 46.3621 23.3848 59.7155H26.8515L49.3828 66.7069H79.4142C79.4142 66.7069 82.8761 67.8737 87.6446 60.2146L95.3592 52.893C95.3652 49.2839 94.2209 45.7667 92.0926 42.852L85.082 33.269V25.6051Z" fill="#D60B52"/>
<path d="M61.7985 45.3568C62.4282 45.3543 63.0339 45.5983 63.486 46.0366C64.554 47.0732 66.7358 48.7897 68.3341 47.3577C70.5304 45.3929 68.5752 42.0998 65.2146 42.3891C61.8539 42.6784 50.8824 42.7362 46.837 40.54C42.7917 38.3437 41.2319 38.228 39.9614 39.6142C38.691 41.0004 40.7136 44.8577 44.4696 45.3568H61.7985Z" fill="#070924"/>
<path d="M39.2696 79.8698C46.0214 79.8698 51.4948 74.3964 51.4948 67.6446C51.4948 60.8928 46.0214 55.4194 39.2696 55.4194C32.5178 55.4194 27.0444 60.8928 27.0444 67.6446C27.0444 74.3964 32.5178 79.8698 39.2696 79.8698Z" fill="#070924"/>
<path d="M39.2696 75.4218C43.5648 75.4218 47.0468 71.9398 47.0468 67.6446C47.0468 63.3493 43.5648 59.8673 39.2696 59.8673C34.9743 59.8673 31.4923 63.3493 31.4923 67.6446C31.4923 71.9398 34.9743 75.4218 39.2696 75.4218Z" fill="#FBC4D7"/>
<path d="M37.0034 67.6446C37.0034 68.0928 37.1363 68.5309 37.3853 68.9036C37.6343 69.2762 37.9883 69.5667 38.4023 69.7382C38.8164 69.9097 39.2721 69.9546 39.7117 69.8672C40.1513 69.7797 40.555 69.5639 40.872 69.247C41.1889 68.9301 41.4047 68.5263 41.4922 68.0867C41.5796 67.6471 41.5347 67.1914 41.3632 66.7773C41.1917 66.3633 40.9012 66.0093 40.5286 65.7603C40.1559 65.5113 39.7178 65.3784 39.2696 65.3784C38.6685 65.3784 38.0921 65.6172 37.6672 66.0422C37.2422 66.4671 37.0034 67.0435 37.0034 67.6446Z" fill="white"/>
<path d="M22.4927 65.1422C22.4927 65.1422 24.2791 53.5703 37.078 48.5968C49.877 43.6233 54.7444 50.6484 55.429 51.9719C56.5645 54.1585 58.0809 60.7569 53.8331 65.1446L22.4927 65.1422Z" fill="#C10748"/>
<path d="M31.9093 61.5502H46.1161C46.1777 61.5502 46.2388 61.538 46.2957 61.5143C46.3526 61.4907 46.4042 61.456 46.4477 61.4123C46.4912 61.3686 46.5256 61.3168 46.5489 61.2598C46.5723 61.2028 46.5841 61.1417 46.5838 61.0801C46.5858 61.0174 46.5751 60.9551 46.5525 60.8966C46.5298 60.8382 46.4957 60.7849 46.4521 60.74C46.4084 60.695 46.3562 60.6592 46.2985 60.6348C46.2408 60.6104 46.1788 60.5979 46.1161 60.5979H31.9093C31.7814 60.5979 31.6588 60.6487 31.5683 60.7391C31.4779 60.8295 31.4271 60.9522 31.4271 61.0801C31.4303 61.2058 31.4825 61.3254 31.5725 61.4132C31.6626 61.5011 31.7835 61.5502 31.9093 61.5502Z" fill="#A4013A"/>
<path d="M33.4956 59.2888H44.865C44.9276 59.2908 44.99 59.2801 45.0484 59.2575C45.1068 59.2349 45.1601 59.2007 45.2051 59.1571C45.25 59.1135 45.2858 59.0612 45.3102 59.0035C45.3346 58.9458 45.3471 58.8838 45.3471 58.8212C45.3471 58.6933 45.2963 58.5706 45.2059 58.4802C45.1155 58.3898 44.9928 58.339 44.865 58.339H33.4956C33.3698 58.3421 33.2503 58.3943 33.1624 58.4844C33.0746 58.5745 33.0255 58.6953 33.0255 58.8212C33.0255 58.8828 33.0377 58.9438 33.0613 59.0007C33.085 59.0576 33.1197 59.1093 33.1633 59.1527C33.207 59.1962 33.2589 59.2306 33.3159 59.2539C33.3729 59.2773 33.434 59.2892 33.4956 59.2888Z" fill="#A4013A"/>
<path d="M35.0867 57.0757H43.2328C43.3565 57.0726 43.4743 57.0221 43.5618 56.9346C43.6493 56.8471 43.6999 56.7293 43.7029 56.6056C43.7029 56.4798 43.6538 56.3589 43.566 56.2688C43.4781 56.1787 43.3586 56.1266 43.2328 56.1234H35.0867C34.9614 56.1272 34.8424 56.1796 34.7551 56.2696C34.6678 56.3597 34.619 56.4802 34.619 56.6056C34.6187 56.6672 34.6306 56.7283 34.6539 56.7853C34.6773 56.8423 34.7117 56.8942 34.7552 56.9378C34.7986 56.9815 34.8503 57.0162 34.9072 57.0399C34.9641 57.0635 35.0251 57.0757 35.0867 57.0757Z" fill="#A4013A"/>
<path d="M60.246 8.36536L57.3675 15.9184L52.288 14.6865L55.8584 7.67346L60.246 8.36536Z" fill="#D59395"/>
<path d="M56.6177 7.43005C56.6177 7.43005 56.326 10.9474 58.2064 13.7126L59.1346 11.2463L56.6177 7.43005Z" fill="#BD7980"/>
<path d="M62.6109 4.40925L63.1099 9.44059C63.1392 9.73582 63.1101 10.0339 63.0242 10.3179C62.9383 10.6019 62.7973 10.8661 62.6092 11.0956C62.4212 11.325 62.1898 11.5152 61.9282 11.6552C61.6667 11.7953 61.3801 11.8824 61.0849 11.9117C60.2101 11.9866 59.3343 11.78 58.5853 11.322C57.8363 10.864 57.2533 10.1786 56.9214 9.36585L55.2989 5.54474C55.2145 5.3433 55.1785 5.12487 55.1939 4.907C55.2092 4.68914 55.2755 4.47791 55.3874 4.29032C55.4992 4.10273 55.6535 3.944 55.8379 3.8269C56.0223 3.7098 56.2315 3.6376 56.4489 3.6161L60.458 2.77714C61.2343 2.7024 62.5361 3.64262 62.6109 4.40925Z" fill="#D59395"/>
<path d="M62.7557 6.65857L63.7875 7.90978C63.9104 8.12193 63.6911 8.37024 63.3921 8.35577L61.8757 8.63784L62.7557 6.65857Z" fill="#D59395"/>
<path d="M57.0468 4.55151C57.0468 4.55151 58.5559 5.10118 58.04 6.31863C57.6085 7.3384 57.9074 9.16337 59.2454 8.76318C60.5834 8.36299 61.9793 8.00137 63.0111 8.42567L63.3269 9.79742C63.4571 10.3454 63.3672 10.9225 63.0765 11.4049C62.7857 11.8873 62.3173 12.2363 61.7719 12.377L61.7117 12.3914C59.6697 12.8736 56.4296 11.9864 56.4827 8.37745L56.1066 5.0626L57.0468 4.55151Z" fill="#070924"/>
<path d="M55.904 2.71931C55.5617 2.77958 52.7893 2.68556 52.77 5.77139C52.7555 7.73619 54.3949 9.92761 54.4093 9.90832C54.4238 9.88904 55.4219 9.84564 55.7039 8.40157C55.7415 8.26571 55.7511 8.12362 55.732 7.98395C55.713 7.84428 55.6657 7.70995 55.593 7.58913L57.7411 4.82153C57.7411 4.82153 57.1384 4.3683 58.0762 3.81623C59.7637 2.83021 61.6731 3.22076 61.6731 3.22076C61.1427 1.42471 56.2464 2.65181 55.904 2.71931Z" fill="#070924"/>
<path d="M54.002 7.02504C53.9 7.27741 53.8713 7.55343 53.9192 7.82138C53.967 8.08933 54.0895 8.33834 54.2726 8.53978C54.4557 8.74122 54.6918 8.88693 54.954 8.96014C55.2162 9.03336 55.4937 9.03112 55.7546 8.95368C56.0124 8.87195 56.2409 8.71697 56.4121 8.50764C56.5833 8.29831 56.6899 8.04368 56.7189 7.7748C56.7504 7.5009 56.7022 7.22373 56.58 6.97658C56.4578 6.72944 56.2669 6.52281 56.0301 6.38153C55.7934 6.24024 55.5209 6.1703 55.2454 6.18011C54.9698 6.18991 54.703 6.27904 54.4769 6.4368C54.2588 6.57596 54.092 6.78249 54.002 7.02504Z" fill="#D59395"/>
<path d="M55.5569 6.99133C55.5569 6.99133 54.554 7.12634 55.0554 8.13405" stroke="#070924" stroke-width="1.02" stroke-linecap="round" stroke-linejoin="round"/>
<path d="M62.1986 3.08583L67.5892 2.28785C67.6602 2.28106 67.7314 2.29994 67.7898 2.34106C67.8481 2.38218 67.8899 2.44284 67.9074 2.51206C67.9222 2.5512 67.9284 2.59306 67.9257 2.63482C67.9229 2.67658 67.9111 2.71725 67.8912 2.75407C67.8713 2.79088 67.8438 2.82299 67.8104 2.84821C67.7769 2.87342 67.7385 2.89115 67.6977 2.9002L62.6808 3.89345C62.6314 3.90404 62.5804 3.90477 62.5307 3.89559C62.481 3.8864 62.4337 3.86749 62.3913 3.83993C62.349 3.81237 62.3125 3.77672 62.284 3.73501C62.2555 3.69331 62.2355 3.64638 62.2252 3.59692C62.1842 3.392 61.9841 3.27628 62.2035 3.2353C62.2131 3.23289 62.1986 3.08824 62.1986 3.08583Z" fill="#070924"/>
<path d="M52.5097 6.04625L62.8569 3.87653C62.8569 3.87653 61.8202 -0.945069 56.5598 0.180775C51.3501 1.27769 52.5097 6.04625 52.5097 6.04625Z" fill="#D60B52"/>
<path d="M62.2155 6.7237C62.2116 6.78254 62.1904 6.83892 62.1546 6.88574C62.1187 6.93256 62.0698 6.96773 62.014 6.98682C61.9582 7.00591 61.898 7.00806 61.841 6.99302C61.7839 6.97797 61.7326 6.94639 61.6935 6.90226C61.6544 6.85812 61.6292 6.80341 61.6211 6.74499C61.613 6.68657 61.6224 6.62706 61.648 6.57396C61.6737 6.52085 61.7145 6.47652 61.7653 6.44654C61.816 6.41656 61.8746 6.40227 61.9334 6.40547C62.013 6.41044 62.0873 6.44671 62.1402 6.50635C62.193 6.56599 62.2201 6.64414 62.2155 6.7237Z" fill="black"/>
<path d="M62.1455 5.28448C62.2275 5.54485 61.8104 5.63887 61.321 5.76665C60.8316 5.89442 60.417 5.94746 60.3712 5.72084C60.3254 5.49422 60.7063 5.36645 61.1957 5.23868C61.6851 5.11091 62.078 5.06269 62.1455 5.28448Z" fill="#070924"/>
<path d="M61.2344 8.98743C61.2344 8.98743 61.514 9.52986 62.6616 9.22851" stroke="white" stroke-width="0.77" stroke-linecap="round" stroke-linejoin="round"/>
<path d="M54.9444 13.7415C54.9444 13.7415 52.3817 13.0182 50.8461 15.634C49.0283 18.7439 49.4647 23.6812 50.9545 27.6735L51.591 35.0964H63.8282C63.8282 35.0964 64.3803 26.9141 62.0201 21.6803C58.9078 14.7781 54.9444 13.7415 54.9444 13.7415Z" fill="white"/>
<path d="M62.2613 24.0018L64.5154 27.3046C65.0027 28.0183 65.2065 28.888 65.0871 29.7439C64.9676 30.5998 64.5334 31.3804 63.8693 31.9334C63.5066 32.2345 63.0864 32.4587 62.6343 32.5924C62.1823 32.726 61.7077 32.7663 61.2396 32.7109C60.7715 32.6554 60.3195 32.5053 59.9112 32.2697C59.5029 32.0341 59.1467 31.7179 58.8645 31.3403L56.5621 28.2665L62.2613 24.0018Z" fill="#D59395"/>
<path d="M62.2204 24.0019L58.7657 18.8211C58.442 18.3355 58.0177 17.9252 57.5215 17.6181C57.0253 17.3109 56.4688 17.1141 55.8899 17.0409C55.3109 16.9677 54.723 17.0199 54.1659 17.194C53.6089 17.368 53.0959 17.6598 52.6616 18.0496C51.9225 18.7138 51.4518 19.6253 51.3381 20.6124C51.2245 21.5995 51.4757 22.5941 52.0444 23.4088L55.8149 28.8042L62.2204 24.0019Z" fill="white"/>
<path d="M62.2614 24.0019L59.1345 19.3635" stroke="#D1D1D1" stroke-width="1.07" stroke-miterlimit="10"/>
<path d="M56.5621 28.2737L55.8148 28.8041L51.4946 22.2877" stroke="#D1D1D1" stroke-width="1.07" stroke-miterlimit="10"/>
<path d="M62.165 26.3861L76.1935 28.2401L75.6294 32.1721L61.7721 32.7386C59.4505 32.4083 57.8111 30.5882 58.573 28.3702C59.1612 26.6586 60.3762 26.1041 62.165 26.3861Z" fill="#D59395"/>
<path d="M75.1496 28.7247L80.7258 26.1331C80.9923 26.0098 81.2912 25.9751 81.5789 26.0341C81.8665 26.0931 82.1277 26.2427 82.3241 26.461L83.9731 28.5463C84.1679 28.764 84.2965 29.0328 84.3439 29.321C84.3913 29.6092 84.3555 29.905 84.2407 30.1736L83.9827 30.7787C83.8664 31.0529 83.6729 31.2874 83.4259 31.4537L82.6592 31.9648C82.4572 32.1008 82.2148 32.1634 81.9722 32.1424C81.7296 32.1213 81.5016 32.0178 81.326 31.8491L80.7619 31.3139L78.3511 32.1625C78.3511 32.1625 76.5478 33.0425 74.4601 31.555L75.1496 28.7247Z" fill="#D59395"/>
<path d="M79.3009 29.5876L78.11 30.3109C77.9424 30.4566 77.8072 30.6358 77.7133 30.837C77.6193 31.0382 77.5687 31.2569 77.5646 31.4789C77.5605 31.7009 77.6031 31.9213 77.6895 32.1259C77.776 32.3304 77.9045 32.5145 78.0666 32.6662C78.2195 32.8094 78.3993 32.9209 78.5956 32.9942C78.7918 33.0675 79.0007 33.1012 79.21 33.0933C79.4194 33.0855 79.6251 33.0362 79.8153 32.9484C80.0055 32.8607 80.1765 32.7361 80.3183 32.5819L81.4273 31.7694C81.5641 31.6208 81.6701 31.4464 81.7391 31.2565C81.808 31.0665 81.8386 30.8647 81.8289 30.6629C81.8193 30.461 81.7697 30.2631 81.6829 30.0806C81.5962 29.8981 81.474 29.7346 81.3236 29.5997C81.0463 29.3506 80.6873 29.2118 80.3145 29.2096C79.9418 29.2074 79.5812 29.3419 79.3009 29.5876Z" fill="#070924"/>
<path d="M69.6577 52.9966L75.4147 53.4474L75.393 58.8934L69.8843 58.973L69.6577 52.9966Z" fill="white"/>
<path d="M69.3925 58.3558L69.4552 63.7729L83.5294 63.621C83.5294 63.621 83.5294 61.2922 80.6582 60.9016C77.7869 60.5111 77.1215 60.7039 76.4634 59.8505C76.1475 59.3821 75.9757 58.8315 75.9691 58.2666C75.966 58.1368 75.9119 58.0134 75.8185 57.9232C75.7251 57.833 75.6 57.7831 75.4701 57.7844L69.8819 57.8495C69.8164 57.8502 69.7516 57.8638 69.6914 57.8897C69.6312 57.9155 69.5768 57.9531 69.5312 58.0002C69.4857 58.0474 69.45 58.1031 69.4261 58.1641C69.4023 58.2251 69.3909 58.2903 69.3925 58.3558Z" fill="#070924"/>
<path d="M68.9529 64.6895L84.1111 64.5228L84.1011 63.6164L68.9429 63.7831L68.9529 64.6895Z" fill="#070924"/>
<path d="M75.1375 59.5467C75.138 59.5893 75.1511 59.6307 75.1752 59.6658C75.1992 59.7008 75.2332 59.7279 75.2727 59.7437C75.3123 59.7594 75.3556 59.763 75.3971 59.754C75.4387 59.7451 75.4767 59.724 75.5063 59.6934C75.5358 59.6628 75.5556 59.6241 75.5632 59.5823C75.5707 59.5404 75.5656 59.4973 75.5486 59.4583C75.5315 59.4193 75.5033 59.3863 75.4674 59.3634C75.4316 59.3405 75.3897 59.3288 75.3472 59.3298C75.2907 59.331 75.237 59.3545 75.1977 59.3951C75.1585 59.4358 75.1368 59.4902 75.1375 59.5467Z" fill="#DBDADB"/>
<path d="M75.8027 60.4869C75.7995 60.5168 75.8027 60.5471 75.812 60.5757C75.8212 60.6043 75.8364 60.6307 75.8565 60.6531C75.8767 60.6754 75.9013 60.6933 75.9287 60.7056C75.9562 60.7178 75.986 60.7242 76.0161 60.7242C76.0462 60.7242 76.0759 60.7178 76.1034 60.7056C76.1309 60.6933 76.1555 60.6754 76.1756 60.6531C76.1958 60.6307 76.211 60.6043 76.2202 60.5757C76.2295 60.5471 76.2326 60.5168 76.2295 60.4869C76.2239 60.4342 76.199 60.3855 76.1596 60.3501C76.1202 60.3146 76.0691 60.295 76.0161 60.295C75.9631 60.295 75.912 60.3146 75.8726 60.3501C75.8332 60.3855 75.8083 60.4342 75.8027 60.4869Z" fill="#DBDADB"/>
<path d="M77.0348 61.056C77.0316 61.0859 77.0347 61.1162 77.044 61.1448C77.0533 61.1734 77.0685 61.1998 77.0886 61.2222C77.1087 61.2445 77.1333 61.2624 77.1608 61.2747C77.1883 61.2869 77.218 61.2933 77.2481 61.2933C77.2782 61.2933 77.308 61.2869 77.3355 61.2747C77.363 61.2624 77.3876 61.2445 77.4077 61.2222C77.4278 61.1998 77.443 61.1734 77.4523 61.1448C77.4615 61.1162 77.4647 61.0859 77.4615 61.056C77.4615 61.028 77.4559 61.0004 77.4451 60.9746C77.4342 60.9488 77.4184 60.9255 77.3984 60.9059C77.3784 60.8864 77.3547 60.8711 77.3287 60.8608C77.3027 60.8506 77.2749 60.8456 77.2469 60.8462C77.1911 60.8462 77.1375 60.8683 77.0978 60.9075C77.058 60.9468 77.0354 61.0001 77.0348 61.056Z" fill="#DBDADB"/>
<path d="M78.4692 61.2536C78.4692 61.2962 78.4819 61.3379 78.5057 61.3732C78.5295 61.4086 78.5633 61.4361 78.6028 61.4522C78.6423 61.4683 78.6856 61.4722 78.7274 61.4636C78.7691 61.4549 78.8074 61.434 78.8372 61.4035C78.867 61.373 78.887 61.3343 78.8947 61.2924C78.9025 61.2504 78.8975 61.2072 78.8805 61.168C78.8636 61.1289 78.8353 61.0958 78.7994 61.0728C78.7635 61.0498 78.7215 61.038 78.6789 61.039C78.651 61.039 78.6233 61.0446 78.5975 61.0554C78.5717 61.0662 78.5484 61.0821 78.5289 61.1021C78.5093 61.1221 78.494 61.1458 78.4837 61.1718C78.4735 61.1978 78.4685 61.2256 78.4692 61.2536Z" fill="#DBDADB"/>
<path d="M69.4551 63.7729L83.5294 63.621" stroke="white" stroke-width="0.61" stroke-miterlimit="10"/>
<path d="M76.9431 39.4117H68.2834V55.528H76.9431V39.4117Z" fill="#F28F16"/>
<path d="M77.9702 52.4373H67.4133V55.5279H77.9702V52.4373Z" fill="#E4840E"/>
<path d="M51.5912 35.0675C51.5912 35.0675 48.4837 43.9151 56.9625 43.9151H72.5242C73.6971 43.9145 74.8217 43.4481 75.6508 42.6186C76.4799 41.789 76.9456 40.6642 76.9456 39.4913C76.9456 38.3185 76.4799 37.1936 75.6508 36.3641C74.8217 35.5345 73.6971 35.0681 72.5242 35.0675H51.5912Z" fill="#F28F16"/>
<path d="M68.2834 44.0959H71.1017" stroke="#070924" stroke-width="1.07" stroke-miterlimit="10"/>
<path d="M0 79.8698H136.596" stroke="white" stroke-width="1.07" stroke-miterlimit="10"/>
<path d="M83.269 17.6157V21.5357C83.269 21.5357 84.1008 21.4079 84.1008 19.366C84.1008 17.324 83.269 17.6157 83.269 17.6157Z" fill="#F28F16"/>
<path d="M86.2246 25.1687L85.5424 20.3833C85.5241 20.2493 85.4606 20.1256 85.3624 20.0326C85.2642 19.9397 85.1372 19.8831 85.0024 19.8722L83.6692 19.7517L83.7029 19.3828L85.0361 19.5034C85.2541 19.5221 85.4592 19.6144 85.6178 19.7651C85.7764 19.9158 85.879 20.1159 85.9088 20.3327L86.5911 25.1181L86.2246 25.1687Z" fill="#F28F16"/>
</svg>
