<svg width="50" height="14" viewBox="0 0 50 14" fill="none" xmlns="http://www.w3.org/2000/svg">
<path d="M9.28121 0.720462C10.5734 1.41195 11.3625 2.61978 11.6483 4.34395H9.88324C9.8161 3.92318 9.66573 3.5201 9.44095 3.15836C9.21617 2.79663 8.92152 2.48354 8.57429 2.23748C7.82465 1.77057 6.95241 1.53976 6.07041 1.57493C5.49807 1.56626 4.93091 1.68469 4.40967 1.9217C3.88843 2.15871 3.42605 2.50843 3.05573 2.94573C2.23479 3.86264 1.82432 5.2304 1.82432 7.04899C1.76553 8.39942 2.12042 9.73555 2.84137 10.8781C3.51333 11.8529 4.61096 12.3403 6.13427 12.3403C7.19645 12.3779 8.23273 12.0068 9.03037 11.303C9.79658 10.6085 10.1888 9.48902 10.2071 7.94458H6.10234V6.48239H11.8581V13.542H10.7179L10.2846 11.8468C9.83443 12.3846 9.30176 12.8474 8.70655 13.2176C7.80252 13.6933 6.78982 13.9233 5.7694 13.8847C4.30963 13.9098 2.89648 13.3697 1.82432 12.3768C0.608106 11.1066 0 9.3626 0 7.14495C0 4.9273 0.589863 3.16963 1.76959 1.87193C2.31275 1.25992 2.98375 0.775204 3.73492 0.452217C4.4861 0.129229 5.29904 -0.0241134 6.11602 0.0030758C7.21428 -0.025852 8.30233 0.220753 9.28121 0.720462Z" fill="#272827"/>
<path d="M19.1781 4.33021C19.7315 4.59941 20.2036 5.01096 20.5463 5.52281C20.8628 6.01385 21.0711 6.56685 21.1574 7.14492C21.2674 7.81374 21.3132 8.49157 21.2943 9.16914H14.6355C14.6253 9.97027 14.854 10.7562 15.2923 11.4264C15.5132 11.7148 15.8023 11.9435 16.1336 12.0919C16.4648 12.2402 16.8277 12.3036 17.1895 12.2763C17.5475 12.2916 17.9045 12.2275 18.2349 12.0885C18.5652 11.9494 18.8608 11.739 19.1005 11.4721C19.3688 11.1607 19.5623 10.7918 19.6661 10.3937H21.1848C21.1231 10.7912 20.9886 11.1739 20.788 11.5223C20.5895 11.899 20.3341 12.2427 20.0309 12.5413C19.5522 13.0005 18.9552 13.317 18.3069 13.4552C17.8959 13.5512 17.4748 13.5972 17.0527 13.5923C16.5104 13.6008 15.9725 13.4935 15.4747 13.2776C14.9769 13.0618 14.5307 12.7422 14.1657 12.3403C13.3752 11.5086 12.9815 10.3435 12.9845 8.84471C12.9266 7.53878 13.3503 6.25715 14.1749 5.24408C14.5592 4.79608 15.039 4.44031 15.579 4.20305C16.1189 3.96578 16.7052 3.85308 17.2944 3.87328C17.9495 3.8747 18.5949 4.03127 19.1781 4.33021ZM19.7299 7.94455C19.6965 7.38442 19.5491 6.83705 19.2966 6.33615C19.0878 5.9697 18.7792 5.67032 18.4069 5.47291C18.0346 5.2755 17.614 5.18822 17.1941 5.22123C16.8621 5.21473 16.5327 5.27992 16.2281 5.41238C15.9235 5.54485 15.651 5.74147 15.4291 5.98888C14.9421 6.52337 14.6721 7.22088 14.672 7.94455H19.7299Z" fill="#272827"/>
<path d="M22.8724 1.51093H24.4322V4.07889H25.9007V5.34003H24.4322V11.3441C24.4169 11.4721 24.4399 11.6016 24.4984 11.7164C24.5569 11.8311 24.6481 11.9258 24.7605 11.9884C24.951 12.061 25.1546 12.0921 25.358 12.0798H25.5997L25.9007 12.0524V13.2541C25.7191 13.3088 25.5328 13.3471 25.3443 13.3684C25.1384 13.3912 24.9313 13.4019 24.7241 13.4003C24.0034 13.4003 23.5154 13.2176 23.26 12.8474C22.9897 12.4242 22.8544 11.9285 22.8724 11.4264V5.34003H21.6318V4.07889H22.8724V1.51093Z" fill="#272827"/>
<path d="M38.7119 6.8114C38.7607 6.54826 38.8718 6.30067 39.036 6.08945C38.8594 6.29296 38.7467 6.54409 38.7119 6.8114Z" fill="url(#paint0_linear)"/>
<path d="M49.9864 5.74667V4.00118H48.4676V1.37381H46.0641V4.00118L43.396 4.02403C43.6601 4.11095 43.8952 4.26904 44.0756 4.48096C44.3843 4.84808 44.5891 5.2915 44.6685 5.76494H46.0641V11.5223C46.0251 11.9921 46.1726 12.4584 46.4745 12.82C46.8987 13.2769 47.6877 13.4597 48.8416 13.4232L50 13.3775V11.5497H49.7537H49.5212C49.2098 11.5909 48.8933 11.5417 48.609 11.4081C48.4821 11.1918 48.4308 10.9394 48.463 10.6907V5.74667H49.9864Z" fill="url(#paint1_linear)"/>
<path d="M44.4541 12.6328C44.3544 12.4297 44.3044 12.2057 44.3082 11.9793C44.3082 11.5544 44.3082 11.1934 44.3082 10.8964V6.60124C44.3112 6.31356 44.2791 6.0266 44.2124 5.74677C44.1505 5.43835 44.0193 5.14808 43.8289 4.89792C43.6385 4.64777 43.3938 4.44428 43.1133 4.30286C42.8797 4.18366 42.6373 4.08283 42.3881 4.00129C41.7387 3.79048 41.0594 3.68708 40.3768 3.69514C38.7988 3.69514 37.6859 4.10638 37.0383 4.92886C36.659 5.43754 36.4285 6.0419 36.3724 6.67435C36.3385 7.3258 36.3385 7.97857 36.3724 8.63002C36.6336 8.24319 36.9881 7.92882 37.4032 7.71616C37.8059 7.50959 38.2336 7.35601 38.6756 7.25922H38.744C38.7328 7.11779 38.7328 6.9757 38.744 6.83427C38.7788 6.56696 38.8914 6.31584 39.0678 6.11232C39.2305 5.95394 39.426 5.83336 39.6404 5.75913C39.8547 5.6849 40.0828 5.65884 40.3084 5.6828C40.7154 5.66004 41.1221 5.73524 41.4942 5.90213C41.6307 5.98184 41.7415 6.09912 41.8134 6.24006C41.8854 6.38099 41.9155 6.53965 41.9001 6.69719C41.8962 6.85403 41.8429 7.00563 41.7479 7.13035C41.6529 7.25507 41.521 7.34654 41.371 7.39173C41.0556 7.50261 40.7278 7.57473 40.395 7.60649L39.5604 7.70702C39.2183 7.75271 38.9082 7.80297 38.6482 7.86694C38.2173 7.95677 37.8022 8.11079 37.4168 8.32388C36.9544 8.58132 36.5843 8.97768 36.3587 9.45707C36.1653 9.88756 36.0703 10.3559 36.0805 10.8279C36.0583 11.2108 36.1213 11.5939 36.2648 11.9495C36.4084 12.3051 36.6289 12.6243 36.9106 12.8841C37.5016 13.3773 38.2536 13.6344 39.0222 13.606C39.6494 13.6145 40.2677 13.4569 40.8146 13.1491C41.2411 12.8818 41.6267 12.5539 41.9594 12.1758C41.9704 12.3659 41.9932 12.5552 42.0278 12.7424C42.0532 12.9173 42.0976 13.0889 42.1601 13.2542H44.8144V12.8978C44.6743 12.8407 44.5504 12.7497 44.4541 12.6328ZM41.859 9.63528C41.859 10.4532 41.6082 11.0061 41.1567 11.3259C40.7252 11.6283 40.2101 11.7881 39.6835 11.7829C39.374 11.793 39.0707 11.6944 38.8261 11.5041C38.6992 11.3908 38.601 11.2488 38.54 11.0898C38.4789 10.9309 38.4566 10.7596 38.4749 10.5903C38.4636 10.3807 38.5115 10.1722 38.6131 9.98872C38.7148 9.80523 38.8661 9.65421 39.0496 9.55303C39.403 9.3805 39.7818 9.26632 40.1716 9.2149L40.728 9.14179C40.9513 9.10444 41.1711 9.04788 41.3847 8.97272C41.5434 8.90893 41.6961 8.83094 41.8408 8.73969L41.859 9.63528Z" fill="url(#paint2_linear)"/>
<path d="M35.5741 11.4265C35.5599 11.1207 35.5782 10.8144 35.6289 10.5126C35.0068 10.9087 34.3266 11.2048 33.613 11.3899C32.8157 11.6063 31.9878 11.6866 31.1638 11.6275C30.6861 11.6226 30.2167 11.5019 29.7956 11.2757C29.477 11.0584 29.2195 10.7628 29.0478 10.4171C28.8761 10.0714 28.7959 9.68735 28.815 9.30171H35.6243C35.6475 8.6806 35.62 8.05863 35.5422 7.44199C35.4487 6.74126 35.1943 6.07182 34.7988 5.48632C34.4013 4.88523 33.8413 4.40981 33.1843 4.11552C32.501 3.81121 31.7611 3.65548 31.0133 3.65858C30.7938 3.6582 30.5744 3.67194 30.3566 3.69971C30.3613 3.74223 30.3613 3.78513 30.3566 3.82765C30.3567 3.97787 30.3163 4.12534 30.2399 4.25455C30.1634 4.38377 30.0536 4.48995 29.922 4.56195C29.7904 4.63395 29.6419 4.6691 29.492 4.66372C29.3422 4.65833 29.1965 4.61259 29.0704 4.53133C29.0323 4.66921 28.9594 4.79497 28.8589 4.89658C28.7583 4.9982 28.6334 5.07226 28.4962 5.11169C28.3589 5.15112 28.2138 5.1546 28.0748 5.12178C27.9358 5.08897 27.8075 5.02097 27.7022 4.92429C27.694 4.93715 27.6831 4.94806 27.6703 4.95628C26.7976 5.8275 26.3613 7.07035 26.3613 8.68485C26.3613 10.4151 26.8372 11.6641 27.7889 12.4317C28.7157 13.1911 29.88 13.5988 31.0772 13.5832C31.3782 13.5832 34.2241 13.7751 35.8067 12.4226C35.6591 12.111 35.5798 11.7713 35.5741 11.4265ZM29.5311 6.21741C29.727 6.02931 29.9602 5.88453 30.2156 5.79243C30.4709 5.70034 30.7427 5.66299 31.0133 5.6828C31.5427 5.66699 32.0591 5.84761 32.4637 6.19C32.6661 6.37894 32.828 6.60728 32.9394 6.86105C33.0507 7.11482 33.1092 7.38869 33.1113 7.66589H28.8834C28.94 7.12633 29.1669 6.61891 29.5311 6.21741Z" fill="url(#paint3_linear)"/>
<defs>
<linearGradient id="paint0_linear" x1="38.7366" y1="6.79268" x2="39.1078" y2="6.73974" gradientUnits="userSpaceOnUse">
<stop stop-color="#F28F16"/>
<stop offset="1" stop-color="#D60B52"/>
</linearGradient>
<linearGradient id="paint1_linear" x1="40.5001" y1="17.5" x2="51.4689" y2="16.0667" gradientUnits="userSpaceOnUse">
<stop stop-color="#F28F16"/>
<stop offset="1" stop-color="#D60B52"/>
</linearGradient>
<linearGradient id="paint2_linear" x1="31.0001" y1="16.4999" x2="50.4767" y2="15.1562" gradientUnits="userSpaceOnUse">
<stop stop-color="#F28F16"/>
<stop offset="1" stop-color="#D60B52"/>
</linearGradient>
<linearGradient id="paint3_linear" x1="27.0808" y1="13.335" x2="46.4101" y2="11.9183" gradientUnits="userSpaceOnUse">
<stop stop-color="#F28F16"/>
<stop offset="1" stop-color="#D60B52"/>
</linearGradient>
</defs>
</svg>
