<svg width="205" height="150" viewBox="0 0 205 150" fill="none" xmlns="http://www.w3.org/2000/svg">
<path d="M202.655 41.6168C213.743 73.4542 186.024 150 108.411 150C67.8428 150 1 122.098 1 87.6796C1 53.261 59.5271 60.5837 100.095 60.5837C140.664 60.5837 186.717 7.06947 202.655 41.6168Z" fill="#F3F3F3"/>
<g clip-path="url(#clip0)">
<path d="M143 86.2891V95.3975C143 98.4909 134.751 101.069 124.611 101.069C114.472 101.069 106.395 98.5769 106.395 95.4835V94.4525L106.223 87.2344H106.309C107.683 89.8982 115.245 91.9606 124.353 91.9606C133.462 91.9606 142.828 89.3828 142.828 86.2892H143V86.2891Z" fill="#DF7E08"/>
<path d="M124.096 52.4326V61.4551H123.924C123.924 64.6345 115.417 67.1264 105.363 67.1264C101.497 67.2123 97.5438 66.7827 93.7629 65.8374L93.591 66.0093C91.7006 64.4626 89.5524 63.2597 87.2323 62.4863V62.3144L86.9746 52.7764C87.5761 55.6979 95.5675 58.0179 105.277 58.0179C114.987 58.0179 123.924 55.526 123.924 52.4326H124.096Z" fill="#EB870E"/>
<path d="M124.096 52.6046C124.096 55.698 115.589 58.1899 105.449 58.1899C95.3096 58.1899 87.6619 55.8698 87.0605 52.9483C87.0605 52.8625 86.9746 52.6906 86.9746 52.6046C86.9746 49.5112 95.2237 46.9332 105.449 46.9332C115.675 46.8474 124.096 49.4252 124.096 52.6046Z" fill="#F28F16"/>
<path d="M106.309 87.2341L106.223 85.3437L106.051 77.6102C106.652 80.5317 114.644 82.8518 124.354 82.8518C134.064 82.8518 142.656 80.3598 142.914 77.3523H143V86.2889H142.828C142.828 89.3823 134.493 91.9602 124.353 91.9602C114.214 91.9601 107.683 89.8979 106.309 87.2341Z" fill="#EB870E"/>
<path d="M94.0195 92.9916C96.3396 90.8434 98.1442 88.0936 99.0892 85.0862H99.5188C101.409 85.2581 103.3 85.3439 105.362 85.3439H106.221V87.2344L106.393 94.4524H105.448C101.667 94.5383 97.9721 94.1087 94.2773 93.2495L94.0195 92.9916Z" fill="#DF7E08"/>
<path d="M106.308 76.9223V77.352L106.48 85.3433H105.62C103.472 85.3433 101.496 85.2575 99.6054 85.0856H99.1758C99.7773 83.2812 100.035 81.3907 100.035 79.5003C100.035 78.2113 99.8631 77.0084 99.6054 75.8054H100.035C101.839 75.9773 103.644 76.0631 105.62 76.0631L106.394 76.4927C106.308 76.6645 106.308 76.8363 106.308 76.9223Z" fill="#EB870E"/>
<path d="M93.7635 65.8374C97.5444 66.7827 101.497 67.2123 105.364 67.1264C115.417 67.1264 123.924 64.6345 123.924 61.4551H124.096V71.5946C114.73 71.5946 107.082 73.8288 106.137 76.6643L105.364 76.2347C103.473 76.2347 101.669 76.1489 99.9505 75.977H99.5209C98.7475 72.0242 96.6852 68.5012 93.5918 65.9233L93.7635 65.8374Z" fill="#DF7E08"/>
<path d="M99.6921 75.9775C98.8329 72.0247 96.6846 68.4159 93.5912 65.7521C91.7008 64.0335 89.4666 62.8306 87.0607 62.1431C85.3421 61.5416 83.4517 61.2839 81.6472 61.2839C71.4217 61.1977 63.0865 69.3609 63.0007 79.5863C62.9148 89.8117 71.0779 98.1469 81.3035 98.2327C86.0296 98.2327 90.4978 96.5141 94.0208 93.3347C96.4269 91.1005 98.2313 88.265 99.1765 85.1715C99.778 83.3671 100.036 81.5625 100.036 79.672C100.036 78.4694 99.6921 77.1804 99.6921 75.9775Z" fill="#F28F16"/>
<path d="M90.9674 85.4737C90.9377 84.8461 90.976 84.2171 91.0818 83.5975C89.7819 84.4108 88.3606 85.0185 86.8695 85.3986C85.2036 85.8429 83.4735 86.0078 81.7519 85.8864C80.7537 85.8763 79.7727 85.6285 78.8929 85.1641C78.2272 84.7181 77.6891 84.1111 77.3303 83.4015C76.9715 82.6918 76.804 81.9033 76.844 81.1116H91.0723C91.1207 79.8364 91.0633 78.5595 90.9007 77.2936C90.7054 75.855 90.1737 74.4806 89.3473 73.2786C88.5167 72.0445 87.3466 71.0685 85.9737 70.4643C84.546 69.8396 82.9999 69.5198 81.4374 69.5262C80.9786 69.5254 80.5202 69.5536 80.0651 69.6106C80.0749 69.6979 80.0749 69.786 80.0651 69.8733C80.0653 70.1817 79.981 70.4845 79.8212 70.7497C79.6614 71.015 79.432 71.233 79.157 71.3808C78.882 71.5286 78.5716 71.6008 78.2585 71.5898C77.9454 71.5787 77.6411 71.4848 77.3776 71.318C77.2979 71.601 77.1457 71.8592 76.9356 72.0678C76.7255 72.2764 76.4645 72.4285 76.1776 72.5094C75.8908 72.5904 75.5876 72.5975 75.2971 72.5302C75.0067 72.4628 74.7386 72.3232 74.5186 72.1247C74.5015 72.1511 74.4787 72.1735 74.4519 72.1904C72.6285 73.979 71.7168 76.5306 71.7168 79.8452C71.7168 83.3974 72.7111 85.9615 74.6997 87.5375C76.6363 89.0964 79.0693 89.9335 81.5708 89.9014C82.1998 89.9014 88.1466 90.2954 91.4535 87.5187C91.1451 86.879 90.9794 86.1817 90.9674 85.4737ZM78.3402 74.7795C78.7496 74.3933 79.2369 74.0961 79.7704 73.907C80.3039 73.7179 80.8719 73.6413 81.4374 73.6819C82.5435 73.6495 83.6227 74.0203 84.468 74.7232C84.891 75.1111 85.2293 75.5799 85.4619 76.1009C85.6946 76.6219 85.8169 77.1841 85.8212 77.7532H76.9869C77.1051 76.6455 77.5792 75.6038 78.3402 74.7795Z" fill="white"/>
<path d="M142.914 77.1801V77.352C142.656 80.3595 134.321 82.8515 124.354 82.8515C114.386 82.8515 106.652 80.5314 106.051 77.6099V77.1803C106.051 77.0084 106.051 76.8365 106.137 76.6647C107.082 73.829 114.729 71.595 124.096 71.595H124.353C134.493 71.5948 142.914 74.0867 142.914 77.1801Z" fill="#F28F16"/>
</g>
<path d="M13.1587 4.75343L15.8656 10.4887C16.0538 10.8876 16.4178 11.164 16.8388 11.2279L22.8919 12.1477C23.9522 12.3089 24.3753 13.671 23.6083 14.4526L19.2283 18.9168C18.9239 19.2273 18.7848 19.6748 18.8569 20.113L19.8906 26.4168C20.0719 27.5208 18.9635 28.3626 18.0153 27.8417L12.6015 24.8657C12.225 24.6589 11.775 24.6589 11.3985 24.8657L5.9847 27.8417C5.03651 28.3631 3.92812 27.5208 4.10935 26.4168L5.14315 20.113C5.21524 19.6748 5.07606 19.2273 4.77168 18.9168L0.391687 14.4526C-0.375275 13.6705 0.0477552 12.3084 1.10809 12.1477L7.16118 11.2279C7.58221 11.164 7.94616 10.8876 8.1344 10.4887L10.8413 4.75343C11.3149 3.74886 12.6846 3.74886 13.1587 4.75343Z" fill="#F28F16"/>
<path d="M103.676 11.4395L105.255 14.7851C105.365 15.0178 105.577 15.179 105.823 15.2163L109.354 15.7528C109.972 15.8468 110.219 16.6414 109.772 17.0973L107.217 19.7015C107.039 19.8826 106.958 20.1437 107 20.3992L107.603 24.0765C107.709 24.7205 107.062 25.2115 106.509 24.9077L103.351 23.1717C103.131 23.051 102.869 23.051 102.649 23.1717L99.4911 24.9077C98.938 25.2118 98.2914 24.7205 98.3971 24.0765L99.0002 20.3992C99.0422 20.1437 98.961 19.8826 98.7835 19.7015L96.2285 17.0973C95.7811 16.6411 96.0279 15.8465 96.6464 15.7528L100.177 15.2163C100.423 15.179 100.635 15.0178 100.745 14.7851L102.324 11.4395C102.6 10.8535 103.399 10.8535 103.676 11.4395Z" fill="#FFC752"/>
<path d="M160.483 0.313927L161.611 2.70364C161.689 2.86984 161.841 2.98501 162.016 3.01162L164.538 3.39485C164.98 3.46203 165.156 4.02958 164.837 4.35523L163.012 6.21535C162.885 6.34469 162.827 6.53118 162.857 6.71375L163.288 9.34033C163.363 9.80035 162.901 10.1511 162.506 9.93405L160.251 8.69405C160.094 8.60789 159.906 8.60789 159.749 8.69405L157.494 9.93405C157.099 10.1513 156.637 9.80035 156.712 9.34033L157.143 6.71375C157.173 6.53118 157.115 6.34469 156.988 6.21535L155.163 4.35523C154.844 4.02936 155.02 3.46182 155.462 3.39485L157.984 3.01162C158.159 2.98501 158.311 2.86984 158.389 2.70364L159.517 0.313927C159.715 -0.104642 160.285 -0.104642 160.483 0.313927Z" fill="#FFC752"/>
<path d="M202.29 38.1884L202.966 39.6222C203.013 39.7219 203.104 39.791 203.21 39.807L204.723 40.0369C204.988 40.0772 205.094 40.4177 204.902 40.6131L203.807 41.7292C203.731 41.8068 203.696 41.9187 203.714 42.0282L203.973 43.6042C204.018 43.8802 203.741 44.0906 203.504 43.9604L202.15 43.2164C202.056 43.1647 201.944 43.1647 201.85 43.2164L200.496 43.9604C200.259 44.0908 199.982 43.8802 200.027 43.6042L200.286 42.0282C200.304 41.9187 200.269 41.8068 200.193 41.7292L199.098 40.6131C198.906 40.4176 199.012 40.0771 199.277 40.0369L200.79 39.807C200.896 39.791 200.987 39.7219 201.034 39.6222L201.71 38.1884C201.829 37.9372 202.171 37.9372 202.29 38.1884Z" fill="#FFC752"/>
<path d="M19.7136 67.3579L21.0947 70.0821C21.1907 70.2715 21.3764 70.4028 21.5912 70.4332L24.6795 70.8701C25.2205 70.9466 25.4363 71.5936 25.045 71.9649L22.8103 74.0853C22.655 74.2328 22.584 74.4454 22.6208 74.6535L23.1483 77.6478C23.2407 78.1722 22.6752 78.572 22.1914 78.3246L19.4293 76.911C19.2372 76.8128 19.0076 76.8128 18.8155 76.911L16.0534 78.3246C15.5696 78.5722 15.0041 78.1722 15.0966 77.6478L15.624 74.6535C15.6608 74.4454 15.5898 74.2328 15.4345 74.0853L13.1998 71.9649C12.8085 71.5934 13.0244 70.9464 13.5653 70.8701L16.6537 70.4332C16.8685 70.4028 17.0542 70.2715 17.1502 70.0821L18.5313 67.3579C18.7729 66.8807 19.4717 66.8807 19.7136 67.3579Z" fill="#FFC752"/>
<defs>
<clipPath id="clip0">
<rect width="80" height="80" fill="white" transform="translate(63 34)"/>
</clipPath>
</defs>
</svg>
