<?xml version="1.0" encoding="utf-8"?>
<!-- Generator: Adobe Illustrator 23.0.1, SVG Export Plug-In . SVG Version: 6.00 Build 0)  -->
<svg version="1.1" id="Слой_1" xmlns="http://www.w3.org/2000/svg" xmlns:xlink="http://www.w3.org/1999/xlink" x="0px" y="0px"
	 viewBox="0 0 205 152.6" style="enable-background:new 0 0 205 152.6;" xml:space="preserve" width="205" height="152">
<style type="text/css">
	.st0{fill:#F3F3F3;}
	.st1{fill:#D60B52;}
	.st2{fill:#FF649A;}
	.st3{fill:#F28F16;}
	.st4{clip-path:url(#SVGID_2_);}
	.st5{fill:#FFFFFF;}
	.st6{fill:#FFA000;}
	.st7{fill:#F7F6F3;}
</style>
<path class="st0" d="M202.7,44.2C213.7,76,186,152.6,108.4,152.6C67.8,152.6,1,124.7,1,90.2c0-34.4,58.5-27.1,99.1-27.1
	C140.7,63.1,186.7,9.6,202.7,44.2z"/>
<path class="st1" d="M13.2,7.3l2.7,5.7c0.2,0.4,0.6,0.7,1,0.7l6.1,0.9c1.1,0.2,1.5,1.5,0.7,2.3l-4.4,4.5c-0.3,0.3-0.4,0.8-0.4,1.2
	l1,6.3c0.2,1.1-0.9,1.9-1.9,1.4l-5.4-3c-0.4-0.2-0.8-0.2-1.2,0l-5.4,3C5,30.9,3.9,30.1,4.1,29l1-6.3c0.1-0.4-0.1-0.9-0.4-1.2L0.4,17
	c-0.8-0.8-0.3-2.1,0.7-2.3l6.1-0.9c0.4-0.1,0.8-0.3,1-0.7l2.7-5.7C11.3,6.3,12.7,6.3,13.2,7.3z"/>
<path class="st2" d="M202.3,40.8l0.7,1.4c0,0.1,0.1,0.2,0.2,0.2l1.5,0.2c0.3,0,0.4,0.4,0.2,0.6l-1.1,1.1c-0.1,0.1-0.1,0.2-0.1,0.3
	l0.3,1.6c0,0.3-0.2,0.5-0.5,0.4l-1.4-0.7c-0.1-0.1-0.2-0.1-0.3,0l-1.4,0.7c-0.2,0.1-0.5-0.1-0.5-0.4l0.3-1.6c0-0.1,0-0.2-0.1-0.3
	l-1.1-1.1c-0.2-0.2-0.1-0.5,0.2-0.6l1.5-0.2c0.1,0,0.2-0.1,0.2-0.2l0.7-1.4C201.8,40.5,202.2,40.5,202.3,40.8z"/>
<path class="st2" d="M19.7,69.9l1.4,2.7c0.1,0.2,0.3,0.3,0.5,0.4l3.1,0.4c0.5,0.1,0.8,0.7,0.4,1.1l-2.2,2.1
	c-0.2,0.1-0.2,0.4-0.2,0.6l0.5,3c0.1,0.5-0.5,0.9-1,0.7l-2.8-1.4c-0.2-0.1-0.4-0.1-0.6,0l-2.8,1.4c-0.5,0.2-1-0.2-1-0.7l0.5-3
	c0-0.2,0-0.4-0.2-0.6l-2.2-2.1c-0.4-0.4-0.2-1,0.4-1.1l3.1-0.4c0.2,0,0.4-0.2,0.5-0.4l1.4-2.7C18.8,69.4,19.5,69.4,19.7,69.9z"/>
<circle class="st3" cx="107" cy="74.6" r="37.5"/>
<g>
	<defs>
		<rect id="SVGID_1_" x="83.6" y="51.2" width="46.9" height="46.9"/>
	</defs>
	<clipPath id="SVGID_2_">
		<use xlink:href="#SVGID_1_"  style="overflow:visible;"/>
	</clipPath>
	<g class="st4">
		<path class="st5" d="M126.5,62.9c-2.2,0-3.9,1.7-3.9,3.9c0,0.4,0.1,0.8,0.2,1.2l-3.2,2c-2.1,1.3-4.8,0.9-6.4-1l-3.1-3.8
			c0.5-0.7,0.8-1.5,0.8-2.3c0-2.2-1.7-3.9-3.9-3.9s-3.9,1.7-3.9,3.9c0,0.8,0.3,1.6,0.8,2.3l-3.1,3.8c-1.6,1.9-4.3,2.4-6.4,1l-3.2-2
			c0.1-0.4,0.2-0.8,0.2-1.2c0-2.2-1.7-3.9-3.9-3.9c-2.2,0-3.9,1.7-3.9,3.9c0,2,1.5,3.7,3.6,3.9l2.3,13.8c0.1,0.5,0.5,0.8,1,0.8h33.2
			c0.5,0,0.9-0.3,1-0.8l2.3-13.8c2.1-0.2,3.7-2.1,3.5-4.2C130.2,64.5,128.6,62.9,126.5,62.9z"/>
		<path class="st6" d="M107,89.3c9.2,0,16.6-2.2,16.6-4.9c0-2.7-7.4-4.9-16.6-4.9s-16.6,2.2-16.6,4.9C90.4,87.1,97.8,89.3,107,89.3z
			"/>
		<path class="st7" d="M107,90.3c-8.7,0-17.6-2-17.6-5.9c0-3.8,8.8-5.9,17.6-5.9s17.6,2,17.6,5.9C124.6,88.2,115.7,90.3,107,90.3z
			 M107,80.5c-10.3,0-15.6,2.5-15.6,3.9c0,1.4,5.4,3.9,15.6,3.9s15.6-2.5,15.6-3.9C122.6,83,117.3,80.5,107,80.5z"/>
	</g>
</g>
<path class="st1" d="M147.9,15l3.4,6.7c0.2,0.5,0.7,0.8,1.2,0.9l7.6,1.1c1.3,0.2,1.9,1.8,0.9,2.7l-5.5,5.2c-0.4,0.4-0.6,0.9-0.5,1.4
	l1.3,7.4c0.2,1.3-1.2,2.3-2.3,1.7l-6.8-3.5c-0.5-0.2-1-0.2-1.5,0l-6.8,3.5c-1.2,0.6-2.6-0.4-2.3-1.7l1.3-7.4c0.1-0.5-0.1-1-0.5-1.4
	l-5.5-5.2c-1-0.9-0.4-2.5,0.9-2.7l7.6-1.1c0.5-0.1,1-0.4,1.2-0.9l3.4-6.7C145.6,13.8,147.4,13.8,147.9,15z"/>
<path class="st1" d="M61.6,81.8l3.5,7.1c0.2,0.5,0.7,0.8,1.3,0.9l7.9,1.1c1.4,0.2,1.9,1.9,0.9,2.9l-5.7,5.5
	c-0.4,0.4-0.6,0.9-0.5,1.5l1.3,7.8c0.2,1.4-1.2,2.4-2.4,1.8l-7-3.7c-0.5-0.3-1.1-0.3-1.6,0l-7,3.7c-1.2,0.6-2.7-0.4-2.4-1.8l1.3-7.8
	c0.1-0.5-0.1-1.1-0.5-1.5L45,93.8c-1-1-0.4-2.7,0.9-2.9l7.9-1.1c0.5-0.1,1-0.4,1.3-0.9l3.5-7.1C59.2,80.6,61,80.6,61.6,81.8z"/>
<path class="st2" d="M90.6,1.8L93,6.5c0.2,0.3,0.5,0.6,0.9,0.6l5.5,0.8c1,0.1,1.4,1.3,0.7,1.9l-4,3.7c-0.3,0.3-0.4,0.6-0.3,1
	l0.9,5.3c0.2,0.9-0.8,1.6-1.7,1.2l-5-2.5c-0.3-0.2-0.8-0.2-1.1,0L84,21c-0.9,0.4-1.9-0.3-1.7-1.2l0.9-5.3c0.1-0.4-0.1-0.7-0.3-1
	l-4-3.7c-0.7-0.7-0.3-1.8,0.7-1.9l5.5-0.8c0.4-0.1,0.7-0.3,0.9-0.6l2.5-4.8C88.9,0.9,90.1,0.9,90.6,1.8z"/>
<path class="st1" d="M143,97l1.9,3.7c0.1,0.3,0.4,0.4,0.7,0.5l4.3,0.6c0.8,0.1,1.1,1,0.5,1.5l-3.1,2.9c-0.2,0.2-0.3,0.5-0.3,0.8
	l0.7,4.1c0.1,0.7-0.7,1.3-1.3,0.9l-3.9-1.9c-0.3-0.1-0.6-0.1-0.9,0l-3.9,1.9c-0.7,0.3-1.5-0.2-1.3-0.9l0.7-4.1
	c0.1-0.3,0-0.6-0.3-0.8l-3.1-2.9c-0.5-0.5-0.2-1.4,0.5-1.5l4.3-0.6c0.3,0,0.6-0.2,0.7-0.5l1.9-3.7C141.7,96.3,142.6,96.3,143,97z"/>
</svg>
