<svg width="80" height="80" viewBox="0 0 80 80" fill="none" xmlns="http://www.w3.org/2000/svg">
<g clip-path="url(#clip0)">
<path d="M20.6661 64.9385L79.9985 30.1985L62.3156 -0.00204338L2.98324 34.738L20.6661 64.9385Z" fill="#8B8B8B"/>
<path d="M57.7533 6.60132L10.9823 33.9871C11.9996 35.7244 11.375 37.9812 9.58789 39.0276L20.1601 57.0835C21.9474 56.0371 24.2211 56.5968 25.2382 58.3342L72.0093 30.9484C70.9921 29.2111 71.6163 26.9545 73.4039 25.9079L62.8314 7.852C61.0439 8.89874 58.7706 8.33867 57.7533 6.60132Z" fill="#CDCDCD"/>
<path d="M49.634 27.7007C46.3028 22.0112 39.9586 19.5325 35.4639 22.1641C30.9693 24.7958 30.0262 31.5414 33.3574 37.2309C36.6887 42.9203 43.0328 45.3991 47.5275 42.7674C52.0221 40.1357 52.9653 33.3901 49.634 27.7007Z" fill="#9E9E9E"/>
<path d="M64.5435 21.1051C65.7217 21.1051 66.6769 20.15 66.6769 18.9717C66.6769 17.7935 65.7217 16.8384 64.5435 16.8384C63.3653 16.8384 62.4102 17.7935 62.4102 18.9717C62.4102 20.15 63.3653 21.1051 64.5435 21.1051Z" fill="#9E9E9E"/>
<path d="M18.4446 48.1021C19.6228 48.1021 20.578 47.147 20.578 45.9688C20.578 44.7906 19.6228 43.8354 18.4446 43.8354C17.2664 43.8354 16.3113 44.7906 16.3113 45.9688C16.3113 47.147 17.2664 48.1021 18.4446 48.1021Z" fill="#3EA69B"/>
<path d="M45.9133 41.0212L45.0578 39.5601C43.1194 40.4446 41.0517 40.6788 38.8568 40.2623L39.2984 37.6655C40.9893 37.9834 42.482 37.888 43.7807 37.3791L41.5071 33.496C39.788 34.0191 38.4061 34.1918 37.362 34.0147C36.3178 33.8376 35.4578 33.1721 34.7821 32.0181C34.1065 30.8641 33.9561 29.6846 34.3339 28.477C34.7122 27.2701 35.5286 26.2551 36.7845 25.4302L36.1984 24.4294L37.4787 23.6797L38.0762 24.7002C39.6066 23.9484 41.2872 23.6359 43.1188 23.7643L42.8955 26.3677C41.6471 26.2566 40.4677 26.4276 39.3535 26.8821L41.5566 30.6447L41.6168 30.6094C43.3624 30.0718 44.7747 29.8987 45.8537 30.0905C46.9348 30.2821 47.8165 30.9622 48.4998 32.1293C49.1835 33.2971 49.3268 34.4907 48.9285 35.7081C48.5312 36.9272 47.6724 37.967 46.3498 38.8311L47.1934 40.2717L45.9133 41.0212ZM36.9367 28.929C36.7718 29.428 36.8213 29.901 37.083 30.3481C37.3447 30.7953 37.6854 31.0705 38.1045 31.1738C38.5226 31.279 39.1771 31.2315 40.0655 31.034L38.0379 27.5712C37.4684 27.9768 37.1012 28.4291 36.9367 28.929ZM46.2891 35.2379C46.4828 34.7133 46.4436 34.2167 46.17 33.7493C45.8967 33.2826 45.5332 32.9979 45.0798 32.8959C44.6247 32.7948 43.9272 32.8588 42.9868 33.0868L45.0959 36.6889C45.6975 36.2482 46.0943 35.7643 46.2891 35.2379Z" fill="#44C4A1"/>
<path d="M44.5732 50.9405L56.0945 44.1946L38.4116 13.994L26.8903 20.7399L44.5732 50.9405Z" fill="#FDFDFD"/>
<path d="M45.4276 50.4448L46.3086 49.929L28.6257 19.7284L27.7447 20.2443L45.4276 50.4448Z" fill="#EDEDED"/>
<path d="M54.3607 45.2077L55.2417 44.6919L37.5588 14.4914L36.6778 15.0072L54.3607 45.2077Z" fill="#EDEDED"/>
<path d="M11.2782 68.0723L78.792 55.092L72.185 20.7271L4.67113 33.7074L11.2782 68.0723Z" fill="#9E9E9E"/>
<path d="M12.7897 62.6883L8.07202 38.1434C9.42801 37.8828 10.3159 36.5724 10.0553 35.2164L67.7537 24.1265C68.0142 25.4825 69.3248 26.3703 70.6807 26.1097L75.3984 50.6546C74.0424 50.9152 73.1545 52.2256 73.4151 53.5816L15.7167 64.6715C15.4562 63.3156 14.1457 62.4275 12.7897 62.6883Z" fill="#CDCDCD"/>
<path d="M50.9924 42.6177C49.7477 36.1437 44.5926 31.6927 39.4782 32.676C34.3638 33.6593 31.2267 39.7046 32.4714 46.1785C33.7161 52.6525 38.8712 57.1035 43.9856 56.1202C49.1 55.1369 52.2371 49.0916 50.9924 42.6177Z" fill="#9E9E9E"/>
<path d="M67.961 41.4913C69.1392 41.4913 70.0943 40.5362 70.0943 39.358C70.0943 38.1797 69.1392 37.2246 67.961 37.2246C66.7828 37.2246 65.8276 38.1797 65.8276 39.358C65.8276 40.5362 66.7828 41.4913 67.961 41.4913Z" fill="#9E9E9E"/>
<path d="M15.5059 51.5743C16.6841 51.5743 17.6393 50.6192 17.6393 49.441C17.6393 48.2628 16.6841 47.3076 15.5059 47.3076C14.3277 47.3076 13.3726 48.2628 13.3726 49.441C13.3726 50.6192 14.3277 51.5743 15.5059 51.5743Z" fill="#3EA69B"/>
<path d="M43.0494 53.9358L42.7299 52.2732C40.6076 52.461 38.5801 51.9926 36.6495 50.8682L37.9313 48.5672C39.4196 49.4305 40.8588 49.8382 42.2528 49.7912L41.4035 45.3723C39.6084 45.2926 38.248 44.9947 37.3225 44.4797C36.3971 43.9647 35.8082 43.0507 35.5557 41.7373C35.3033 40.4241 35.5548 39.262 36.3134 38.2493C37.0722 37.2375 38.1803 36.5526 39.6393 36.1934L39.4204 35.0544L40.8773 34.7744L41.1005 35.9357C42.794 35.737 44.4827 36.0026 46.1667 36.7341L45.0884 39.1142C43.9484 38.5934 42.7794 38.3616 41.5777 38.4185L42.4006 42.7002L42.4692 42.687C44.2941 42.7621 45.6833 43.0697 46.6367 43.6101C47.5922 44.1511 48.1967 45.0862 48.4519 46.4143C48.7073 47.7433 48.4446 48.9163 47.6633 49.9313C46.8824 50.9483 45.7261 51.6423 44.191 52.0162L44.5062 53.6557L43.0494 53.9358ZM38.6167 39.5432C38.2949 39.9588 38.1839 40.4212 38.2816 40.93C38.3794 41.4388 38.6087 41.8118 38.9694 42.049C39.3285 42.2874 39.9616 42.4608 40.865 42.5708L40.1074 38.6301C39.4354 38.8227 38.9383 39.1267 38.6167 39.5432ZM45.3314 48.6086C45.6888 48.1785 45.8174 47.6972 45.7152 47.1653C45.6131 46.6342 45.3652 46.2447 44.9717 45.9973C44.5763 45.7504 43.8974 45.5782 42.9348 45.4797L43.7228 49.579C44.4368 49.3638 44.9723 49.0399 45.3314 48.6086Z" fill="#8B8B8B"/>
<path d="M27.9229 74.1301C27.9229 77.3719 21.6724 80 13.9619 80C6.25146 80 0.000976562 77.3719 0.000976562 74.1301V69.3284H27.9229V74.1301Z" fill="#8B8B8B"/>
<path d="M13.9621 75.1914C21.6726 75.1914 27.9232 72.5648 27.9232 69.3246C27.9232 66.0844 21.6726 63.4578 13.9621 63.4578C6.25158 63.4578 0.000976562 66.0844 0.000976562 69.3246C0.000976562 72.5648 6.25158 75.1914 13.9621 75.1914Z" fill="#BABABA"/>
<path d="M13.9617 64.605C7.23256 64.605 1.77734 66.7196 1.77734 69.3282C1.77734 71.9369 7.23256 74.0515 13.9617 74.0515C20.6909 74.0515 26.1461 71.9369 26.1461 69.3282C26.1461 66.7196 20.6909 64.605 13.9617 64.605ZM13.9617 73.5266C7.9803 73.5266 3.13122 71.6468 3.13122 69.3281C3.13122 67.0093 7.9803 65.1296 13.9617 65.1296C19.9432 65.1296 24.7922 67.0093 24.7922 69.3281C24.7922 71.647 19.9432 73.5266 13.9617 73.5266Z" fill="#DC8744"/>
<path d="M13.5155 72.5911V72.0163C11.6597 71.9429 9.99377 71.657 8.51978 71.1586L10.0021 70.4738C11.139 70.857 12.3091 71.085 13.5155 71.1586V69.6314C11.9852 69.4898 10.8647 69.3034 10.1541 69.0724C9.44346 68.8415 9.08815 68.499 9.08815 68.0452C9.08815 67.5913 9.49636 67.2202 10.316 66.9311C11.1357 66.6425 12.2017 66.4853 13.5155 66.4589V66.0652H14.8144V66.4666C16.3033 66.5089 17.7114 66.7055 19.0384 67.0572L17.7181 67.7815C16.824 67.535 15.8572 67.3828 14.8145 67.3248V68.8047H14.8757C16.4324 68.9466 17.576 69.1382 18.3065 69.3792C19.0386 69.6208 19.4038 69.9712 19.4038 70.4302C19.4038 70.8895 18.9841 71.2637 18.1445 71.552C17.305 71.8409 16.1961 71.9981 14.8145 72.0245V72.5911H13.5155ZM12.0827 67.51C11.7373 67.6279 11.5654 67.775 11.5654 67.9508C11.5654 68.1266 11.701 68.2658 11.972 68.3678C12.2414 68.4704 12.757 68.5687 13.5155 68.6631V67.3011C12.9056 67.3222 12.4281 67.3919 12.0827 67.51ZM16.3579 70.9616C16.7363 70.8412 16.9264 70.689 16.9264 70.5052C16.9264 70.3216 16.7776 70.176 16.4803 70.0684C16.1811 69.9608 15.6259 69.8599 14.8145 69.7653V71.182C15.4638 71.1561 15.9778 71.0824 16.3579 70.9616Z" fill="#DC8744"/>
<path d="M27.9229 68.2983C27.9229 71.5401 21.6724 74.1682 13.9619 74.1682C6.25146 74.1682 0.000976562 71.5402 0.000976562 68.2983V63.4966H27.9229V68.2983Z" fill="#8B8B8B"/>
<path d="M13.9621 69.3665C21.6726 69.3665 27.9232 66.7398 27.9232 63.4997C27.9232 60.2595 21.6726 57.6328 13.9621 57.6328C6.25158 57.6328 0.000976562 60.2595 0.000976562 63.4997C0.000976562 66.7398 6.25158 69.3665 13.9621 69.3665Z" fill="#BABABA"/>
<path d="M13.9617 58.7734C7.23256 58.7734 1.77734 60.8881 1.77734 63.4967C1.77734 66.1053 7.23256 68.22 13.9617 68.22C20.6909 68.22 26.1461 66.1053 26.1461 63.4967C26.1461 60.8881 20.6909 58.7734 13.9617 58.7734ZM13.9617 67.695C7.9803 67.695 3.13122 65.8153 3.13122 63.4965C3.13122 61.1778 7.9803 59.298 13.9617 59.298C19.9432 59.298 24.7922 61.1778 24.7922 63.4965C24.7922 65.8154 19.9432 67.695 13.9617 67.695Z" fill="#DC8744"/>
<path d="M13.5155 66.7595V66.1848C11.6597 66.1114 9.99377 65.8254 8.51978 65.327L10.0021 64.6423C11.139 65.0254 12.3091 65.2535 13.5155 65.327V63.7998C11.9852 63.6582 10.8647 63.4718 10.1541 63.2409C9.44346 63.0099 9.08815 62.6675 9.08815 62.2137C9.08815 61.7597 9.49636 61.3886 10.316 61.0995C11.1357 60.811 12.2017 60.6537 13.5155 60.6274V60.2336H14.8144V60.635C16.3033 60.6773 17.7114 60.874 19.0384 61.2257L17.7181 61.95C16.824 61.7034 15.8572 61.5512 14.8145 61.4933V62.9731H14.8757C16.4324 63.1151 17.576 63.3066 18.3065 63.5478C19.0386 63.7894 19.4038 64.1398 19.4038 64.5988C19.4038 65.0581 18.9841 65.4323 18.1445 65.7206C17.305 66.0095 16.1961 66.1667 14.8145 66.1931V66.7597H13.5155V66.7595ZM12.0827 61.6785C11.7373 61.7963 11.5654 61.9435 11.5654 62.1193C11.5654 62.2951 11.701 62.4342 11.972 62.5363C12.2414 62.6388 12.757 62.7371 13.5155 62.8315V61.4695C12.9056 61.4908 12.4281 61.5603 12.0827 61.6785ZM16.3579 65.1301C16.7363 65.0096 16.9264 64.8574 16.9264 64.6737C16.9264 64.4901 16.7776 64.3444 16.4803 64.2368C16.1811 64.1292 15.6259 64.0283 14.8145 63.9338V65.3505C15.4638 65.3246 15.9778 65.2508 16.3579 65.1301Z" fill="#DC8744"/>
<path d="M27.9229 62.4667C27.9229 65.7085 21.6724 68.3367 13.9619 68.3367C6.25146 68.3367 0.000976562 65.7087 0.000976562 62.4667V57.665H27.9229V62.4667Z" fill="#8B8B8B"/>
<path d="M13.9621 63.533C21.6726 63.533 27.9232 60.9063 27.9232 57.6662C27.9232 54.426 21.6726 51.7993 13.9621 51.7993C6.25158 51.7993 0.000976562 54.426 0.000976562 57.6662C0.000976562 60.9063 6.25158 63.533 13.9621 63.533Z" fill="#BABABA"/>
<path d="M13.9617 52.9417C7.23256 52.9417 1.77734 55.0563 1.77734 57.6649C1.77734 60.2735 7.23256 62.3882 13.9617 62.3882C20.6909 62.3882 26.1461 60.2735 26.1461 57.6649C26.1461 55.0563 20.6909 52.9417 13.9617 52.9417ZM13.9617 61.8634C7.9803 61.8634 3.13122 59.9837 3.13122 57.6649C3.13122 55.3462 7.9803 53.4664 13.9617 53.4664C19.9432 53.4664 24.7922 55.3462 24.7922 57.6649C24.7922 59.9837 19.9432 61.8634 13.9617 61.8634Z" fill="#DC8744"/>
<path d="M13.5155 60.9277V60.353C11.6597 60.2796 9.99377 59.9936 8.51978 59.4952L10.0021 58.8105C11.139 59.1936 12.3091 59.4217 13.5155 59.4952V57.968C11.9852 57.8264 10.8647 57.6401 10.1541 57.4091C9.44346 57.1781 9.08815 56.8357 9.08815 56.3819C9.08815 55.9281 9.49636 55.5568 10.316 55.2678C11.1357 54.9792 12.2017 54.822 13.5155 54.7956V54.4019H14.8144V54.8032C16.3033 54.8456 17.7114 55.0422 19.0384 55.3939L17.7181 56.1182C16.824 55.8716 15.8572 55.7194 14.8145 55.6615V57.1413H14.8757C16.4324 57.2833 17.576 57.4748 18.3065 57.7161C19.0386 57.9576 19.4038 58.308 19.4038 58.767C19.4038 59.2264 18.9841 59.6006 18.1445 59.8888C17.305 60.1777 16.1961 60.3349 14.8145 60.3613V60.9279H13.5155V60.9277ZM12.0827 55.8466C11.7373 55.9644 11.5654 56.1115 11.5654 56.2873C11.5654 56.4631 11.701 56.6021 11.972 56.7043C12.2414 56.8069 12.757 56.9052 13.5155 56.9996V55.6376C12.9056 55.6589 12.4281 55.7284 12.0827 55.8466ZM16.3579 59.2983C16.7363 59.1779 16.9264 59.0257 16.9264 58.8419C16.9264 58.6583 16.7776 58.5126 16.4803 58.405C16.1811 58.2975 15.6259 58.1965 14.8145 58.102V59.5187C15.4638 59.4926 15.9778 59.4189 16.3579 59.2983Z" fill="#DC8744"/>
<path d="M27.9229 56.635C27.9229 59.8767 21.6724 62.5049 13.9619 62.5049C6.25146 62.5049 0.000976562 59.8769 0.000976562 56.635V51.8333H27.9229V56.635Z" fill="#8B8B8B"/>
<path d="M13.9621 57.6995C21.6726 57.6995 27.9232 55.0728 27.9232 51.8327C27.9232 48.5925 21.6726 45.9658 13.9621 45.9658C6.25158 45.9658 0.000976562 48.5925 0.000976562 51.8327C0.000976562 55.0728 6.25158 57.6995 13.9621 57.6995Z" fill="#BABABA"/>
<path d="M13.9617 47.1101C7.23256 47.1101 1.77734 49.2247 1.77734 51.8334C1.77734 54.442 7.23256 56.5566 13.9617 56.5566C20.6909 56.5566 26.1461 54.442 26.1461 51.8334C26.1461 49.2247 20.6909 47.1101 13.9617 47.1101ZM13.9617 56.0319C7.9803 56.0319 3.13122 54.1521 3.13122 51.8334C3.13122 49.5146 7.9803 47.6349 13.9617 47.6349C19.9432 47.6349 24.7922 49.5146 24.7922 51.8334C24.7922 54.1521 19.9432 56.0319 13.9617 56.0319Z" fill="#8B8B8B"/>
<path d="M13.5155 55.0964V54.5217C11.6597 54.4483 9.99377 54.1623 8.51978 53.6639L10.0021 52.979C11.139 53.3622 12.3091 53.5902 13.5155 53.6639V52.1367C11.9852 51.9951 10.8647 51.8088 10.1541 51.5778C9.44346 51.3468 9.08815 51.0044 9.08815 50.5506C9.08815 50.0968 9.49636 49.7255 10.316 49.4365C11.1357 49.1479 12.2017 48.9907 13.5155 48.9643V48.5706H14.8144V48.9719C16.3033 49.0143 17.7114 49.2109 19.0384 49.5626L17.7181 50.2869C16.824 50.0403 15.8572 49.8881 14.8145 49.8302V51.31H14.8757C16.4324 51.452 17.576 51.6436 18.3065 51.8848C19.0386 52.1263 19.4038 52.4767 19.4038 52.9357C19.4038 53.3951 18.9841 53.7693 18.1445 54.0575C17.305 54.3464 16.1961 54.5037 14.8145 54.53V55.0966H13.5155V55.0964ZM12.0827 50.0153C11.7373 50.1331 11.5654 50.2802 11.5654 50.456C11.5654 50.6318 11.701 50.7708 11.972 50.873C12.2414 50.9756 12.757 51.0739 13.5155 51.1683V49.8063C12.9056 49.8276 12.4281 49.8971 12.0827 50.0153ZM16.3579 53.467C16.7363 53.3466 16.9264 53.1944 16.9264 53.0106C16.9264 52.827 16.7776 52.6813 16.4803 52.5738C16.1811 52.4662 15.6259 52.3653 14.8145 52.2707V53.6874C15.4638 53.6613 15.9778 53.5878 16.3579 53.467Z" fill="#8B8B8B"/>
<path d="M57.364 74.1301C57.364 77.3719 51.1136 80 43.4031 80C35.6926 80 29.4421 77.372 29.4421 74.1301V69.3284H57.364V74.1301Z" fill="#8B8B8B"/>
<path d="M43.402 75.1914C51.1125 75.1914 57.3631 72.5648 57.3631 69.3246C57.3631 66.0844 51.1125 63.4578 43.402 63.4578C35.6915 63.4578 29.4409 66.0844 29.4409 69.3246C29.4409 72.5648 35.6915 75.1914 43.402 75.1914Z" fill="#BABABA"/>
<path d="M43.4031 64.605C36.674 64.605 31.2188 66.7196 31.2188 69.3282C31.2188 71.9369 36.674 74.0515 43.4031 74.0515C50.1323 74.0515 55.5875 71.9369 55.5875 69.3282C55.5875 66.7196 50.1325 64.605 43.4031 64.605ZM43.4031 73.5266C37.4217 73.5266 32.5726 71.6468 32.5726 69.3281C32.5726 67.0093 37.4217 65.1296 43.4031 65.1296C49.3846 65.1296 54.2336 67.0093 54.2336 69.3281C54.2336 71.647 49.3846 73.5266 43.4031 73.5266Z" fill="#DC8744"/>
<path d="M42.9569 72.5911V72.0163C41.1011 71.9429 39.4352 71.657 37.9612 71.1586L39.4435 70.4738C40.5804 70.857 41.7505 71.085 42.9569 71.1586V69.6314C41.4266 69.4898 40.3061 69.3034 39.5955 69.0724C38.8849 68.8415 38.5296 68.499 38.5296 68.0452C38.5296 67.5913 38.9378 67.2202 39.7575 66.9311C40.5771 66.6425 41.6431 66.4853 42.9569 66.4589V66.0652H44.2558V66.4666C45.7447 66.5089 47.1528 66.7055 48.4798 67.0572L47.1595 67.7815C46.2654 67.535 45.2986 67.3828 44.2559 67.3248V68.8047H44.3171C45.8738 68.9466 47.0174 69.1382 47.7479 69.3792C48.48 69.6208 48.8452 69.9712 48.8452 70.4302C48.8452 70.8895 48.4255 71.2637 47.5859 71.552C46.7464 71.8409 45.6375 71.9981 44.2559 72.0245V72.5911H42.9569ZM41.5241 67.51C41.1787 67.6279 41.0068 67.775 41.0068 67.9508C41.0068 68.1266 41.1424 68.2658 41.4134 68.3678C41.6828 68.4704 42.1984 68.5687 42.9569 68.6631V67.3011C42.347 67.3222 41.8695 67.3919 41.5241 67.51ZM45.7994 70.9616C46.1779 70.8412 46.368 70.689 46.368 70.5052C46.368 70.3216 46.2192 70.176 45.9218 70.0684C45.6227 69.9608 45.0675 69.8599 44.2561 69.7653V71.182C44.9054 71.1561 45.4192 71.0824 45.7994 70.9616Z" fill="#DC8744"/>
<path d="M57.364 68.2983C57.364 71.5401 51.1136 74.1682 43.4031 74.1682C35.6926 74.1682 29.4421 71.5402 29.4421 68.2983V63.4966H57.364V68.2983Z" fill="#8B8B8B"/>
<path d="M43.402 69.3665C51.1125 69.3665 57.3631 66.7398 57.3631 63.4997C57.3631 60.2595 51.1125 57.6328 43.402 57.6328C35.6915 57.6328 29.4409 60.2595 29.4409 63.4997C29.4409 66.7398 35.6915 69.3665 43.402 69.3665Z" fill="#BABABA"/>
<path d="M43.4031 58.7734C36.674 58.7734 31.2188 60.8881 31.2188 63.4967C31.2188 66.1053 36.674 68.22 43.4031 68.22C50.1323 68.22 55.5875 66.1053 55.5875 63.4967C55.5875 60.8881 50.1325 58.7734 43.4031 58.7734ZM43.4031 67.695C37.4217 67.695 32.5726 65.8153 32.5726 63.4965C32.5726 61.1778 37.4217 59.298 43.4031 59.298C49.3846 59.298 54.2336 61.1778 54.2336 63.4965C54.2336 65.8154 49.3846 67.695 43.4031 67.695Z" fill="#8B8B8B"/>
<path d="M42.9569 66.7595V66.1848C41.1011 66.1114 39.4352 65.8254 37.9612 65.327L39.4435 64.6423C40.5804 65.0254 41.7505 65.2535 42.9569 65.327V63.7998C41.4266 63.6582 40.3061 63.4718 39.5955 63.2409C38.8849 63.0099 38.5296 62.6675 38.5296 62.2137C38.5296 61.7597 38.9378 61.3886 39.7575 61.0995C40.5771 60.811 41.6431 60.6537 42.9569 60.6274V60.2336H44.2558V60.635C45.7447 60.6773 47.1528 60.874 48.4798 61.2257L47.1595 61.95C46.2654 61.7034 45.2986 61.5512 44.2559 61.4933V62.9731H44.3171C45.8738 63.1151 47.0174 63.3066 47.7479 63.5478C48.48 63.7894 48.8452 64.1398 48.8452 64.5988C48.8452 65.0581 48.4255 65.4323 47.5859 65.7206C46.7464 66.0095 45.6375 66.1667 44.2559 66.1931V66.7597H42.9569V66.7595ZM41.5241 61.6785C41.1787 61.7963 41.0068 61.9435 41.0068 62.1193C41.0068 62.2951 41.1424 62.4342 41.4134 62.5363C41.6828 62.6388 42.1984 62.7371 42.9569 62.8315V61.4695C42.347 61.4908 41.8695 61.5603 41.5241 61.6785ZM45.7994 65.1301C46.1779 65.0096 46.368 64.8574 46.368 64.6737C46.368 64.4901 46.2192 64.3444 45.9218 64.2368C45.6227 64.1292 45.0675 64.0283 44.2561 63.9338V65.3505C44.9054 65.3246 45.4192 65.2508 45.7994 65.1301Z" fill="#8B8B8B"/>
</g>
<defs>
<clipPath id="clip0">
<rect width="80" height="80" fill="white"/>
</clipPath>
</defs>
</svg>
