<svg width="66" height="72" viewBox="0 0 66 72" fill="none" xmlns="http://www.w3.org/2000/svg">
<path d="M0.124394 72L0.0207638 12.1619C0.00929331 5.53861 5.36612 0.158455 11.9894 0.141144L66 0L0.124394 72Z" fill="url(#paint0_linear)"/>
<path d="M4.5116 23.2971L5.59961 22.1328L12.7725 23.6351L12.8209 23.5833L11.5467 22.5064L8.16248 19.3902L9.06512 18.4243L15.425 24.2804L14.474 25.2981L6.94122 23.7212L6.89286 23.7729L8.16701 24.8498L11.7822 28.1786L10.8715 29.1532L4.5116 23.2971Z" fill="white"/>
<path d="M12.0956 17.0913L13.8454 18.7025L16.1907 16.1928L17.1322 17.0597L14.787 19.5695L16.5368 21.1807L19.14 18.395L20.0993 19.2783L16.5854 23.0386L10.2255 17.1825L13.7394 13.4222L14.6987 14.3056L12.0956 17.0913Z" fill="white"/>
<path d="M14.284 12.8395L15.243 11.8132L20.3203 14.5146L21.0702 14.9324L21.1186 14.8806L20.6669 14.1438L18.3927 10.1404L19.247 9.22617L23.4393 11.177L24.2045 11.5606L24.2528 11.5089L23.7697 10.8234L20.6267 6.05203L21.5857 5.02571L26.4144 12.5204L25.5117 13.4864L21.1717 11.4637L20.3718 11.0642L20.3234 11.1159L20.7929 11.8691L23.1423 16.022L22.2396 16.9879L14.284 12.8395Z" fill="white"/>
<path d="M20.603 41.1275C20.1732 41.5875 19.6897 41.9339 19.1526 42.1668C18.6209 42.3939 18.0727 42.5148 17.508 42.5297C16.9373 42.5391 16.3754 42.4389 15.8223 42.2291C15.2633 42.0139 14.7528 41.6936 14.2909 41.2683C13.829 40.843 13.472 40.3645 13.2197 39.8327C12.9675 39.301 12.8247 38.7523 12.7914 38.1867C12.758 37.6212 12.8354 37.0667 13.0237 36.5234C13.2173 35.9743 13.529 35.4697 13.9589 35.0098C14.3833 34.5555 14.8641 34.212 15.4012 33.9791C15.9383 33.7463 16.4922 33.6252 17.0628 33.6158C17.6335 33.6064 18.1953 33.7066 18.7485 33.9163C19.3016 34.1261 19.8091 34.4437 20.271 34.869C20.7329 35.2943 21.0929 35.7755 21.351 36.3127C21.6033 36.8445 21.7461 37.3932 21.7794 37.9587C21.8069 38.5188 21.7238 39.0734 21.5301 39.6225C21.3365 40.1717 21.0275 40.6733 20.603 41.1275ZM19.6437 40.2442C19.9285 39.9395 20.1409 39.6002 20.2809 39.2264C20.4209 38.8525 20.4786 38.4725 20.454 38.0861C20.4348 37.6941 20.3339 37.3069 20.1512 36.9248C19.9684 36.5426 19.6994 36.1879 19.3441 35.8608C18.9888 35.5336 18.6124 35.294 18.2148 35.1418C17.8171 34.9896 17.4207 34.9187 17.0254 34.9291C16.6354 34.9337 16.2579 35.0194 15.8929 35.186C15.5279 35.3527 15.203 35.5883 14.9182 35.8931C14.6334 36.1978 14.421 36.5371 14.281 36.9109C14.141 37.2847 14.0806 37.6677 14.0998 38.0598C14.1244 38.4461 14.228 38.8304 14.4107 39.2125C14.5935 39.5947 14.8625 39.9494 15.2178 40.2765C15.5731 40.6037 15.9495 40.8433 16.3471 40.9955C16.7448 41.1477 17.1385 41.2215 17.5285 41.2168C17.9238 41.2064 18.304 41.1179 18.669 40.9513C19.034 40.7846 19.3589 40.5489 19.6437 40.2442Z" fill="white"/>
<path d="M18.3757 30.5661L21.8896 26.8059L22.8489 27.6892L20.2457 30.4749L22.0667 32.1516L24.4119 29.6418L25.3535 30.5088L23.0082 33.0185L25.6463 35.4476L24.7356 36.4222L18.3757 30.5661Z" fill="white"/>
<path d="M23.131 25.4774L26.6449 21.7171L27.6042 22.6004L25.0011 25.3861L26.822 27.0628L29.1673 24.5531L30.1088 25.42L27.7635 27.9297L30.4017 30.3589L29.4909 31.3334L23.131 25.4774Z" fill="white"/>
<path d="M29.7564 20.2973L31.5063 21.9086L33.8515 19.3988L34.7931 20.2658L32.4478 22.7755L34.1977 24.3868L36.8008 21.6011L37.7601 22.4844L34.2463 26.2446L27.8864 20.3886L31.4002 16.6283L32.3596 17.5116L29.7564 20.2973Z" fill="white"/>
<path d="M32.7991 15.1314L34.8381 12.9494C35.1014 12.6676 35.3932 12.4496 35.7136 12.2954C36.0394 12.1354 36.3744 12.0481 36.7186 12.0334C37.0569 12.0133 37.3902 12.0634 37.7184 12.1838C38.0519 12.2984 38.3609 12.4866 38.6451 12.7483C38.8642 12.95 39.0365 13.1782 39.1621 13.4329C39.293 13.6819 39.3794 13.9432 39.421 14.2169C39.4568 14.4851 39.4503 14.7573 39.4017 15.0334C39.3584 15.3037 39.272 15.5612 39.1426 15.8058L39.179 15.8553L43.2724 16.4795L43.3257 16.5286L42.2618 17.667L38.2604 17.0151L37.5915 17.731L40.0697 20.0129L39.159 20.9874L32.7991 15.1314ZM37.7541 15.6824C37.8884 15.5387 37.9883 15.3846 38.0537 15.2203C38.1186 15.0447 38.1497 14.87 38.1468 14.6963C38.1439 14.5225 38.1075 14.3552 38.0374 14.1944C37.9668 14.0224 37.8574 13.8682 37.7094 13.7319C37.591 13.6229 37.451 13.5368 37.2896 13.4738C37.1336 13.405 36.9679 13.3701 36.7925 13.3691C36.6226 13.3623 36.4489 13.3949 36.2715 13.4669C36.0994 13.5331 35.9382 13.6467 35.7877 13.8077L34.6514 15.0238L36.6499 16.864L37.7541 15.6824Z" fill="white"/>
<defs>
<linearGradient id="paint0_linear" x1="34.5349" y1="30.4482" x2="3.20796" y2="5.37599" gradientUnits="userSpaceOnUse">
<stop stop-color="#D60B52"/>
<stop offset="1" stop-color="#FB3F80"/>
</linearGradient>
</defs>
</svg>
