<svg width="56" height="80" viewBox="0 0 56 80" fill="none" xmlns="http://www.w3.org/2000/svg">
<path d="M55.9118 71.393C55.8424 71.1069 55.7023 70.8494 55.6527 70.5575C55.6032 70.2657 55.5749 69.931 55.5395 69.6191C55.4276 68.6277 55.3271 67.6363 55.228 66.6435C54.4932 59.3047 53.849 51.9545 53.1964 44.6128C52.3979 35.6289 51.6121 26.644 50.8391 17.6581C50.3577 12.0856 49.8811 6.51067 49.4091 0.933372L49.3355 0.126533C49.3348 0.108729 49.3306 0.0912544 49.323 0.0751672C49.3154 0.05908 49.3047 0.0447157 49.2914 0.0329448C49.2782 0.021174 49.2627 0.0122416 49.246 0.00668924C49.2292 0.00113684 49.2115 -0.00092001 49.194 0.000643348H39.8937C39.6573 0.000643348 39.0103 0.24527 39.0343 0.572869C39.527 7.43958 40.0207 14.3111 40.5152 21.1873C40.5719 21.9798 40.629 22.7724 40.6866 23.5649L32.3165 23.708L17.5216 23.9569L14.2385 24.0112C14.3781 21.3533 14.5197 18.6943 14.6632 16.0344C14.8907 11.7265 15.1181 7.4186 15.3456 3.11069C15.4022 2.11406 15.4541 1.11935 15.5013 0.126533C15.5008 0.108662 15.4967 0.091085 15.4892 0.0748987C15.4817 0.0587124 15.4709 0.0442635 15.4577 0.0324525C15.4444 0.0206415 15.4288 0.0117217 15.412 0.006249C15.3951 0.000776327 15.3774 -0.00113187 15.3597 0.000643348H7.32805C7.06067 0.0102905 6.80721 0.123492 6.62017 0.316798L6.57911 0.366868C6.52028 0.420919 6.48134 0.493548 6.46868 0.572869C6.10341 4.41918 5.74003 8.2674 5.37853 12.1175C4.5923 20.3938 3.80608 28.6692 3.01985 36.9436C2.28459 44.6457 1.55122 52.3465 0.819734 60.0458C0.619638 62.1439 0.420485 64.2421 0.222277 66.3402C0.0780555 67.6227 0.00385087 68.9121 0 70.2028C0.0523837 73.7134 0.84805 78.5115 4.92832 79.2625C6.25207 79.5057 7.61829 79.573 8.95478 79.6488C11.0346 79.7675 13.1172 79.829 15.1998 79.8748C25.1102 80.0951 35.0447 80.0007 44.9594 79.789C46.7744 79.7504 48.782 79.9077 50.5276 79.3512C53.1893 78.5058 55.3936 76.2555 55.8835 73.4373C55.9968 72.7921 56.0633 72.0353 55.9118 71.393Z" fill="#D60B52"/>
<g clip-path="url(#clip0)">
<path d="M27.9985 45.6724C28.3869 45.6724 28.7017 45.3576 28.7017 44.9692C28.7017 44.5809 28.3869 44.2661 27.9985 44.2661C27.6102 44.2661 27.2954 44.5809 27.2954 44.9692C27.2954 45.3576 27.6102 45.6724 27.9985 45.6724Z" fill="#F28F16"/>
<path d="M33.6235 45.6724C34.0119 45.6724 34.3267 45.3576 34.3267 44.9692C34.3267 44.5809 34.0119 44.2661 33.6235 44.2661C33.2352 44.2661 32.9204 44.5809 32.9204 44.9692C32.9204 45.3576 33.2352 45.6724 33.6235 45.6724Z" fill="#F28F16"/>
<path d="M30.811 44.2661C31.1994 44.2661 31.5142 43.9513 31.5142 43.563C31.5142 43.1747 31.1994 42.8599 30.811 42.8599C30.4227 42.8599 30.1079 43.1747 30.1079 43.563C30.1079 43.9513 30.4227 44.2661 30.811 44.2661Z" fill="#F28F16"/>
<path d="M25.186 44.2661C25.5744 44.2661 25.8892 43.9513 25.8892 43.563C25.8892 43.1747 25.5744 42.8599 25.186 42.8599C24.7977 42.8599 24.4829 43.1747 24.4829 43.563C24.4829 43.9513 24.7977 44.2661 25.186 44.2661Z" fill="#F28F16"/>
<path d="M22.3735 45.6724C22.7619 45.6724 23.0767 45.3576 23.0767 44.9692C23.0767 44.5809 22.7619 44.2661 22.3735 44.2661C21.9852 44.2661 21.6704 44.5809 21.6704 44.9692C21.6704 45.3576 21.9852 45.6724 22.3735 45.6724Z" fill="#F28F16"/>
<path d="M39.9985 54.1099C39.9985 52.785 39.0775 51.6719 37.8423 51.3755V49.8911C38.2306 49.8911 38.5454 49.5763 38.5454 49.188V47.7349C38.5454 43.4701 35.0758 40.0005 30.811 40.0005H25.186C20.9213 40.0005 17.4517 43.4701 17.4517 47.7349V49.188C17.4517 49.5763 17.7665 49.8911 18.1548 49.8911V51.3755C16.9196 51.6719 15.9985 52.785 15.9985 54.1099C15.9985 55.4347 16.9196 56.5478 18.1548 56.8443V58.3286C17.7665 58.3286 17.4517 58.6434 17.4517 59.0317V60.4849C17.4517 62.4234 19.0288 64.0005 20.9673 64.0005H35.0298C36.9683 64.0005 38.5454 62.4234 38.5454 60.4849V59.0317C38.5454 58.6592 38.2555 58.3552 37.8892 58.331V56.8334C39.1008 56.5204 39.9985 55.418 39.9985 54.1099ZM34.3267 58.3286V56.9224H36.4829V58.3286H34.3267ZM38.5923 54.1099C38.5923 54.8853 37.9614 55.5161 37.186 55.5161H34.3267V52.7036H37.186C37.9614 52.7036 38.5923 53.3345 38.5923 54.1099ZM18.8579 47.7349C18.8579 44.2455 21.6967 41.4067 25.186 41.4067H30.811C34.3004 41.4067 37.1392 44.2455 37.1392 47.7349V48.4849H18.8579V47.7349ZM36.436 49.8911V51.2974H33.6235C33.2352 51.2974 32.9204 51.6122 32.9204 52.0005V59.0317C32.9204 59.4194 32.605 59.7349 32.2173 59.7349C31.8296 59.7349 31.5142 59.4194 31.5142 59.0317V52.0005C31.5142 51.6122 31.1993 51.2974 30.811 51.2974H26.5923C26.204 51.2974 25.8892 51.6122 25.8892 52.0005C25.8892 52.3882 25.5737 52.7036 25.186 52.7036C24.7983 52.7036 24.4829 52.3882 24.4829 52.0005C24.4829 51.6122 24.1681 51.2974 23.7798 51.2974H19.561V49.8911H36.436ZM17.4048 54.1099C17.4048 53.3345 18.0356 52.7036 18.811 52.7036H23.1971C23.4873 53.5221 24.2693 54.1099 25.186 54.1099C26.1028 54.1099 26.8847 53.5221 27.1749 52.7036H30.1079V55.5161H18.811C18.0356 55.5161 17.4048 54.8853 17.4048 54.1099ZM19.561 56.9224H30.1079V58.3286H19.561V56.9224ZM37.1392 60.4849C37.1392 61.648 36.1929 62.5942 35.0298 62.5942H20.9673C19.8042 62.5942 18.8579 61.648 18.8579 60.4849V59.7349H30.2288C30.5191 60.5533 31.3006 61.1411 32.2173 61.1411C33.1339 61.1411 33.9155 60.5533 34.2057 59.7349H37.1392V60.4849Z" fill="white"/>
</g>
<defs>
<clipPath id="clip0">
<rect x="15.9985" y="40.0005" width="24" height="24" fill="white"/>
</clipPath>
</defs>
</svg>
