<svg width="98" height="80" viewBox="0 0 98 80" fill="none" xmlns="http://www.w3.org/2000/svg">
<path d="M55.317 33.5069L60.7308 44.9775C61.1073 45.7752 61.8352 46.328 62.6772 46.4558L74.7834 48.2953C76.904 48.6178 77.7501 51.342 76.2162 52.9051L67.4562 61.8337C66.8475 62.4545 66.5691 63.3497 66.7133 64.226L68.7809 76.8336C69.1433 79.0417 66.9266 80.7252 65.0302 79.6835L54.2027 73.7314C53.4497 73.3179 52.5496 73.3179 51.7966 73.7314L40.9691 79.6835C39.0727 80.7262 36.856 79.0417 37.2184 76.8336L39.286 64.226C39.4302 63.3497 39.1518 62.4545 38.5431 61.8337L29.7831 52.9051C28.2492 51.3409 29.0953 48.6167 31.2159 48.2953L43.3221 46.4558C44.1641 46.328 44.892 45.7752 45.2685 44.9775L50.6823 33.5069C51.6294 31.4977 54.3689 31.4977 55.317 33.5069Z" fill="#8B8B8B"/>
<path d="M87.1584 0.715739L89.8653 6.16416C90.0535 6.5431 90.4175 6.80567 90.8385 6.86634L96.8916 7.7401C97.9519 7.89327 98.3749 9.18724 97.608 9.92971L93.228 14.1707C92.9236 14.4656 92.7844 14.8908 92.8565 15.307L93.8903 21.2955C94.0715 22.3443 92.9632 23.144 92.015 22.6492L86.6012 19.822C86.2247 19.6256 85.7747 19.6256 85.3982 19.822L79.9844 22.6492C79.0362 23.1445 77.9279 22.3443 78.1091 21.2955L79.1429 15.307C79.215 14.8908 79.0758 14.4656 78.7714 14.1707L74.3914 9.92971C73.6245 9.18675 74.0475 7.89277 75.1078 7.7401L81.1609 6.86634C81.5819 6.80567 81.9459 6.5431 82.1341 6.16416L84.841 0.715739C85.3146 -0.23858 86.6843 -0.23858 87.1584 0.715739Z" fill="#CDCDCD"/>
<path d="M10.9655 33.2173L13.2213 37.7576C13.3781 38.0734 13.6814 38.2922 14.0323 38.3428L19.0765 39.0709C19.9601 39.1986 20.3126 40.2769 19.6735 40.8956L16.0235 44.4298C15.7699 44.6755 15.6539 45.0298 15.714 45.3767L16.5755 50.3671C16.7265 51.2411 15.8028 51.9075 15.0127 51.4951L10.5012 49.1392C10.1875 48.9755 9.81243 48.9755 9.4987 49.1392L4.98723 51.4951C4.19708 51.9079 3.27342 51.2411 3.42444 50.3671L4.28594 45.3767C4.34601 45.0298 4.23003 44.6755 3.97638 44.4298L0.326404 40.8956C-0.312728 40.2765 0.0397958 39.1982 0.923401 39.0709L5.96762 38.3428C6.31848 38.2922 6.62178 38.0734 6.77864 37.7576L9.03437 33.2173C9.42903 32.422 10.5705 32.422 10.9655 33.2173Z" fill="#CDCDCD"/>
<path d="M37.7722 11.4772L39.5768 15.1094C39.7023 15.3621 39.9449 15.5371 40.2256 15.5776L44.261 16.1601C44.9678 16.2622 45.2499 17.1248 44.7386 17.6198L41.8186 20.4471C41.6157 20.6437 41.5229 20.9272 41.5709 21.2047L42.2601 25.197C42.3809 25.8962 41.642 26.4293 41.0099 26.0994L37.4007 24.2147C37.1497 24.0837 36.8497 24.0837 36.5987 24.2147L32.9895 26.0994C32.3574 26.4296 31.6185 25.8962 31.7393 25.197L32.4285 21.2047C32.4766 20.9272 32.3838 20.6437 32.1809 20.4471L29.2609 17.6198C28.7496 17.1245 29.0316 16.2618 29.7385 16.1601L33.7739 15.5776C34.0545 15.5371 34.2972 15.3621 34.4227 15.1094L36.2273 11.4772C36.543 10.8409 37.4561 10.8409 37.7722 11.4772Z" fill="#CDCDCD"/>
<path d="M86.0308 62.3139L87.2715 64.7036C87.3578 64.8698 87.5246 64.985 87.7175 65.0116L90.4919 65.3949C90.9779 65.462 91.1718 66.0296 90.8202 66.3552L88.8127 68.2153C88.6732 68.3447 88.6094 68.5312 88.6425 68.7137L89.1163 71.3403C89.1994 71.8003 88.6914 72.1511 88.2568 71.9341L85.7754 70.694C85.6029 70.6079 85.3966 70.6079 85.2241 70.694L82.7427 71.9341C82.3082 72.1513 81.8001 71.8003 81.8832 71.3403L82.357 68.7137C82.3901 68.5312 82.3263 68.3447 82.1868 68.2153L80.1793 66.3552C79.8278 66.0294 80.0216 65.4618 80.5076 65.3949L83.282 65.0116C83.4749 64.985 83.6417 64.8698 83.728 64.7036L84.9687 62.3139C85.1857 61.8954 85.8135 61.8954 86.0308 62.3139Z" fill="#CDCDCD"/>
</svg>
