<svg width="32" height="32" viewBox="0 0 32 32" fill="none" xmlns="http://www.w3.org/2000/svg">
<path d="M27.3131 4.68687C24.2896 1.6633 20.2761 0 16 0C11.7239 0 7.71044 1.6633 4.68687 4.68687C1.6633 7.71044 0 11.7239 0 16C0 20.2761 1.6633 24.2896 4.68687 27.3131C7.71044 30.3367 11.7239 32 16 32C20.2761 32 24.2896 30.3367 27.3131 27.3131C30.3367 24.2896 32 20.2761 32 16C32 11.7239 30.3367 7.71044 27.3131 4.68687ZM26.0269 26.0269C23.3468 28.7071 19.7845 30.1818 16 30.1818C12.2155 30.1818 8.6532 28.7071 5.97306 26.0269C0.444444 20.4983 0.444444 11.5017 5.97306 5.97306C8.6532 3.29293 12.2155 1.81818 16 1.81818C19.7845 1.81818 23.3468 3.29293 26.0269 5.97306C31.5556 11.5017 31.5556 20.4983 26.0269 26.0269Z" fill="url(#paint0_linear)"/>
<path d="M23.0505 8.94956C22.6936 8.59266 22.1212 8.59266 21.7643 8.94956L16 14.7139L10.2357 8.94956C9.87879 8.59266 9.3064 8.59266 8.9495 8.94956C8.5926 9.30646 8.5926 9.87885 8.9495 10.2358L14.7138 16.0001L8.9495 21.7644C8.5926 22.1213 8.5926 22.6937 8.9495 23.0506C9.12458 23.2257 9.36027 23.3199 9.58923 23.3199C9.81819 23.3199 10.0539 23.2324 10.229 23.0506L15.9933 17.2863L21.7576 23.0506C21.9326 23.2257 22.1683 23.3199 22.3973 23.3199C22.633 23.3199 22.8619 23.2324 23.037 23.0506C23.3939 22.6937 23.3939 22.1213 23.037 21.7644L17.2862 16.0001L23.0505 10.2358C23.4074 9.87885 23.4074 9.30646 23.0505 8.94956Z" fill="url(#paint1_linear)"/>
<defs>
<linearGradient id="paint0_linear" x1="16" y1="0" x2="16" y2="32" gradientUnits="userSpaceOnUse">
<stop stop-color="#D60B52"/>
<stop offset="1" stop-color="#F28F16"/>
</linearGradient>
<linearGradient id="paint1_linear" x1="16" y1="8.68188" x2="16" y2="23.3199" gradientUnits="userSpaceOnUse">
<stop stop-color="#D60B52"/>
<stop offset="1" stop-color="#F28F16"/>
</linearGradient>
</defs>
</svg>
